<?xml version="1.0" encoding="utf-8"?>
<!-- Generator: Adobe Illustrator 28.1.0, SVG Export Plug-In . SVG Version: 6.00 Build 0)  -->
<svg version="1.1" xmlns="http://www.w3.org/2000/svg" xmlns:xlink="http://www.w3.org/1999/xlink" x="0px" y="0px"
	 viewBox="0 0 1920 960" style="enable-background:new 0 0 1920 960;" xml:space="preserve">
<style type="text/css">
	.st0{fill:none;}
	.st1{fill:#FDBE13;}
	.st2{fill:#FED007;}
	.st3{fill:#FDE62A;}
	.st4{fill:#ED8223;}
	.st5{fill:#F89820;}
	.st6{fill:#FFCE54;}
	.st7{fill:#EAAB38;}
	.st8{fill:#F6BB3F;}
	.st9{fill:#F89938;}
	.st10{fill:#FAC62C;}
	.st11{fill:#48666B;}
	.st12{fill:#415959;}
	.st13{fill:#FDE365;}
	.st14{fill:#F26739;}
	.st15{fill:#FAA72F;}
	.st16{fill:#DCEBF8;}
	.st17{fill:none;stroke:#000000;stroke-width:0.5;stroke-miterlimit:10;}
	.st18{fill:#BADBF3;stroke:#000000;stroke-width:4;stroke-miterlimit:10;}
	.st19{fill:#BADBF3;}
	.st20{fill:#DCEBF8;stroke:#000000;stroke-width:4;stroke-linecap:round;stroke-linejoin:round;stroke-miterlimit:10;}
	.st21{fill:none;stroke:#000000;stroke-width:4;stroke-linecap:round;stroke-linejoin:round;stroke-miterlimit:10;}
	.st22{fill:#F47B68;stroke:#000000;stroke-width:4;stroke-linecap:round;stroke-linejoin:round;stroke-miterlimit:10;}
	.st23{fill:#487C9F;stroke:#000000;stroke-width:4;stroke-linecap:round;stroke-linejoin:round;stroke-miterlimit:10;}
	.st24{fill:#355F7D;stroke:#000000;stroke-width:4;stroke-linecap:round;stroke-linejoin:round;stroke-miterlimit:10;}
	.st25{fill:#EC615E;stroke:#000000;stroke-width:4;stroke-linecap:round;stroke-linejoin:round;stroke-miterlimit:10;}
	.st26{fill:#FCEA7D;stroke:#000000;stroke-width:4;stroke-linecap:round;stroke-linejoin:round;stroke-miterlimit:10;}
	.st27{fill:#F5DF43;stroke:#000000;stroke-width:4;stroke-linecap:round;stroke-linejoin:round;stroke-miterlimit:10;}
	.st28{fill:#FCEA7D;}
	.st29{fill:#CBCBCB;}
	.st30{fill:#E1E1E0;}
	.st31{fill:#8F8F8F;}
	.st32{fill:#A09F9F;}
	.st33{fill:#575158;}
	.st34{fill:#6B5F6B;}
	.st35{fill:#F4F2F4;}
	.st36{fill:#E3DFE2;}
	.st37{fill:#CAC3CB;}
	.st38{fill:#7A6D7A;}
	.st39{fill:#433F43;}
	.st40{fill:#D44242;stroke:#000000;stroke-width:5.6257;stroke-linecap:round;stroke-miterlimit:10;}
	.st41{fill:#FFFFFF;stroke:#000000;stroke-width:5.6257;stroke-linecap:round;stroke-miterlimit:10;}
	.st42{fill:none;stroke:#000000;stroke-width:5.6257;stroke-linecap:round;stroke-miterlimit:10;}
	.st43{fill:#654D4D;stroke:#000000;stroke-width:5.6257;stroke-linecap:round;stroke-miterlimit:10;}
	.st44{fill:#FBA931;}
	.st45{fill:#F8982C;}
	.st46{fill:#FDDB44;}
	.st47{fill:#FABD2A;}
</style>
<g id="GRID">
	<g>
		<rect x="0.6" y="0.6" class="st0" width="480" height="480"/>
		<rect x="480.6" y="0.6" class="st0" width="480" height="480"/>
		<rect x="960.6" y="0.6" class="st0" width="480" height="480"/>
		<rect x="1440.6" y="0.6" class="st0" width="480" height="480"/>
		<rect x="0.6" y="480.6" class="st0" width="480" height="480"/>
		<rect x="480.6" y="480.6" class="st0" width="480" height="480"/>
		<rect x="960.6" y="480.6" class="st0" width="480" height="480"/>
		<rect x="1440.6" y="480.6" class="st0" width="480" height="480"/>
	</g>
</g>
<g id="Baritone_Horn">
	<g>
		<path class="st0" d="M325.4,277.3v11.6h-10.2v11.3c0,3.2-2.6,5.8-5.8,5.8c-3.2,0-5.8-2.6-5.8-5.8v-11.3h-5.4v11.3
			c0,3.2-2.6,5.8-5.8,5.8c-3.2,0-5.8-2.6-5.8-5.8v-11.3H281v11.4c0,3.2-2.6,5.8-5.8,5.8c-3.2,0-5.8-2.6-5.8-5.8v-11.4h-10.1v-11.6
			h10.1v-13.8c0-3.2,2.6-5.8,5.8-5.8c1.6,0,3,0.7,4.1,1.7s1.7,2.5,1.7,4.1v13.8h5.6v-13.9c0-3.2,2.6-5.8,5.8-5.8
			c1.6,0,3.1,0.7,4.1,1.7s1.7,2.5,1.7,4.1v13.9h5.4v-13.9c0-3.2,2.6-5.8,5.8-5.8c1.6,0,3.1,0.7,4.1,1.7s1.7,2.5,1.7,4.1v13.9H325.4
			v-16c0-17.9-14.5-32.4-32.4-32.4h-1.3c-17.2,0-31.3,13.5-32.4,30.4c0,0.7-0.1,1.3-0.1,2v16h-0.1v11.6h0.1v16.8c0,0.7,0,1.3,0.1,2
			c1,15.9,13.4,28.7,29.2,30.3c0.5,0,1,0.1,1.6,0.1c0.5,0,1.1,0,1.6,0h1.3c17.5,0,31.7-13.8,32.4-31.1c0-0.6,0.1-1.3,0.1-1.9
			L325.4,277.3L325.4,277.3z M325.4,277.3v11.6h-10.2v11.3c0,3.2-2.6,5.8-5.8,5.8c-3.2,0-5.8-2.6-5.8-5.8v-11.3h-5.4v11.3
			c0,3.2-2.6,5.8-5.8,5.8c-3.2,0-5.8-2.6-5.8-5.8v-11.3H281v11.4c0,3.2-2.6,5.8-5.8,5.8c-3.2,0-5.8-2.6-5.8-5.8v-11.4h-10.1v-11.6
			h10.1v-13.8c0-3.2,2.6-5.8,5.8-5.8c1.6,0,3,0.7,4.1,1.7s1.7,2.5,1.7,4.1v13.8h5.6v-13.9c0-3.2,2.6-5.8,5.8-5.8
			c1.6,0,3.1,0.7,4.1,1.7s1.7,2.5,1.7,4.1v13.9h5.4v-13.9c0-3.2,2.6-5.8,5.8-5.8c1.6,0,3.1,0.7,4.1,1.7s1.7,2.5,1.7,4.1v13.9H325.4
			v-16c0-17.9-14.5-32.4-32.4-32.4h-1.3c-17.2,0-31.3,13.5-32.4,30.4c0,0.7-0.1,1.3-0.1,2v16h-0.1v11.6h0.1v16.8c0,0.7,0,1.3,0.1,2
			c1,15.9,13.4,28.7,29.2,30.3c0.5,0,1,0.1,1.6,0.1c0.5,0,1.1,0,1.6,0h1.3c17.5,0,31.7-13.8,32.4-31.1c0-0.6,0.1-1.3,0.1-1.9
			L325.4,277.3L325.4,277.3z M325.4,277.3v11.6h-10.2v11.3c0,3.2-2.6,5.8-5.8,5.8c-3.2,0-5.8-2.6-5.8-5.8v-11.3h-5.4v11.3
			c0,3.2-2.6,5.8-5.8,5.8c-3.2,0-5.8-2.6-5.8-5.8v-11.3H281v11.4c0,3.2-2.6,5.8-5.8,5.8c-3.2,0-5.8-2.6-5.8-5.8v-11.4h-10.1v-11.6
			h10.1v-13.8c0-3.2,2.6-5.8,5.8-5.8c1.6,0,3,0.7,4.1,1.7s1.7,2.5,1.7,4.1v13.8h5.6v-13.9c0-3.2,2.6-5.8,5.8-5.8
			c1.6,0,3.1,0.7,4.1,1.7s1.7,2.5,1.7,4.1v13.9h5.4v-13.9c0-3.2,2.6-5.8,5.8-5.8c1.6,0,3.1,0.7,4.1,1.7s1.7,2.5,1.7,4.1v13.9H325.4
			v-16c0-17.9-14.5-32.4-32.4-32.4h-1.3c-17.2,0-31.3,13.5-32.4,30.4c0,0.7-0.1,1.3-0.1,2v16h-0.1v11.6h0.1v16.8c0,0.7,0,1.3,0.1,2
			c1,15.9,13.4,28.7,29.2,30.3c0.5,0,1,0.1,1.6,0.1c0.5,0,1.1,0,1.6,0h1.3c17.5,0,31.7-13.8,32.4-31.1c0-0.6,0.1-1.3,0.1-1.9
			L325.4,277.3L325.4,277.3z M325.4,277.3v11.6h-10.2v11.3c0,3.2-2.6,5.8-5.8,5.8c-3.2,0-5.8-2.6-5.8-5.8v-11.3h-5.4v11.3
			c0,3.2-2.6,5.8-5.8,5.8c-3.2,0-5.8-2.6-5.8-5.8v-11.3H281v11.4c0,3.2-2.6,5.8-5.8,5.8c-3.2,0-5.8-2.6-5.8-5.8v-11.4h-10.1v-11.6
			h10.1v-13.8c0-3.2,2.6-5.8,5.8-5.8c1.6,0,3,0.7,4.1,1.7s1.7,2.5,1.7,4.1v13.8h5.6v-13.9c0-3.2,2.6-5.8,5.8-5.8
			c1.6,0,3.1,0.7,4.1,1.7s1.7,2.5,1.7,4.1v13.9h5.4v-13.9c0-3.2,2.6-5.8,5.8-5.8c1.6,0,3.1,0.7,4.1,1.7s1.7,2.5,1.7,4.1v13.9H325.4
			v-16c0-17.9-14.5-32.4-32.4-32.4h-1.3c-17.2,0-31.3,13.5-32.4,30.4c0,0.7-0.1,1.3-0.1,2v16h-0.1v11.6h0.1v16.8c0,0.7,0,1.3,0.1,2
			c1,15.9,13.4,28.7,29.2,30.3c0.5,0,1,0.1,1.6,0.1c0.5,0,1.1,0,1.6,0h1.3c17.5,0,31.7-13.8,32.4-31.1c0-0.6,0.1-1.3,0.1-1.9
			L325.4,277.3L325.4,277.3z M325.4,277.3v11.6h-10.2v11.3c0,3.2-2.6,5.8-5.8,5.8c-3.2,0-5.8-2.6-5.8-5.8v-11.3h-5.4v11.3
			c0,3.2-2.6,5.8-5.8,5.8c-3.2,0-5.8-2.6-5.8-5.8v-11.3H281v11.4c0,3.2-2.6,5.8-5.8,5.8c-3.2,0-5.8-2.6-5.8-5.8v-11.4h-10.1v-11.6
			h10.1v-13.8c0-3.2,2.6-5.8,5.8-5.8c1.6,0,3,0.7,4.1,1.7s1.7,2.5,1.7,4.1v13.8h5.6v-13.9c0-3.2,2.6-5.8,5.8-5.8
			c1.6,0,3.1,0.7,4.1,1.7s1.7,2.5,1.7,4.1v13.9h5.4v-13.9c0-3.2,2.6-5.8,5.8-5.8c1.6,0,3.1,0.7,4.1,1.7s1.7,2.5,1.7,4.1v13.9H325.4
			v-16c0-17.9-14.5-32.4-32.4-32.4h-1.3c-17.2,0-31.3,13.5-32.4,30.4c0,0.7-0.1,1.3-0.1,2v16h-0.1v11.6h0.1v16.8c0,0.7,0,1.3,0.1,2
			c1,15.9,13.4,28.7,29.2,30.3c0.5,0,1,0.1,1.6,0.1c0.5,0,1.1,0,1.6,0h1.3c17.5,0,31.7-13.8,32.4-31.1c0-0.6,0.1-1.3,0.1-1.9
			L325.4,277.3L325.4,277.3z M325.4,277.3v11.6h-10.2v11.3c0,3.2-2.6,5.8-5.8,5.8c-3.2,0-5.8-2.6-5.8-5.8v-11.3h-5.4v11.3
			c0,3.2-2.6,5.8-5.8,5.8c-3.2,0-5.8-2.6-5.8-5.8v-11.3H281v11.4c0,3.2-2.6,5.8-5.8,5.8c-3.2,0-5.8-2.6-5.8-5.8v-11.4h-10.1v-11.6
			h10.1v-13.8c0-3.2,2.6-5.8,5.8-5.8c1.6,0,3,0.7,4.1,1.7s1.7,2.5,1.7,4.1v13.8h5.6v-13.9c0-3.2,2.6-5.8,5.8-5.8
			c1.6,0,3.1,0.7,4.1,1.7s1.7,2.5,1.7,4.1v13.9h5.4v-13.9c0-3.2,2.6-5.8,5.8-5.8c1.6,0,3.1,0.7,4.1,1.7s1.7,2.5,1.7,4.1v13.9H325.4
			v-16c0-17.9-14.5-32.4-32.4-32.4h-1.3c-17.2,0-31.3,13.5-32.4,30.4c0,0.7-0.1,1.3-0.1,2v16h-0.1v11.6h0.1v16.8c0,0.7,0,1.3,0.1,2
			c1,15.9,13.4,28.7,29.2,30.3c0.5,0,1,0.1,1.6,0.1c0.5,0,1.1,0,1.6,0h1.3c17.5,0,31.7-13.8,32.4-31.1c0-0.6,0.1-1.3,0.1-1.9
			L325.4,277.3L325.4,277.3z M325.4,277.3v11.6h-10.2v11.3c0,3.2-2.6,5.8-5.8,5.8c-3.2,0-5.8-2.6-5.8-5.8v-11.3h-5.4v11.3
			c0,3.2-2.6,5.8-5.8,5.8c-3.2,0-5.8-2.6-5.8-5.8v-11.3H281v11.4c0,3.2-2.6,5.8-5.8,5.8c-3.2,0-5.8-2.6-5.8-5.8v-11.4h-10.1v-11.6
			h10.1v-13.8c0-3.2,2.6-5.8,5.8-5.8c1.6,0,3,0.7,4.1,1.7s1.7,2.5,1.7,4.1v13.8h5.6v-13.9c0-3.2,2.6-5.8,5.8-5.8
			c1.6,0,3.1,0.7,4.1,1.7s1.7,2.5,1.7,4.1v13.9h5.4v-13.9c0-3.2,2.6-5.8,5.8-5.8c1.6,0,3.1,0.7,4.1,1.7s1.7,2.5,1.7,4.1v13.9H325.4
			v-16c0-17.9-14.5-32.4-32.4-32.4h-1.3c-17.2,0-31.3,13.5-32.4,30.4c0,0.7-0.1,1.3-0.1,2v16h-0.1v11.6h0.1v16.8c0,0.7,0,1.3,0.1,2
			c1,15.9,13.4,28.7,29.2,30.3c0.5,0,1,0.1,1.6,0.1c0.5,0,1.1,0,1.6,0h1.3c17.5,0,31.7-13.8,32.4-31.1c0-0.6,0.1-1.3,0.1-1.9
			L325.4,277.3L325.4,277.3z M349.9,243.8c0-0.4-0.1-0.8-0.1-1.3V310c-2.6,29-27,51.7-56.7,51.7c-9.7,0-18.8-2.4-26.8-6.7
			c8,12.6,22.2,21,38.3,21c24,0,43.7-18.7,45.2-42.3c0.1-1,0.1-2,0.1-3v-22c0.1-1.3,0.1-2.6,0.1-3.9v-57.1
			C350,246.4,350,245.1,349.9,243.8z M325.4,277.3v11.6h-10.2v11.3c0,3.2-2.6,5.8-5.8,5.8c-3.2,0-5.8-2.6-5.8-5.8v-11.3h-5.4v11.3
			c0,3.2-2.6,5.8-5.8,5.8c-3.2,0-5.8-2.6-5.8-5.8v-11.3H281v11.4c0,3.2-2.6,5.8-5.8,5.8c-3.2,0-5.8-2.6-5.8-5.8v-11.4h-10.1v-11.6
			h10.1v-13.8c0-3.2,2.6-5.8,5.8-5.8c1.6,0,3,0.7,4.1,1.7s1.7,2.5,1.7,4.1v13.8h5.6v-13.9c0-3.2,2.6-5.8,5.8-5.8
			c1.6,0,3.1,0.7,4.1,1.7s1.7,2.5,1.7,4.1v13.9h5.4v-13.9c0-3.2,2.6-5.8,5.8-5.8c1.6,0,3.1,0.7,4.1,1.7s1.7,2.5,1.7,4.1v13.9H325.4
			v-16c0-17.9-14.5-32.4-32.4-32.4h-1.3c-17.2,0-31.3,13.5-32.4,30.4c0,0.7-0.1,1.3-0.1,2v16h-0.1v11.6h0.1v16.8c0,0.7,0,1.3,0.1,2
			c1,15.9,13.4,28.7,29.2,30.3c0.5,0,1,0.1,1.6,0.1c0.5,0,1.1,0,1.6,0h1.3c17.5,0,31.7-13.8,32.4-31.1c0-0.6,0.1-1.3,0.1-1.9
			L325.4,277.3L325.4,277.3z M325.4,277.3v11.6h-10.2v11.3c0,3.2-2.6,5.8-5.8,5.8c-3.2,0-5.8-2.6-5.8-5.8v-11.3h-5.4v11.3
			c0,3.2-2.6,5.8-5.8,5.8c-3.2,0-5.8-2.6-5.8-5.8v-11.3H281v11.4c0,3.2-2.6,5.8-5.8,5.8c-3.2,0-5.8-2.6-5.8-5.8v-11.4h-10.1v-11.6
			h10.1v-13.8c0-3.2,2.6-5.8,5.8-5.8c1.6,0,3,0.7,4.1,1.7s1.7,2.5,1.7,4.1v13.8h5.6v-13.9c0-3.2,2.6-5.8,5.8-5.8
			c1.6,0,3.1,0.7,4.1,1.7s1.7,2.5,1.7,4.1v13.9h5.4v-13.9c0-3.2,2.6-5.8,5.8-5.8c1.6,0,3.1,0.7,4.1,1.7s1.7,2.5,1.7,4.1v13.9H325.4
			v-16c0-17.9-14.5-32.4-32.4-32.4h-1.3c-17.2,0-31.3,13.5-32.4,30.4c0,0.7-0.1,1.3-0.1,2v16h-0.1v11.6h0.1v16.8c0,0.7,0,1.3,0.1,2
			c1,15.9,13.4,28.7,29.2,30.3c0.5,0,1,0.1,1.6,0.1c0.5,0,1.1,0,1.6,0h1.3c17.5,0,31.7-13.8,32.4-31.1c0-0.6,0.1-1.3,0.1-1.9
			L325.4,277.3L325.4,277.3z M325.4,277.3v11.6h-10.2v11.3c0,3.2-2.6,5.8-5.8,5.8c-3.2,0-5.8-2.6-5.8-5.8v-11.3h-5.4v11.3
			c0,3.2-2.6,5.8-5.8,5.8c-3.2,0-5.8-2.6-5.8-5.8v-11.3H281v11.4c0,3.2-2.6,5.8-5.8,5.8c-3.2,0-5.8-2.6-5.8-5.8v-11.4h-10.1v-11.6
			h10.1v-13.8c0-3.2,2.6-5.8,5.8-5.8c1.6,0,3,0.7,4.1,1.7s1.7,2.5,1.7,4.1v13.8h5.6v-13.9c0-3.2,2.6-5.8,5.8-5.8
			c1.6,0,3.1,0.7,4.1,1.7s1.7,2.5,1.7,4.1v13.9h5.4v-13.9c0-3.2,2.6-5.8,5.8-5.8c1.6,0,3.1,0.7,4.1,1.7s1.7,2.5,1.7,4.1v13.9H325.4
			v-16c0-17.9-14.5-32.4-32.4-32.4h-1.3c-17.2,0-31.3,13.5-32.4,30.4c0,0.7-0.1,1.3-0.1,2v16h-0.1v11.6h0.1v16.8c0,0.7,0,1.3,0.1,2
			c1,15.9,13.4,28.7,29.2,30.3c0.5,0,1,0.1,1.6,0.1c0.5,0,1.1,0,1.6,0h1.3c17.5,0,31.7-13.8,32.4-31.1c0-0.6,0.1-1.3,0.1-1.9
			L325.4,277.3L325.4,277.3z M325.4,277.3v11.6h-10.2v11.3c0,3.2-2.6,5.8-5.8,5.8c-3.2,0-5.8-2.6-5.8-5.8v-11.3h-5.4v11.3
			c0,3.2-2.6,5.8-5.8,5.8c-3.2,0-5.8-2.6-5.8-5.8v-11.3H281v11.4c0,3.2-2.6,5.8-5.8,5.8c-3.2,0-5.8-2.6-5.8-5.8v-11.4h-10.1v-11.6
			h10.1v-13.8c0-3.2,2.6-5.8,5.8-5.8c1.6,0,3,0.7,4.1,1.7s1.7,2.5,1.7,4.1v13.8h5.6v-13.9c0-3.2,2.6-5.8,5.8-5.8
			c1.6,0,3.1,0.7,4.1,1.7s1.7,2.5,1.7,4.1v13.9h5.4v-13.9c0-3.2,2.6-5.8,5.8-5.8c1.6,0,3.1,0.7,4.1,1.7s1.7,2.5,1.7,4.1v13.9H325.4
			v-16c0-17.9-14.5-32.4-32.4-32.4h-1.3c-17.2,0-31.3,13.5-32.4,30.4c0,0.7-0.1,1.3-0.1,2v16h-0.1v11.6h0.1v16.8c0,0.7,0,1.3,0.1,2
			c1,15.9,13.4,28.7,29.2,30.3c0.5,0,1,0.1,1.6,0.1c0.5,0,1.1,0,1.6,0h1.3c17.5,0,31.7-13.8,32.4-31.1c0-0.6,0.1-1.3,0.1-1.9
			L325.4,277.3L325.4,277.3z M325.4,277.3v11.6h-10.2v11.3c0,3.2-2.6,5.8-5.8,5.8c-3.2,0-5.8-2.6-5.8-5.8v-11.3h-5.4v11.3
			c0,3.2-2.6,5.8-5.8,5.8c-3.2,0-5.8-2.6-5.8-5.8v-11.3H281v11.4c0,3.2-2.6,5.8-5.8,5.8c-3.2,0-5.8-2.6-5.8-5.8v-11.4h-10.1v-11.6
			h10.1v-13.8c0-3.2,2.6-5.8,5.8-5.8c1.6,0,3,0.7,4.1,1.7s1.7,2.5,1.7,4.1v13.8h5.6v-13.9c0-3.2,2.6-5.8,5.8-5.8
			c1.6,0,3.1,0.7,4.1,1.7s1.7,2.5,1.7,4.1v13.9h5.4v-13.9c0-3.2,2.6-5.8,5.8-5.8c1.6,0,3.1,0.7,4.1,1.7s1.7,2.5,1.7,4.1v13.9H325.4
			v-16c0-17.9-14.5-32.4-32.4-32.4h-1.3c-17.2,0-31.3,13.5-32.4,30.4c0,0.7-0.1,1.3-0.1,2v16h-0.1v11.6h0.1v16.8c0,0.7,0,1.3,0.1,2
			c1,15.9,13.4,28.7,29.2,30.3c0.5,0,1,0.1,1.6,0.1c0.5,0,1.1,0,1.6,0h1.3c17.5,0,31.7-13.8,32.4-31.1c0-0.6,0.1-1.3,0.1-1.9
			L325.4,277.3L325.4,277.3z M325.4,277.3v11.6h-10.2v11.3c0,3.2-2.6,5.8-5.8,5.8c-3.2,0-5.8-2.6-5.8-5.8v-11.3h-5.4v11.3
			c0,3.2-2.6,5.8-5.8,5.8c-3.2,0-5.8-2.6-5.8-5.8v-11.3H281v11.4c0,3.2-2.6,5.8-5.8,5.8c-3.2,0-5.8-2.6-5.8-5.8v-11.4h-10.1v-11.6
			h10.1v-13.8c0-3.2,2.6-5.8,5.8-5.8c1.6,0,3,0.7,4.1,1.7s1.7,2.5,1.7,4.1v13.8h5.6v-13.9c0-3.2,2.6-5.8,5.8-5.8
			c1.6,0,3.1,0.7,4.1,1.7s1.7,2.5,1.7,4.1v13.9h5.4v-13.9c0-3.2,2.6-5.8,5.8-5.8c1.6,0,3.1,0.7,4.1,1.7s1.7,2.5,1.7,4.1v13.9H325.4
			v-16c0-17.9-14.5-32.4-32.4-32.4h-1.3c-17.2,0-31.3,13.5-32.4,30.4c0,0.7-0.1,1.3-0.1,2v16h-0.1v11.6h0.1v16.8c0,0.7,0,1.3,0.1,2
			c1,15.9,13.4,28.7,29.2,30.3c0.5,0,1,0.1,1.6,0.1c0.5,0,1.1,0,1.6,0h1.3c17.5,0,31.7-13.8,32.4-31.1c0-0.6,0.1-1.3,0.1-1.9
			L325.4,277.3L325.4,277.3z M325.4,277.3v11.6h-10.2v11.3c0,3.2-2.6,5.8-5.8,5.8c-3.2,0-5.8-2.6-5.8-5.8v-11.3h-5.4v11.3
			c0,3.2-2.6,5.8-5.8,5.8c-3.2,0-5.8-2.6-5.8-5.8v-11.3H281v11.4c0,3.2-2.6,5.8-5.8,5.8c-3.2,0-5.8-2.6-5.8-5.8v-11.4h-10.1v-11.6
			h10.1v-13.8c0-3.2,2.6-5.8,5.8-5.8c1.6,0,3,0.7,4.1,1.7s1.7,2.5,1.7,4.1v13.8h5.6v-13.9c0-3.2,2.6-5.8,5.8-5.8
			c1.6,0,3.1,0.7,4.1,1.7s1.7,2.5,1.7,4.1v13.9h5.4v-13.9c0-3.2,2.6-5.8,5.8-5.8c1.6,0,3.1,0.7,4.1,1.7s1.7,2.5,1.7,4.1v13.9H325.4
			v-16c0-17.9-14.5-32.4-32.4-32.4h-1.3c-17.2,0-31.3,13.5-32.4,30.4c0,0.7-0.1,1.3-0.1,2v16h-0.1v11.6h0.1v16.8c0,0.7,0,1.3,0.1,2
			c1,15.9,13.4,28.7,29.2,30.3c0.5,0,1,0.1,1.6,0.1c0.5,0,1.1,0,1.6,0h1.3c17.5,0,31.7-13.8,32.4-31.1c0-0.6,0.1-1.3,0.1-1.9
			L325.4,277.3L325.4,277.3z M325.4,277.3v11.6h-10.2v11.3c0,3.2-2.6,5.8-5.8,5.8c-3.2,0-5.8-2.6-5.8-5.8v-11.3h-5.4v11.3
			c0,3.2-2.6,5.8-5.8,5.8c-3.2,0-5.8-2.6-5.8-5.8v-11.3H281v11.4c0,3.2-2.6,5.8-5.8,5.8c-3.2,0-5.8-2.6-5.8-5.8v-11.4h-10.1v-11.6
			h10.1v-13.8c0-3.2,2.6-5.8,5.8-5.8c1.6,0,3,0.7,4.1,1.7s1.7,2.5,1.7,4.1v13.8h5.6v-13.9c0-3.2,2.6-5.8,5.8-5.8
			c1.6,0,3.1,0.7,4.1,1.7s1.7,2.5,1.7,4.1v13.9h5.4v-13.9c0-3.2,2.6-5.8,5.8-5.8c1.6,0,3.1,0.7,4.1,1.7s1.7,2.5,1.7,4.1v13.9H325.4
			v-16c0-17.9-14.5-32.4-32.4-32.4h-1.3c-17.2,0-31.3,13.5-32.4,30.4c0,0.7-0.1,1.3-0.1,2v16h-0.1v11.6h0.1v16.8c0,0.7,0,1.3,0.1,2
			c1,15.9,13.4,28.7,29.2,30.3c0.5,0,1,0.1,1.6,0.1c0.5,0,1.1,0,1.6,0h1.3c17.5,0,31.7-13.8,32.4-31.1c0-0.6,0.1-1.3,0.1-1.9
			L325.4,277.3L325.4,277.3z M325.4,277.3v11.6h-10.2v11.3c0,3.2-2.6,5.8-5.8,5.8c-3.2,0-5.8-2.6-5.8-5.8v-11.3h-5.4v11.3
			c0,3.2-2.6,5.8-5.8,5.8c-3.2,0-5.8-2.6-5.8-5.8v-11.3H281v11.4c0,3.2-2.6,5.8-5.8,5.8c-3.2,0-5.8-2.6-5.8-5.8v-11.4h-10.1v-11.6
			h10.1v-13.8c0-3.2,2.6-5.8,5.8-5.8c1.6,0,3,0.7,4.1,1.7s1.7,2.5,1.7,4.1v13.8h5.6v-13.9c0-3.2,2.6-5.8,5.8-5.8
			c1.6,0,3.1,0.7,4.1,1.7s1.7,2.5,1.7,4.1v13.9h5.4v-13.9c0-3.2,2.6-5.8,5.8-5.8c1.6,0,3.1,0.7,4.1,1.7s1.7,2.5,1.7,4.1v13.9H325.4
			v-16c0-17.9-14.5-32.4-32.4-32.4h-1.3c-17.2,0-31.3,13.5-32.4,30.4c0,0.7-0.1,1.3-0.1,2v16h-0.1v11.6h0.1v16.8c0,0.7,0,1.3,0.1,2
			c1,15.9,13.4,28.7,29.2,30.3c0.5,0,1,0.1,1.6,0.1c0.5,0,1.1,0,1.6,0h1.3c17.5,0,31.7-13.8,32.4-31.1c0-0.6,0.1-1.3,0.1-1.9
			L325.4,277.3L325.4,277.3z M325.4,277.3v11.6h-10.2v11.3c0,3.2-2.6,5.8-5.8,5.8c-3.2,0-5.8-2.6-5.8-5.8v-11.3h-5.4v11.3
			c0,3.2-2.6,5.8-5.8,5.8c-3.2,0-5.8-2.6-5.8-5.8v-11.3H281v11.4c0,3.2-2.6,5.8-5.8,5.8c-3.2,0-5.8-2.6-5.8-5.8v-11.4h-10.1v-11.6
			h10.1v-13.8c0-3.2,2.6-5.8,5.8-5.8c1.6,0,3,0.7,4.1,1.7s1.7,2.5,1.7,4.1v13.8h5.6v-13.9c0-3.2,2.6-5.8,5.8-5.8
			c1.6,0,3.1,0.7,4.1,1.7s1.7,2.5,1.7,4.1v13.9h5.4v-13.9c0-3.2,2.6-5.8,5.8-5.8c1.6,0,3.1,0.7,4.1,1.7s1.7,2.5,1.7,4.1v13.9H325.4
			v-16c0-17.9-14.5-32.4-32.4-32.4h-1.3c-17.2,0-31.3,13.5-32.4,30.4c0,0.7-0.1,1.3-0.1,2v16h-0.1v11.6h0.1v16.8c0,0.7,0,1.3,0.1,2
			c1,15.9,13.4,28.7,29.2,30.3c0.5,0,1,0.1,1.6,0.1c0.5,0,1.1,0,1.6,0h1.3c17.5,0,31.7-13.8,32.4-31.1c0-0.6,0.1-1.3,0.1-1.9
			L325.4,277.3L325.4,277.3z M325.4,277.3v11.6h-10.2v11.3c0,3.2-2.6,5.8-5.8,5.8c-3.2,0-5.8-2.6-5.8-5.8v-11.3h-5.4v11.3
			c0,3.2-2.6,5.8-5.8,5.8c-3.2,0-5.8-2.6-5.8-5.8v-11.3H281v11.4c0,3.2-2.6,5.8-5.8,5.8c-3.2,0-5.8-2.6-5.8-5.8v-11.4h-10.1v-11.6
			h10.1v-13.8c0-3.2,2.6-5.8,5.8-5.8c1.6,0,3,0.7,4.1,1.7s1.7,2.5,1.7,4.1v13.8h5.6v-13.9c0-3.2,2.6-5.8,5.8-5.8
			c1.6,0,3.1,0.7,4.1,1.7s1.7,2.5,1.7,4.1v13.9h5.4v-13.9c0-3.2,2.6-5.8,5.8-5.8c1.6,0,3.1,0.7,4.1,1.7s1.7,2.5,1.7,4.1v13.9H325.4
			v-16c0-17.9-14.5-32.4-32.4-32.4h-1.3c-17.2,0-31.3,13.5-32.4,30.4c0,0.7-0.1,1.3-0.1,2v16h-0.1v11.6h0.1v16.8c0,0.7,0,1.3,0.1,2
			c1,15.9,13.4,28.7,29.2,30.3c0.5,0,1,0.1,1.6,0.1c0.5,0,1.1,0,1.6,0h1.3c17.5,0,31.7-13.8,32.4-31.1c0-0.6,0.1-1.3,0.1-1.9
			L325.4,277.3L325.4,277.3z M325.4,277.3v11.6h-10.2v11.3c0,3.2-2.6,5.8-5.8,5.8c-3.2,0-5.8-2.6-5.8-5.8v-11.3h-5.4v11.3
			c0,3.2-2.6,5.8-5.8,5.8c-3.2,0-5.8-2.6-5.8-5.8v-11.3H281v11.4c0,3.2-2.6,5.8-5.8,5.8c-3.2,0-5.8-2.6-5.8-5.8v-11.4h-10.1v-11.6
			h10.1v-13.8c0-3.2,2.6-5.8,5.8-5.8c1.6,0,3,0.7,4.1,1.7s1.7,2.5,1.7,4.1v13.8h5.6v-13.9c0-3.2,2.6-5.8,5.8-5.8
			c1.6,0,3.1,0.7,4.1,1.7s1.7,2.5,1.7,4.1v13.9h5.4v-13.9c0-3.2,2.6-5.8,5.8-5.8c1.6,0,3.1,0.7,4.1,1.7s1.7,2.5,1.7,4.1v13.9H325.4
			v-16c0-17.9-14.5-32.4-32.4-32.4h-1.3c-17.2,0-31.3,13.5-32.4,30.4c0,0.7-0.1,1.3-0.1,2v16h-0.1v11.6h0.1v16.8c0,0.7,0,1.3,0.1,2
			c1,15.9,13.4,28.7,29.2,30.3c0.5,0,1,0.1,1.6,0.1c0.5,0,1.1,0,1.6,0h1.3c17.5,0,31.7-13.8,32.4-31.1c0-0.6,0.1-1.3,0.1-1.9
			L325.4,277.3L325.4,277.3z M325.4,277.3v11.6h-10.2v11.3c0,3.2-2.6,5.8-5.8,5.8c-3.2,0-5.8-2.6-5.8-5.8v-11.3h-5.4v11.3
			c0,3.2-2.6,5.8-5.8,5.8c-3.2,0-5.8-2.6-5.8-5.8v-11.3H281v11.4c0,3.2-2.6,5.8-5.8,5.8c-3.2,0-5.8-2.6-5.8-5.8v-11.4h-10.1v-11.6
			h10.1v-13.8c0-3.2,2.6-5.8,5.8-5.8c1.6,0,3,0.7,4.1,1.7s1.7,2.5,1.7,4.1v13.8h5.6v-13.9c0-3.2,2.6-5.8,5.8-5.8
			c1.6,0,3.1,0.7,4.1,1.7s1.7,2.5,1.7,4.1v13.9h5.4v-13.9c0-3.2,2.6-5.8,5.8-5.8c1.6,0,3.1,0.7,4.1,1.7s1.7,2.5,1.7,4.1v13.9H325.4
			v-16c0-17.9-14.5-32.4-32.4-32.4h-1.3c-17.2,0-31.3,13.5-32.4,30.4c0,0.7-0.1,1.3-0.1,2v16h-0.1v11.6h0.1v16.8c0,0.7,0,1.3,0.1,2
			c1,15.9,13.4,28.7,29.2,30.3c0.5,0,1,0.1,1.6,0.1c0.5,0,1.1,0,1.6,0h1.3c17.5,0,31.7-13.8,32.4-31.1c0-0.6,0.1-1.3,0.1-1.9
			L325.4,277.3L325.4,277.3z M349.9,243.8c0-0.4-0.1-0.8-0.1-1.3V310c-2.6,29-27,51.7-56.7,51.7c-9.7,0-18.8-2.4-26.8-6.7
			c8,12.6,22.2,21,38.3,21c24,0,43.7-18.7,45.2-42.3c0.1-1,0.1-2,0.1-3v-22c0.1-1.3,0.1-2.6,0.1-3.9v-57.1
			C350,246.4,350,245.1,349.9,243.8z M325.4,277.3v11.6h-10.2v11.3c0,3.2-2.6,5.8-5.8,5.8c-3.2,0-5.8-2.6-5.8-5.8v-11.3h-5.4v11.3
			c0,3.2-2.6,5.8-5.8,5.8c-3.2,0-5.8-2.6-5.8-5.8v-11.3H281v11.4c0,3.2-2.6,5.8-5.8,5.8c-3.2,0-5.8-2.6-5.8-5.8v-11.4h-10.1v-11.6
			h10.1v-13.8c0-3.2,2.6-5.8,5.8-5.8c1.6,0,3,0.7,4.1,1.7s1.7,2.5,1.7,4.1v13.8h5.6v-13.9c0-3.2,2.6-5.8,5.8-5.8
			c1.6,0,3.1,0.7,4.1,1.7s1.7,2.5,1.7,4.1v13.9h5.4v-13.9c0-3.2,2.6-5.8,5.8-5.8c1.6,0,3.1,0.7,4.1,1.7s1.7,2.5,1.7,4.1v13.9H325.4
			v-16c0-17.9-14.5-32.4-32.4-32.4h-1.3c-17.2,0-31.3,13.5-32.4,30.4c0,0.7-0.1,1.3-0.1,2v16h-0.1v11.6h0.1v16.8c0,0.7,0,1.3,0.1,2
			c1,15.9,13.4,28.7,29.2,30.3c0.5,0,1,0.1,1.6,0.1c0.5,0,1.1,0,1.6,0h1.3c17.5,0,31.7-13.8,32.4-31.1c0-0.6,0.1-1.3,0.1-1.9
			L325.4,277.3L325.4,277.3z M325.4,277.3v11.6h-10.2v11.3c0,3.2-2.6,5.8-5.8,5.8c-3.2,0-5.8-2.6-5.8-5.8v-11.3h-5.4v11.3
			c0,3.2-2.6,5.8-5.8,5.8c-3.2,0-5.8-2.6-5.8-5.8v-11.3H281v11.4c0,3.2-2.6,5.8-5.8,5.8c-3.2,0-5.8-2.6-5.8-5.8v-11.4h-10.1v-11.6
			h10.1v-13.8c0-3.2,2.6-5.8,5.8-5.8c1.6,0,3,0.7,4.1,1.7s1.7,2.5,1.7,4.1v13.8h5.6v-13.9c0-3.2,2.6-5.8,5.8-5.8
			c1.6,0,3.1,0.7,4.1,1.7s1.7,2.5,1.7,4.1v13.9h5.4v-13.9c0-3.2,2.6-5.8,5.8-5.8c1.6,0,3.1,0.7,4.1,1.7s1.7,2.5,1.7,4.1v13.9H325.4
			v-16c0-17.9-14.5-32.4-32.4-32.4h-1.3c-17.2,0-31.3,13.5-32.4,30.4c0,0.7-0.1,1.3-0.1,2v16h-0.1v11.6h0.1v16.8c0,0.7,0,1.3,0.1,2
			c1,15.9,13.4,28.7,29.2,30.3c0.5,0,1,0.1,1.6,0.1c0.5,0,1.1,0,1.6,0h1.3c17.5,0,31.7-13.8,32.4-31.1c0-0.6,0.1-1.3,0.1-1.9
			L325.4,277.3L325.4,277.3z M325.4,277.3v11.6h-10.2v11.3c0,3.2-2.6,5.8-5.8,5.8c-3.2,0-5.8-2.6-5.8-5.8v-11.3h-5.4v11.3
			c0,3.2-2.6,5.8-5.8,5.8c-3.2,0-5.8-2.6-5.8-5.8v-11.3H281v11.4c0,3.2-2.6,5.8-5.8,5.8c-3.2,0-5.8-2.6-5.8-5.8v-11.4h-10.1v-11.6
			h10.1v-13.8c0-3.2,2.6-5.8,5.8-5.8c1.6,0,3,0.7,4.1,1.7s1.7,2.5,1.7,4.1v13.8h5.6v-13.9c0-3.2,2.6-5.8,5.8-5.8
			c1.6,0,3.1,0.7,4.1,1.7s1.7,2.5,1.7,4.1v13.9h5.4v-13.9c0-3.2,2.6-5.8,5.8-5.8c1.6,0,3.1,0.7,4.1,1.7s1.7,2.5,1.7,4.1v13.9H325.4
			v-16c0-17.9-14.5-32.4-32.4-32.4h-1.3c-17.2,0-31.3,13.5-32.4,30.4c0,0.7-0.1,1.3-0.1,2v16h-0.1v11.6h0.1v16.8c0,0.7,0,1.3,0.1,2
			c1,15.9,13.4,28.7,29.2,30.3c0.5,0,1,0.1,1.6,0.1c0.5,0,1.1,0,1.6,0h1.3c17.5,0,31.7-13.8,32.4-31.1c0-0.6,0.1-1.3,0.1-1.9
			L325.4,277.3L325.4,277.3z M325.4,277.3v11.6h-10.2v11.3c0,3.2-2.6,5.8-5.8,5.8c-3.2,0-5.8-2.6-5.8-5.8v-11.3h-5.4v11.3
			c0,3.2-2.6,5.8-5.8,5.8c-3.2,0-5.8-2.6-5.8-5.8v-11.3H281v11.4c0,3.2-2.6,5.8-5.8,5.8c-3.2,0-5.8-2.6-5.8-5.8v-11.4h-10.1v-11.6
			h10.1v-13.8c0-3.2,2.6-5.8,5.8-5.8c1.6,0,3,0.7,4.1,1.7s1.7,2.5,1.7,4.1v13.8h5.6v-13.9c0-3.2,2.6-5.8,5.8-5.8
			c1.6,0,3.1,0.7,4.1,1.7s1.7,2.5,1.7,4.1v13.9h5.4v-13.9c0-3.2,2.6-5.8,5.8-5.8c1.6,0,3.1,0.7,4.1,1.7s1.7,2.5,1.7,4.1v13.9H325.4
			v-16c0-17.9-14.5-32.4-32.4-32.4h-1.3c-17.2,0-31.3,13.5-32.4,30.4c0,0.7-0.1,1.3-0.1,2v16h-0.1v11.6h0.1v16.8c0,0.7,0,1.3,0.1,2
			c1,15.9,13.4,28.7,29.2,30.3c0.5,0,1,0.1,1.6,0.1c0.5,0,1.1,0,1.6,0h1.3c17.5,0,31.7-13.8,32.4-31.1c0-0.6,0.1-1.3,0.1-1.9
			L325.4,277.3L325.4,277.3z M325.4,277.3v11.6h-10.2v11.3c0,3.2-2.6,5.8-5.8,5.8c-3.2,0-5.8-2.6-5.8-5.8v-11.3h-5.4v11.3
			c0,3.2-2.6,5.8-5.8,5.8c-3.2,0-5.8-2.6-5.8-5.8v-11.3H281v11.4c0,3.2-2.6,5.8-5.8,5.8c-3.2,0-5.8-2.6-5.8-5.8v-11.4h-10.1v-11.6
			h10.1v-13.8c0-3.2,2.6-5.8,5.8-5.8c1.6,0,3,0.7,4.1,1.7s1.7,2.5,1.7,4.1v13.8h5.6v-13.9c0-3.2,2.6-5.8,5.8-5.8
			c1.6,0,3.1,0.7,4.1,1.7s1.7,2.5,1.7,4.1v13.9h5.4v-13.9c0-3.2,2.6-5.8,5.8-5.8c1.6,0,3.1,0.7,4.1,1.7s1.7,2.5,1.7,4.1v13.9H325.4
			v-16c0-17.9-14.5-32.4-32.4-32.4h-1.3c-17.2,0-31.3,13.5-32.4,30.4c0,0.7-0.1,1.3-0.1,2v16h-0.1v11.6h0.1v16.8c0,0.7,0,1.3,0.1,2
			c1,15.9,13.4,28.7,29.2,30.3c0.5,0,1,0.1,1.6,0.1c0.5,0,1.1,0,1.6,0h1.3c17.5,0,31.7-13.8,32.4-31.1c0-0.6,0.1-1.3,0.1-1.9
			L325.4,277.3L325.4,277.3z M325.4,277.3v11.6h-10.2v11.3c0,3.2-2.6,5.8-5.8,5.8c-3.2,0-5.8-2.6-5.8-5.8v-11.3h-5.4v11.3
			c0,3.2-2.6,5.8-5.8,5.8c-3.2,0-5.8-2.6-5.8-5.8v-11.3H281v11.4c0,3.2-2.6,5.8-5.8,5.8c-3.2,0-5.8-2.6-5.8-5.8v-11.4h-10.1v-11.6
			h10.1v-13.8c0-3.2,2.6-5.8,5.8-5.8c1.6,0,3,0.7,4.1,1.7s1.7,2.5,1.7,4.1v13.8h5.6v-13.9c0-3.2,2.6-5.8,5.8-5.8
			c1.6,0,3.1,0.7,4.1,1.7s1.7,2.5,1.7,4.1v13.9h5.4v-13.9c0-3.2,2.6-5.8,5.8-5.8c1.6,0,3.1,0.7,4.1,1.7s1.7,2.5,1.7,4.1v13.9H325.4
			v-16c0-17.9-14.5-32.4-32.4-32.4h-1.3c-17.2,0-31.3,13.5-32.4,30.4c0,0.7-0.1,1.3-0.1,2v16h-0.1v11.6h0.1v16.8c0,0.7,0,1.3,0.1,2
			c1,15.9,13.4,28.7,29.2,30.3c0.5,0,1,0.1,1.6,0.1c0.5,0,1.1,0,1.6,0h1.3c17.5,0,31.7-13.8,32.4-31.1c0-0.6,0.1-1.3,0.1-1.9
			L325.4,277.3L325.4,277.3z M325.4,277.3v11.6h-10.2v11.3c0,3.2-2.6,5.8-5.8,5.8c-3.2,0-5.8-2.6-5.8-5.8v-11.3h-5.4v11.3
			c0,3.2-2.6,5.8-5.8,5.8c-3.2,0-5.8-2.6-5.8-5.8v-11.3H281v11.4c0,3.2-2.6,5.8-5.8,5.8c-3.2,0-5.8-2.6-5.8-5.8v-11.4h-10.1v-11.6
			h10.1v-13.8c0-3.2,2.6-5.8,5.8-5.8c1.6,0,3,0.7,4.1,1.7s1.7,2.5,1.7,4.1v13.8h5.6v-13.9c0-3.2,2.6-5.8,5.8-5.8
			c1.6,0,3.1,0.7,4.1,1.7s1.7,2.5,1.7,4.1v13.9h5.4v-13.9c0-3.2,2.6-5.8,5.8-5.8c1.6,0,3.1,0.7,4.1,1.7s1.7,2.5,1.7,4.1v13.9H325.4
			v-16c0-17.9-14.5-32.4-32.4-32.4h-1.3c-17.2,0-31.3,13.5-32.4,30.4c0,0.7-0.1,1.3-0.1,2v16h-0.1v11.6h0.1v16.8c0,0.7,0,1.3,0.1,2
			c1,15.9,13.4,28.7,29.2,30.3c0.5,0,1,0.1,1.6,0.1c0.5,0,1.1,0,1.6,0h1.3c17.5,0,31.7-13.8,32.4-31.1c0-0.6,0.1-1.3,0.1-1.9
			L325.4,277.3L325.4,277.3z M325.4,277.3v11.6h-10.2v11.3c0,3.2-2.6,5.8-5.8,5.8c-3.2,0-5.8-2.6-5.8-5.8v-11.3h-5.4v11.3
			c0,3.2-2.6,5.8-5.8,5.8c-3.2,0-5.8-2.6-5.8-5.8v-11.3H281v11.4c0,3.2-2.6,5.8-5.8,5.8c-3.2,0-5.8-2.6-5.8-5.8v-11.4h-10.1v-11.6
			h10.1v-13.8c0-3.2,2.6-5.8,5.8-5.8c1.6,0,3,0.7,4.1,1.7s1.7,2.5,1.7,4.1v13.8h5.6v-13.9c0-3.2,2.6-5.8,5.8-5.8
			c1.6,0,3.1,0.7,4.1,1.7s1.7,2.5,1.7,4.1v13.9h5.4v-13.9c0-3.2,2.6-5.8,5.8-5.8c1.6,0,3.1,0.7,4.1,1.7s1.7,2.5,1.7,4.1v13.9H325.4
			v-16c0-17.9-14.5-32.4-32.4-32.4h-1.3c-17.2,0-31.3,13.5-32.4,30.4c0,0.7-0.1,1.3-0.1,2v16h-0.1v11.6h0.1v16.8c0,0.7,0,1.3,0.1,2
			c1,15.9,13.4,28.7,29.2,30.3c0.5,0,1,0.1,1.6,0.1c0.5,0,1.1,0,1.6,0h1.3c17.5,0,31.7-13.8,32.4-31.1c0-0.6,0.1-1.3,0.1-1.9
			L325.4,277.3L325.4,277.3z"/>
		<path class="st0" d="M292.4,338.1h0.6c17.5,0,31.7-13.8,32.4-31.1C324.4,324.4,310,338.1,292.4,338.1z M293,228.8h-1.3
			c-17.2,0-31.3,13.5-32.4,30.4v18h10.1v-13.8c0-3.2,2.6-5.8,5.8-5.8c1.6,0,3,0.7,4.1,1.7s1.7,2.5,1.7,4.1v13.8h5.6v-13.9
			c0-3.2,2.6-5.8,5.8-5.8c1.6,0,3.1,0.7,4.1,1.7s1.7,2.5,1.7,4.1v13.9h5.4v-13.9c0-3.2,2.6-5.8,5.8-5.8c1.6,0,3.1,0.7,4.1,1.7
			s1.7,2.5,1.7,4.1v13.9h10.2v-16C325.4,243.4,310.9,228.8,293,228.8z M325.4,277.3v28.4c0,0.4,0,0.9,0,1.3c0-0.6,0.1-1.3,0.1-1.9
			L325.4,277.3L325.4,277.3z M292.4,338.1h0.6c17.5,0,31.7-13.8,32.4-31.1C324.4,324.4,310,338.1,292.4,338.1z M293,228.8h-1.3
			c-17.2,0-31.3,13.5-32.4,30.4v18h10.1v-13.8c0-3.2,2.6-5.8,5.8-5.8c1.6,0,3,0.7,4.1,1.7s1.7,2.5,1.7,4.1v13.8h5.6v-13.9
			c0-3.2,2.6-5.8,5.8-5.8c1.6,0,3.1,0.7,4.1,1.7s1.7,2.5,1.7,4.1v13.9h5.4v-13.9c0-3.2,2.6-5.8,5.8-5.8c1.6,0,3.1,0.7,4.1,1.7
			s1.7,2.5,1.7,4.1v13.9h10.2v-16C325.4,243.4,310.9,228.8,293,228.8z M325.4,277.3v28.4c0,0.4,0,0.9,0,1.3c0-0.6,0.1-1.3,0.1-1.9
			L325.4,277.3L325.4,277.3z M292.4,338.1h0.6c17.5,0,31.7-13.8,32.4-31.1C324.4,324.4,310,338.1,292.4,338.1z M293,228.8h-1.3
			c-17.2,0-31.3,13.5-32.4,30.4v18h10.1v-13.8c0-3.2,2.6-5.8,5.8-5.8c1.6,0,3,0.7,4.1,1.7s1.7,2.5,1.7,4.1v13.8h5.6v-13.9
			c0-3.2,2.6-5.8,5.8-5.8c1.6,0,3.1,0.7,4.1,1.7s1.7,2.5,1.7,4.1v13.9h5.4v-13.9c0-3.2,2.6-5.8,5.8-5.8c1.6,0,3.1,0.7,4.1,1.7
			s1.7,2.5,1.7,4.1v13.9h10.2v-16C325.4,243.4,310.9,228.8,293,228.8z M325.4,277.3v28.4c0,0.4,0,0.9,0,1.3c0-0.6,0.1-1.3,0.1-1.9
			L325.4,277.3L325.4,277.3z M292.4,338.1h0.6c17.5,0,31.7-13.8,32.4-31.1C324.4,324.4,310,338.1,292.4,338.1z M293,228.8h-1.3
			c-17.2,0-31.3,13.5-32.4,30.4v18h10.1v-13.8c0-3.2,2.6-5.8,5.8-5.8c1.6,0,3,0.7,4.1,1.7s1.7,2.5,1.7,4.1v13.8h5.6v-13.9
			c0-3.2,2.6-5.8,5.8-5.8c1.6,0,3.1,0.7,4.1,1.7s1.7,2.5,1.7,4.1v13.9h5.4v-13.9c0-3.2,2.6-5.8,5.8-5.8c1.6,0,3.1,0.7,4.1,1.7
			s1.7,2.5,1.7,4.1v13.9h10.2v-16C325.4,243.4,310.9,228.8,293,228.8z M325.4,277.3v28.4c0,0.4,0,0.9,0,1.3c0-0.6,0.1-1.3,0.1-1.9
			L325.4,277.3L325.4,277.3z M349.8,242.5V310c-2.6,29-27,51.7-56.7,51.7c-9.7,0-18.8-2.4-26.8-6.7c8,12.6,22.2,21,38.3,21
			c24,0,43.7-18.7,45.2-42.3c0.1-1,0.1-2,0.1-3v-87C349.9,243.4,349.8,242.9,349.8,242.5z M293,228.8h-1.3
			c-17.2,0-31.3,13.5-32.4,30.4v18h10.1v-13.8c0-3.2,2.6-5.8,5.8-5.8c1.6,0,3,0.7,4.1,1.7s1.7,2.5,1.7,4.1v13.8h5.6v-13.9
			c0-3.2,2.6-5.8,5.8-5.8c1.6,0,3.1,0.7,4.1,1.7s1.7,2.5,1.7,4.1v13.9h5.4v-13.9c0-3.2,2.6-5.8,5.8-5.8c1.6,0,3.1,0.7,4.1,1.7
			s1.7,2.5,1.7,4.1v13.9h10.2v-16C325.4,243.4,310.9,228.8,293,228.8z M325.4,277.3v28.4c0,0.4,0,0.9,0,1.3c0-0.6,0.1-1.3,0.1-1.9
			L325.4,277.3L325.4,277.3z M292.4,338.1h0.6c17.5,0,31.7-13.8,32.4-31.1C324.4,324.4,310,338.1,292.4,338.1z M293,228.8h-1.3
			c-17.2,0-31.3,13.5-32.4,30.4v18h10.1v-13.8c0-3.2,2.6-5.8,5.8-5.8c1.6,0,3,0.7,4.1,1.7s1.7,2.5,1.7,4.1v13.8h5.6v-13.9
			c0-3.2,2.6-5.8,5.8-5.8c1.6,0,3.1,0.7,4.1,1.7s1.7,2.5,1.7,4.1v13.9h5.4v-13.9c0-3.2,2.6-5.8,5.8-5.8c1.6,0,3.1,0.7,4.1,1.7
			s1.7,2.5,1.7,4.1v13.9h10.2v-16C325.4,243.4,310.9,228.8,293,228.8z M325.4,277.3v28.4c0,0.4,0,0.9,0,1.3c0-0.6,0.1-1.3,0.1-1.9
			L325.4,277.3L325.4,277.3z M292.4,338.1h0.6c17.5,0,31.7-13.8,32.4-31.1C324.4,324.4,310,338.1,292.4,338.1z M293,228.8h-1.3
			c-17.2,0-31.3,13.5-32.4,30.4v18h10.1v-13.8c0-3.2,2.6-5.8,5.8-5.8c1.6,0,3,0.7,4.1,1.7s1.7,2.5,1.7,4.1v13.8h5.6v-13.9
			c0-3.2,2.6-5.8,5.8-5.8c1.6,0,3.1,0.7,4.1,1.7s1.7,2.5,1.7,4.1v13.9h5.4v-13.9c0-3.2,2.6-5.8,5.8-5.8c1.6,0,3.1,0.7,4.1,1.7
			s1.7,2.5,1.7,4.1v13.9h10.2v-16C325.4,243.4,310.9,228.8,293,228.8z M325.4,277.3v28.4c0,0.4,0,0.9,0,1.3c0-0.6,0.1-1.3,0.1-1.9
			L325.4,277.3L325.4,277.3z M292.4,338.1h0.6c17.5,0,31.7-13.8,32.4-31.1C324.4,324.4,310,338.1,292.4,338.1z M293,228.8h-1.3
			c-17.2,0-31.3,13.5-32.4,30.4v18h10.1v-13.8c0-3.2,2.6-5.8,5.8-5.8c1.6,0,3,0.7,4.1,1.7s1.7,2.5,1.7,4.1v13.8h5.6v-13.9
			c0-3.2,2.6-5.8,5.8-5.8c1.6,0,3.1,0.7,4.1,1.7s1.7,2.5,1.7,4.1v13.9h5.4v-13.9c0-3.2,2.6-5.8,5.8-5.8c1.6,0,3.1,0.7,4.1,1.7
			s1.7,2.5,1.7,4.1v13.9h10.2v-16C325.4,243.4,310.9,228.8,293,228.8z M325.4,277.3v28.4c0,0.4,0,0.9,0,1.3c0-0.6,0.1-1.3,0.1-1.9
			L325.4,277.3L325.4,277.3z M292.4,338.1h0.6c17.5,0,31.7-13.8,32.4-31.1C324.4,324.4,310,338.1,292.4,338.1z M293,228.8h-1.3
			c-17.2,0-31.3,13.5-32.4,30.4v18h10.1v-13.8c0-3.2,2.6-5.8,5.8-5.8c1.6,0,3,0.7,4.1,1.7s1.7,2.5,1.7,4.1v13.8h5.6v-13.9
			c0-3.2,2.6-5.8,5.8-5.8c1.6,0,3.1,0.7,4.1,1.7s1.7,2.5,1.7,4.1v13.9h5.4v-13.9c0-3.2,2.6-5.8,5.8-5.8c1.6,0,3.1,0.7,4.1,1.7
			s1.7,2.5,1.7,4.1v13.9h10.2v-16C325.4,243.4,310.9,228.8,293,228.8z M325.4,277.3v28.4c0,0.4,0,0.9,0,1.3c0-0.6,0.1-1.3,0.1-1.9
			L325.4,277.3L325.4,277.3z M292.4,338.1h0.6c17.5,0,31.7-13.8,32.4-31.1C324.4,324.4,310,338.1,292.4,338.1z M293,228.8h-1.3
			c-17.2,0-31.3,13.5-32.4,30.4v18h10.1v-13.8c0-3.2,2.6-5.8,5.8-5.8c1.6,0,3,0.7,4.1,1.7s1.7,2.5,1.7,4.1v13.8h5.6v-13.9
			c0-3.2,2.6-5.8,5.8-5.8c1.6,0,3.1,0.7,4.1,1.7s1.7,2.5,1.7,4.1v13.9h5.4v-13.9c0-3.2,2.6-5.8,5.8-5.8c1.6,0,3.1,0.7,4.1,1.7
			s1.7,2.5,1.7,4.1v13.9h10.2v-16C325.4,243.4,310.9,228.8,293,228.8z M325.4,277.3v11.6h-10.2v11.3c0,3.2-2.6,5.8-5.8,5.8
			c-3.2,0-5.8-2.6-5.8-5.8v-11.3h-5.4v11.3c0,3.2-2.6,5.8-5.8,5.8c-3.2,0-5.8-2.6-5.8-5.8v-11.3H281v11.4c0,3.2-2.6,5.8-5.8,5.8
			c-3.2,0-5.8-2.6-5.8-5.8v-11.4h-10.1v18.8c1,15.9,13.4,28.7,29.2,30.3c0.5,0,1,0.1,1.6,0.1c0.5,0,1.1,0,1.6,0h1.3
			c17.5,0,31.7-13.8,32.4-31.1c0-0.6,0.1-1.3,0.1-1.9L325.4,277.3L325.4,277.3z"/>
		<path class="st0" d="M325.4,277.3v11.6h-10.2v11.3c0,3.2-2.6,5.8-5.8,5.8c-3.2,0-5.8-2.6-5.8-5.8v-11.3h-5.4v11.3
			c0,3.2-2.6,5.8-5.8,5.8c-3.2,0-5.8-2.6-5.8-5.8v-11.3H281v11.4c0,3.2-2.6,5.8-5.8,5.8c-3.2,0-5.8-2.6-5.8-5.8v-11.4h-10.1v-11.6
			h10.1v-13.8c0-3.2,2.6-5.8,5.8-5.8c1.6,0,3,0.7,4.1,1.7s1.7,2.5,1.7,4.1v13.8h5.6v-13.9c0-3.2,2.6-5.8,5.8-5.8
			c1.6,0,3.1,0.7,4.1,1.7s1.7,2.5,1.7,4.1v13.9h5.4v-13.9c0-3.2,2.6-5.8,5.8-5.8c1.6,0,3.1,0.7,4.1,1.7s1.7,2.5,1.7,4.1v13.9H325.4
			v-16c0-17.9-14.5-32.4-32.4-32.4h-1.3c-17.2,0-31.3,13.5-32.4,30.4c0,0.7-0.1,1.3-0.1,2v16l0,0v11.6l0,0v16.8c0,0.7,0,1.3,0.1,2
			c1,15.9,13.4,28.7,29.2,30.3c0.5,0,1,0.1,1.6,0.1c0.5,0,1.1,0,1.6,0h1.3c17.5,0,31.7-13.8,32.4-31.1c0-0.6,0.1-1.3,0.1-1.9
			L325.4,277.3L325.4,277.3z M293.1,361.7c-9.7,0-18.8-2.4-26.8-6.7c8,12.6,22.2,21,38.3,21c24,0,43.7-18.7,45.2-42.3v-23.8
			C347.2,339,322.8,361.7,293.1,361.7z"/>
		<path class="st0" d="M325.4,277.3v11.6h-10.2v11.3c0,3.2-2.6,5.8-5.8,5.8c-3.2,0-5.8-2.6-5.8-5.8v-11.3h-5.4v11.3
			c0,3.2-2.6,5.8-5.8,5.8c-3.2,0-5.8-2.6-5.8-5.8v-11.3H281v11.4c0,3.2-2.6,5.8-5.8,5.8c-3.2,0-5.8-2.6-5.8-5.8v-11.4h-10.1v-11.6
			h10.1v-13.8c0-3.2,2.6-5.8,5.8-5.8c1.6,0,3,0.7,4.1,1.7s1.7,2.5,1.7,4.1v13.8h5.6v-13.9c0-3.2,2.6-5.8,5.8-5.8
			c1.6,0,3.1,0.7,4.1,1.7s1.7,2.5,1.7,4.1v13.9h5.4v-13.9c0-3.2,2.6-5.8,5.8-5.8c1.6,0,3.1,0.7,4.1,1.7s1.7,2.5,1.7,4.1v13.9H325.4
			v-16c0-17.9-14.5-32.4-32.4-32.4h-1.3c-17.2,0-31.3,13.5-32.4,30.4c0,0.7-0.1,1.3-0.1,2v16h-0.1v11.6h0.1v16.8c0,0.7,0,1.3,0.1,2
			c1,15.9,13.4,28.7,29.2,30.3c0.5,0,1,0.1,1.6,0.1c0.5,0,1.1,0,1.6,0h1.3c17.5,0,31.7-13.8,32.4-31.1c0-0.6,0.1-1.3,0.1-1.9
			L325.4,277.3L325.4,277.3z M349.9,257.8c0-0.4-0.1-0.8-0.1-1.3V310c0-0.4,0.1-0.8,0.1-1.3c0.1-1.3,0.1-2.6,0.1-3.9v-43.1
			C350,260.4,350,259.1,349.9,257.8z M325.4,277.3v11.6h-10.2v11.3c0,3.2-2.6,5.8-5.8,5.8c-3.2,0-5.8-2.6-5.8-5.8v-11.3h-5.4v11.3
			c0,3.2-2.6,5.8-5.8,5.8c-3.2,0-5.8-2.6-5.8-5.8v-11.3H281v11.4c0,3.2-2.6,5.8-5.8,5.8c-3.2,0-5.8-2.6-5.8-5.8v-11.4h-10.1v-11.6
			h10.1v-13.8c0-3.2,2.6-5.8,5.8-5.8c1.6,0,3,0.7,4.1,1.7s1.7,2.5,1.7,4.1v13.8h5.6v-13.9c0-3.2,2.6-5.8,5.8-5.8
			c1.6,0,3.1,0.7,4.1,1.7s1.7,2.5,1.7,4.1v13.9h5.4v-13.9c0-3.2,2.6-5.8,5.8-5.8c1.6,0,3.1,0.7,4.1,1.7s1.7,2.5,1.7,4.1v13.9H325.4
			v-16c0-17.9-14.5-32.4-32.4-32.4h-1.3c-17.2,0-31.3,13.5-32.4,30.4c0,0.7-0.1,1.3-0.1,2v16h-0.1v11.6h0.1v16.8c0,0.7,0,1.3,0.1,2
			c1,15.9,13.4,28.7,29.2,30.3c0.5,0,1,0.1,1.6,0.1c0.5,0,1.1,0,1.6,0h1.3c17.5,0,31.7-13.8,32.4-31.1c0-0.6,0.1-1.3,0.1-1.9
			L325.4,277.3L325.4,277.3z M349.9,243.8c0-0.4-0.1-0.8-0.1-1.3V296c0-0.4,0.1-0.8,0.1-1.3c0.1-1.3,0.1-2.6,0.1-3.9v-43.1
			C350,246.4,350,245.1,349.9,243.8z"/>
		<path class="st0" d="M325.4,261.3v16h-10.2v-13.9c0-1.6-0.7-3.1-1.7-4.1s-2.5-1.7-4.1-1.7c-3.2,0-5.8,2.6-5.8,5.8v13.9h-5.4v-13.9
			c0-1.6-0.7-3.1-1.7-4.1s-2.5-1.7-4.1-1.7c-3.2,0-5.8,2.6-5.8,5.8v13.9H281v-13.8c0-1.6-0.7-3.1-1.7-4.1s-2.5-1.7-4.1-1.7
			c-3.2,0-5.8,2.6-5.8,5.8v13.8h-10.1v-18c1-17,15.1-30.4,32.4-30.4h1.3C310.9,228.8,325.4,243.4,325.4,261.3z"/>
		<path class="st0" d="M325.4,277.3v27.8c0,0.6,0,1.3-0.1,1.9c-1,17.4-15.4,31.1-33,31.1h-0.7c-17.9-0.4-32.4-15.1-32.4-33.1v-16.2
			h10.1v11.4c0,3.2,2.6,5.8,5.8,5.8c3.2,0,5.8-2.6,5.8-5.8v-11.4h5.6v11.3c0,3.2,2.6,5.8,5.8,5.8c3.2,0,5.8-2.6,5.8-5.8v-11.3h5.4
			v11.3c0,3.2,2.6,5.8,5.8,5.8c3.2,0,5.8-2.6,5.8-5.8v-11.3h10.2L325.4,277.3L325.4,277.3z"/>
		<path class="st0" d="M325.4,277.3v-16c0-17.9-14.5-32.4-32.4-32.4h-1.3c-17.2,0-31.3,13.5-32.4,30.4c0,0.7-0.1,1.3-0.1,2v44.4
			c0,0.7,0,1.3,0.1,2c1,15.9,13.4,28.7,29.2,30.3c0.5,0,1,0.1,1.6,0.1c0.5,0,1.1,0,1.6,0h1.3c17.5,0,31.7-13.8,32.4-31.1
			c0-0.4,0-0.9,0-1.3v-16.9h-10.2v11.3c0,3.2-2.6,5.8-5.8,5.8c-3.2,0-5.8-2.6-5.8-5.8v-11.3h-5.4v11.3c0,3.2-2.6,5.8-5.8,5.8
			c-3.2,0-5.8-2.6-5.8-5.8v-11.3H281v11.4c0,3.2-2.6,5.8-5.8,5.8c-3.2,0-5.8-2.6-5.8-5.8v-11.4h-10.1v-11.6h10.1v-13.8
			c0-3.2,2.6-5.8,5.8-5.8c1.6,0,3,0.7,4.1,1.7s1.7,2.5,1.7,4.1v13.8h5.6v-13.9c0-3.2,2.6-5.8,5.8-5.8c1.6,0,3.1,0.7,4.1,1.7
			s1.7,2.5,1.7,4.1v13.9h5.4v-13.9c0-3.2,2.6-5.8,5.8-5.8c1.6,0,3.1,0.7,4.1,1.7s1.7,2.5,1.7,4.1v13.9h10.2V277.3z"/>
		<rect x="259.2" y="277.3" class="st0" width="0.1" height="11.6"/>
		<rect x="325.4" y="277.3" class="st0" width="0" height="11.6"/>
		<path class="st0" d="M325.4,277.3v27.8c0,0.6,0,1.3-0.1,1.9c-0.7,17.3-14.9,31.1-32.4,31.1h-1.3c-0.5,0-1.1,0-1.6,0
			s-1.1-0.1-1.6-0.1c-15.8-1.5-28.2-14.3-29.2-30.3c0-0.7-0.1-1.3-0.1-2v-16.9H259v-11.6h0.1v-16c0-0.7,0-1.3,0.1-2
			c1-17,15.1-30.4,32.4-30.4h1.3c17.9,0,32.4,14.5,32.4,32.4L325.4,277.3h-10.2v-13.9c0-1.6-0.7-3.1-1.7-4.1s-2.5-1.7-4.1-1.7
			c-3.2,0-5.8,2.6-5.8,5.8v13.9h-5.4v-13.9c0-1.6-0.7-3.1-1.7-4.1s-2.5-1.7-4.1-1.7c-3.2,0-5.8,2.6-5.8,5.8v13.9H281v-13.8
			c0-1.6-0.7-3.1-1.7-4.1s-2.5-1.7-4.1-1.7c-3.2,0-5.8,2.6-5.8,5.8v13.8h-10.1v11.6h10.1v11.4c0,3.2,2.6,5.8,5.8,5.8
			c3.2,0,5.8-2.6,5.8-5.8v-11.4h5.6v11.3c0,3.2,2.6,5.8,5.8,5.8c3.2,0,5.8-2.6,5.8-5.8v-11.3h5.4v11.3c0,3.2,2.6,5.8,5.8,5.8
			c3.2,0,5.8-2.6,5.8-5.8v-11.3h10.2V277.3L325.4,277.3z"/>
		<path class="st0" d="M350,247.7v57.1c0,1.3,0,2.6-0.1,3.9v22c0,1,0,2-0.1,3c-1.5,23.6-21.2,42.3-45.2,42.3
			c-16.1,0-30.2-8.4-38.3-21c8,4.3,17.1,6.7,26.8,6.7c29.7,0,54-22.7,56.7-51.7v-53.5c-1.2-13.6-7.3-25.9-16.4-35
			c-10.3-10.3-24.5-16.7-40.2-16.7c-0.6,0-1.3,0-1.9,0h-0.1c-0.1,0-0.3,0-0.4,0h-0.2c-0.1,0-0.2,0-0.3,0h-0.1
			c-9.4,0.5-18.1,3.2-25.8,7.7c5.3-10,14.2-17.8,25.1-21.6c4.7-1.7,9.8-2.6,15-2.6c12.5,0,23.8,5.1,32,13.3
			c8.2,8.2,13.3,19.5,13.3,32v8.8c0,0.4,0.1,0.9,0.1,1.3C350,245.1,350,246.4,350,247.7z"/>
		<path class="st1" d="M373.6,325.4v14c0,51.5-41.7,93.2-93.2,93.2s-93.2-41.7-93.2-93.2v-14c0,51.5,41.7,93.2,93.2,93.2
			c38.2,0,71.1-23,85.4-56C370.8,351.2,373.6,338.6,373.6,325.4z"/>
		<path class="st2" d="M373.6,234.2V317c0,28-16.7,52-40.7,62.8c-8.6,3.8-18,6-28,6c-10.6,0-20.7-2.4-29.7-6.7
			c-23.1-11.1-39-34.7-39-62V305h0.1c0,18.9,9.2,35.7,23.5,46c2.1,1.5,4.3,2.9,6.7,4.2c8,12.6,22.2,21,38.3,21
			c24,0,43.7-18.7,45.2-42.3c0.1-1,0.1-2,0.1-3v-22c0.1-1.3,0.1-2.6,0.1-3.9v-57.3c0-1.3,0-2.6-0.1-3.9v-23.7
			c0-12.5-5.1-23.8-13.3-32c-8.2-8.2-19.5-13.3-32-13.3c-0.5,0-1.1,0-1.6,0l-0.3-9.3c0.7,0,1.5,0,2.2,0c19,0,36.2,7.7,48.6,20.1
			C365.9,198,373.6,215.2,373.6,234.2z"/>
		<path class="st1" d="M325.4,247.4v29.8l0,0v-16c0-17.9-14.5-32.4-32.4-32.4h-1.3c-17.2,0-31.3,13.5-32.4,30.4v-11.8
			c0-17.7,13.9-32.1,31.4-33c0.1,0,0.3,0,0.4,0s0.2,0,0.4,0h0.1c0.3,0,0.6,0,0.8,0c9.1,0,17.4,3.7,23.4,9.7
			C321.7,230,325.4,238.3,325.4,247.4z"/>
		<path class="st1" d="M325.4,277.3v11.6h-10.2v11.3c0,3.2-2.6,5.8-5.8,5.8c-3.2,0-5.8-2.6-5.8-5.8v-11.3h-5.4v11.3
			c0,3.2-2.6,5.8-5.8,5.8c-3.2,0-5.8-2.6-5.8-5.8v-11.3H281v11.4c0,3.2-2.6,5.8-5.8,5.8c-3.2,0-5.8-2.6-5.8-5.8v-11.4h-10.1v-11.6
			h10.1v-13.8c0-3.2,2.6-5.8,5.8-5.8c1.6,0,3,0.7,4.1,1.7s1.7,2.5,1.7,4.1v13.8h5.6v-13.9c0-3.2,2.6-5.8,5.8-5.8
			c1.6,0,3.1,0.7,4.1,1.7s1.7,2.5,1.7,4.1v13.9h5.4v-13.9c0-3.2,2.6-5.8,5.8-5.8c1.6,0,3.1,0.7,4.1,1.7s1.7,2.5,1.7,4.1v13.9H325.4
			L325.4,277.3z"/>
		<path class="st0" d="M325.4,277.3v27.8c0,0.6,0,1.3-0.1,1.9c-0.7,17.3-14.9,31.1-32.4,31.1h-1.3c-0.5,0-1.1,0-1.6,0
			s-1.1-0.1-1.6-0.1c-15.8-1.5-28.2-14.3-29.2-30.3c0-0.7-0.1-1.3-0.1-2v-16.9H259v-11.6h0.1v-16c0-0.7,0-1.3,0.1-2
			c1-17,15.1-30.4,32.4-30.4h1.3c17.9,0,32.4,14.5,32.4,32.4L325.4,277.3h-10.2v-13.9c0-1.6-0.7-3.1-1.7-4.1s-2.5-1.7-4.1-1.7
			c-3.2,0-5.8,2.6-5.8,5.8v13.9h-5.4v-13.9c0-1.6-0.7-3.1-1.7-4.1s-2.5-1.7-4.1-1.7c-3.2,0-5.8,2.6-5.8,5.8v13.9H281v-13.8
			c0-1.6-0.7-3.1-1.7-4.1s-2.5-1.7-4.1-1.7c-3.2,0-5.8,2.6-5.8,5.8v13.8h-10.1v11.6h10.1v11.4c0,3.2,2.6,5.8,5.8,5.8
			c3.2,0,5.8-2.6,5.8-5.8v-11.4h5.6v11.3c0,3.2,2.6,5.8,5.8,5.8c3.2,0,5.8-2.6,5.8-5.8v-11.3h5.4v11.3c0,3.2,2.6,5.8,5.8,5.8
			c3.2,0,5.8-2.6,5.8-5.8v-11.3h10.2V277.3L325.4,277.3z"/>
		<path class="st2" d="M303,174.8c-16.4,0.6-30.7,9.9-38.1,23.5l0,0c-2.9,5.3-4.8,11.2-5.4,17.5c-9.1,6.7-16.2,16-20,26.8l-3.3-2.9
			v-5.5c0-2.7,0.2-5.4,0.5-8c3.9-33.5,31.8-59.6,66-60.7L303,174.8z"/>
		<path class="st1" d="M236.6,226.2c-0.3,2.6-0.5,5.3-0.5,8v5.5l-0.1-0.1c-3.6-3-9.2-7.1-16-10.2c-6.5-3-12.4-4.5-16.9-5.4h-15.9
			v-13.6h16.3c4.4,0.7,10.1,2.1,16.4,4.9c6.2,2.8,11.5,6.6,15.2,9.6C235.6,225.4,236.1,225.8,236.6,226.2z"/>
		<path class="st1" d="M349.9,220.1v23.7c0-0.4-0.1-0.8-0.1-1.3v-8.8c0-12.5-5.1-23.8-13.3-32c-8.2-8.2-19.5-13.3-32-13.3
			c-5.3,0-10.3,0.9-15,2.6c-10.8,3.8-19.8,11.6-25.1,21.6c-1.7,1-3.3,2.1-4.9,3.2c0.6-6.3,2.5-12.2,5.4-17.5l0,0
			c7.5-13.6,21.7-22.9,38.1-23.5c0.5,0,1.1,0,1.6,0c12.5,0,23.8,5.1,32,13.3S349.9,207.6,349.9,220.1z"/>
		<path class="st1" d="M349.8,296v14c-2.6,29-27,51.7-56.7,51.7c-9.7,0-18.8-2.4-26.8-6.7c-2.3-1.2-4.5-2.6-6.7-4.2
			c-14.2-10.4-23.5-27.1-23.5-46v-14c0,18.7,9,35.3,23,45.7c0.1,0.1,0.3,0.2,0.5,0.3c0,0,0,0,0.1,0c2.1,1.5,4.3,2.9,6.6,4.1
			c6.5,3.5,13.7,5.7,21.4,6.4c0.6,0.1,1.2,0.1,1.8,0.1c0,0,0.1,0,0.2,0l0,0c1.1,0.1,2.3,0.1,3.4,0.1
			C322.8,347.7,347.2,325,349.8,296z"/>
		<path class="st0" d="M350,247.7v57.1c0,1.3,0,2.6-0.1,3.9v22c0,1,0,2-0.1,3c-1.5,23.6-21.2,42.3-45.2,42.3
			c-16.1,0-30.2-8.4-38.3-21c8,4.3,17.1,6.7,26.8,6.7c29.7,0,54-22.7,56.7-51.7v-53.5c-1.2-13.6-7.3-25.9-16.4-35
			c-10.3-10.3-24.5-16.7-40.2-16.7c-0.6,0-1.3,0-1.9,0h-0.1c-0.1,0-0.3,0-0.4,0h-0.2c-0.1,0-0.2,0-0.3,0h-0.1
			c-9.4,0.5-18.1,3.2-25.8,7.7c5.3-10,14.2-17.8,25.1-21.6c4.7-1.7,9.8-2.6,15-2.6c12.5,0,23.8,5.1,32,13.3
			c8.2,8.2,13.3,19.5,13.3,32v8.8c0,0.4,0.1,0.9,0.1,1.3C350,245.1,350,246.4,350,247.7z"/>
		<path class="st3" d="M365.8,362.6c-14.4,32.9-47.2,56-85.4,56c-51.5,0-93.2-41.7-93.2-93.2v-62.8h11.6c4.1,0.6,13.6,2.5,22.2,10.1
			c12.9,11.3,14.8,26.5,15,29.8h0.1V331c0,37.9,30.8,68.7,68.7,68.7C331.4,399.6,354.4,384.6,365.8,362.6z"/>
		<path class="st1" d="M236.1,283.7v18.7H236c-0.2-3.3-2-18.4-15-29.8c-8.7-7.6-18.1-9.5-22.2-10.1h-11.6v-14.3h12.7
			c3.6,0.5,15.2,2.6,24.9,12.7C233.4,269.9,235.5,279.9,236.1,283.7L236.1,283.7z"/>
		<path class="st1" d="M373.6,316.9v8.5c0,13.2-2.8,25.8-7.7,37.2c-11.5,22-34.5,37-61,37c-38,0-68.7-30.8-68.7-68.7v-14
			c0,27.3,15.9,50.9,39,62c9,4.3,19,6.7,29.7,6.7c10,0,19.5-2.1,28-6C356.9,369,373.6,344.9,373.6,316.9z"/>
		<path class="st3" d="M328.4,64l-38.6,33.8l-2.2,1.9c-3.1,3.3-7.5,7.9-11.2,11.7c-4.3,4.5-8.7,9.1-12.4,13.3
			c-5,5.4-11.5,13.8-17,22.7c-5.6,9.2-9.4,17.8-11.9,24.9v52.6l0,0c-3.7-3-9-6.8-15.2-9.6c-6.3-2.8-12-4.2-16.4-4.9h-16.3v-20
			c0-2.7,0.1-5.3,0.3-7.9h-0.1c0-2-0.4-7-0.8-10.1c-0.2-1.5-0.8-4.9-2.3-9.1c-1.1-3.2-3.2-7.9-9.8-17.6c-2.7-4-6.4-9.1-11.1-14.9
			c-8.7-9.3-17.3-18.7-25.9-28.1l0.1-0.1L93.6,64c-6.1-5.3-2.3-15.3,5.8-15.3h223.2C330.7,48.7,334.4,58.7,328.4,64z"/>
		<path class="st4" d="M131.1,224.1l-0.2,24.1l-16.4,7.1h-14c-3,0-5.5-2.4-5.5-5.5v-14c0,3,2.4,5.5,5.5,5.5h14.1l16.4-7.1
			L131.1,224.1L131.1,224.1z"/>
		<path class="st5" d="M131,224.1l-0.1,10.1l-16.4,7.1h-14c-3,0-5.5-2.4-5.5-5.5v-12c0-3.9,3.2-7.1,7.1-7.1h12.4L131,224.1z"/>
		<path class="st0" d="M187.2,210.5L187.2,210.5"/>
		<path class="st0" d="M236.6,226.2L236.6,226.2"/>
		<path class="st0" d="M287.8,99.5c-0.1,0.1-0.1,0.2-0.2,0.2"/>
		<path class="st3" d="M349.8,256.5V296c-2.6,29-27,51.7-56.7,51.7c-1.1,0-2.3,0-3.4-0.1l0.4-9.5c0.5,0,1.1,0,1.6,0h1.3
			c17.5,0,31.7-13.8,32.4-31.1c0-0.6,0.1-1.3,0.1-1.9v-57.6c0-9.1-3.7-17.4-9.7-23.4s-14.2-9.7-23.4-9.7c-0.3,0-0.6,0-0.8,0h-0.1
			l-0.2-9.5c0.6,0,1.2,0,1.9,0c15.7,0,30,6.4,40.2,16.7C342.5,230.6,348.6,242.9,349.8,256.5z"/>
		<path class="st3" d="M291.4,214.4c-0.1,0-0.2,0-0.4,0c-0.1,0-0.3,0-0.4,0c-17.5,0.9-31.4,15.3-31.4,33v11.8c0,0.7-0.1,1.3-0.1,2
			v16H259v11.6h0.1v16.9c0,0.7,0,1.3,0.1,2c1,15.9,13.4,28.7,29.2,30.3c0.5,0,1,0.1,1.6,0.1l-0.4,9.5l0,0c-0.1,0-0.1,0-0.2,0
			c-0.6,0-1.2-0.1-1.8-0.1c-7.7-0.7-14.9-3-21.4-6.4c-2.3-1.2-4.5-2.6-6.6-4.1c0,0,0,0-0.1,0c-0.1-0.1-0.3-0.2-0.5-0.3
			c-14-10.4-23-27-23-45.7v14h-0.1v-21.3l0,0c-0.6-3.8-2.8-13.8-11.4-22.8c-9.7-10.1-21.3-12.2-24.9-12.7h-69l0.2-24.1h-0.1h72.2
			c4.5,0.8,10.4,2.4,16.9,5.4c6.8,3.1,12.4,7.2,16,10.2l0.1,0.1l3.3,2.9c3.8-10.8,10.9-20.2,20-26.8c1.6-1.2,3.2-2.2,4.9-3.2
			c7.6-4.5,16.4-7.2,25.8-7.7h0.1c0.1,0,0.2,0,0.3,0h0.1c0.1,0,0.3,0,0.4,0h0.1L291.4,214.4z"/>
	</g>
</g>
<g id="Trombone_00000035518335570399539890000007299652557767750784_">
	<g id="Trombone">
		<path class="st0" d="M902.7,577.6l0.8,0.8c3,3,3,7.7,0,10.7L750.8,741.8l-11.5-11.5l152.6-152.7
			C894.9,574.7,899.7,574.7,902.7,577.6z"/>
		<path class="st0" d="M684.1,760.3"/>
		<g>
			<path class="st6" d="M738.9,777.9c3.2,3.5,3.1,8.9-0.3,12.3c-3.5,3.5-9.1,3.5-12.5,0l-11.4-11.4c-3.5-3.5-3.5-9.1,0-12.5
				c1.7-1.7,4-2.6,6.3-2.6c2,0,4,0.7,5.6,2c0.1,0.1,0.2,0.2,0.4,0.3l0,0c0.2,0.2,0.5,0.4,0.7,0.6L738.9,777.9L738.9,777.9z"/>
			<path class="st0" d="M738.6,777.6c0.1,0.1,0.2,0.2,0.3,0.3"/>
			<path class="st0" d="M738.6,777.6"/>
			<path class="st0" d="M727.2,766.2c0,0-0.2-0.1-0.3-0.3"/>
			
				<rect x="730" y="734.3" transform="matrix(0.7071 -0.7071 0.7071 0.7071 -308.6039 739.8831)" class="st7" width="17.7" height="16.3"/>
			<path class="st8" d="M915.3,565.3c5,5,7.5,11.6,7.5,18.1c0,6.6-2.5,13.1-7.5,18.1L738.9,777.9l-11.3-11.3
				c-0.2-0.2-0.5-0.4-0.7-0.6l24.1-24.1l-0.1-0.1l152.5-152.6c3-3,3-7.8,0-10.7l-0.8-0.8c-3-3-7.8-3-10.7,0L739.3,730.3l0.1,0.1
				l-114,114c-12.7,10.1-26.8,13.1-35.5,10.7l-0.2-0.2l76.8-76.8c0.5-0.5,1-1,1.4-1.5c0,0,0.1-0.1,0.1-0.2c0.1-0.1,0.2-0.2,0.2-0.3
				c0.1-0.1,0.2-0.2,0.2-0.3c0.4-0.5,0.9-1,1.3-1.6l0.2,0.2l209.2-209.1C889.1,555.3,905.3,555.3,915.3,565.3z"/>
			<polyline class="st0" points="668.5,775.9 669.2,775.2 669.9,774.5 			"/>
			<path class="st0" d="M726.5,765.6"/>
			<path class="st0" d="M738.6,777.6"/>
			<path class="st0" d="M738.6,777.6"/>
			<path class="st0" d="M726.5,765.6"/>
		</g>
		<path class="st6" d="M670.6,734.6L670.6,734.6z"/>
		<path class="st6" d="M720.2,591l48.8,48.8c3.2,3.2,3.2,8.4,0,11.6c-3.2,3.2-8.4,3.2-11.6,0L756,650l-0.1,0.1c0,0-2.5-2.4-13.5,3
			c-11,5.3-18.6,11.2-32.3,19.9c-13.7,8.7-43.4,33.4-43.4,33.4s-0.5,0.5-1.4,1.2l-0.1-0.1c-2.9,2.5-6.8,6-9.3,8.3
			c-0.2,0.1-0.3,0.3-0.5,0.4c-0.7,0.6-1.2,1.1-1.4,1.4l-3,2.9l-19.1,19.1l0.1,0.2c-0.8,0.6-1.6,1.2-2.4,2L536,835.4
			c-3.5,3.5-5.2,8-5.2,12.6c0,4.6,1.7,9.1,5.2,12.6c7,7,18.2,6.9,25.2,0l93.6-93.6c3.5-3.5,5.2-8,5.2-12.6c0-4.6-1.7-9.1-5.2-12.6
			c-2.3-2.3-5.1-3.8-8-4.6l12.9-12.9v-0.1c2.4,1.4,4.7,3.2,6.8,5.3c6.7,6.7,10,15.4,10,24.2c0,7.3-2.3,14.6-7,20.7l0,0
			c-0.4,0.5-0.8,1.1-1.3,1.6c-0.1,0.1-0.2,0.2-0.2,0.3c-0.1,0.1-0.2,0.2-0.2,0.3c0,0.1-0.1,0.1-0.1,0.2c-0.4,0.4-0.7,0.8-1.1,1.2
			L572,872.6c-1,1-2.1,1.9-3.1,2.8c-0.5,0.4-0.9,0.7-1.4,1c-0.2,0.2-0.5,0.3-0.7,0.5c-0.2,0.2-0.5,0.3-0.7,0.4
			c-0.7,0.5-1.5,0.9-2.2,1.3c-12.5,6.6-28.1,4.9-39-4.9c-0.4-0.4-0.8-0.7-1.2-1.1l-1.2-1.3c-5.9-6.8-8.9-15.1-8.9-23.4
			c0-8.8,3.4-17.6,10.1-24.3l94.2-94.2c0.3-0.3,0.7-0.6,1-0.9c0.2-0.2,0.4-0.4,0.6-0.6c10-10.3,23.3-24.9,34.1-36.8
			c21.9-24.3,39.3-46.2,52.3-67.6c0,0,5.6-13.2,5.7-17.9l-3-3c-3.2-3.2-3.2-8.4,0-11.6c1.6-1.6,3.7-2.4,5.8-2.4
			C716.5,588.6,718.6,589.4,720.2,591z"/>
		<path class="st6" d="M665.2,707.5L665.2,707.5c-0.4,0.5-1,1-1.6,1.5c-2.4,2-5.6,4.8-7.7,6.7C658.4,713.5,662.3,710,665.2,707.5z"
			/>
		<path class="st6" d="M667.8,776.5c-0.4,0.5-0.9,1-1.4,1.5l-94.2,94.2c-1,1-2.1,2-3.3,2.9c1.1-0.9,2.1-1.8,3.1-2.8l94.6-94.6
			C667,777.3,667.4,776.9,667.8,776.5z"/>
		<path class="st8" d="M579.5,791.9l0.1,0.1c-10.8,11.6-9.8,20.9-9.4,24.9c0.4,3.9,3.2,8.8,6.6,12.5c3.1,3.5,8.6,5.9,9.3,6.3
			l-12.9,12.9l0,0c0,0-5.1-3.9-7.8-6.8c-2.7-2.8-7.6-8.8-9.3-13c-1.7-4.3-3-7.1-2.6-10.4l-0.2-0.2L579.5,791.9z"/>
		<path class="st0" d="M553.3,818.1l0.2,0.2c-0.4,3.3,0.9,6.1,2.6,10.4s6.6,10.2,9.3,13c2.7,2.8,7.8,6.8,7.8,6.8l0,0l-12,12
			c-7,7-18.2,7-25.2,0c-3.5-3.5-5.2-8-5.2-12.6c0-4.6,1.7-9.1,5.2-12.6L553.3,818.1z"/>
		<path class="st0" d="M654.9,741.7c3.5,3.5,5.2,8,5.2,12.6c0,4.6-1.7,9.1-5.2,12.6l-68.7,68.7c-0.7-0.3-6.1-2.8-9.3-6.3
			c-3.4-3.7-6.2-8.5-6.6-12.5c-0.4-3.9-1.4-13.3,9.4-24.9l-0.1-0.1l50.2-50.2c0.7-0.7,1.5-1.4,2.4-2l0,0c4.4-3,9.8-3.9,14.8-2.6
			C649.8,737.9,652.6,739.4,654.9,741.7z"/>
		<path class="st0" d="M586.2,835.6"/>
		<path class="st0" d="M580.1,832.1"/>
		<path class="st0" d="M570.1,817.5"/>
		<path class="st0" d="M579.6,792"/>
		<path class="st0" d="M589.8,855.1"/>
		<path class="st0" d="M586.2,835.6L586.2,835.6"/>
		<line class="st0" x1="690.5" y1="754" x2="690.4" y2="754"/>
		<path class="st8" d="M665.2,707.5l35.8,35.8l-9.2,9.2l-36.1-36.1l-0.2-0.2c0.2-0.1,0.3-0.3,0.5-0.4
			C658.4,713.5,662.3,710,665.2,707.5z"/>
		<path class="st0" d="M563.9,878.3c-12.4,6.6-28.1,5-39-4.9C535.8,883.2,551.4,884.9,563.9,878.3z"/>
		<path class="st0" d="M669.7,774.2L669.7,774.2c-0.4,0.6-0.8,1.1-1.3,1.6C668.9,775.3,669.3,774.8,669.7,774.2z"/>
		<path class="st8" d="M651.1,720.5L632,739.6l0.1,0.2l0,0c4.4-3,9.8-3.9,14.8-2.6l12.9-12.9v-0.1
			C657.1,722.5,654.1,721.2,651.1,720.5z"/>
		<path class="st0" d="M654.9,741.7c3.5,3.5,5.2,8,5.2,12.6c0,4.6-1.7,9.1-5.2,12.6l-93.6,93.6c-7,7-18.2,7-25.2,0
			c-3.5-3.5-5.2-8-5.2-12.6c0-4.6,1.7-9.1,5.2-12.6l93.6-93.6c0.7-0.7,1.5-1.4,2.4-2l0,0c4.4-3,9.8-3.9,14.8-2.6
			C649.8,737.9,652.6,739.4,654.9,741.7z"/>
	</g>
</g>
<g id="Saxophone_00000151544316017982450910000013908919030043526295_">
	<g id="Saxophone">
		<path class="st9" d="M1261.3,133.4v3c0,5.1-4.2,9.3-9.3,9.3h-36.8c-0.5,0-1,0-1.4-0.1h20.3c5.1,0,9.3-4.2,9.3-9.3v-3.1
			c0-4.6-3.4-8.5-7.9-9.2h16.6C1257.2,124.2,1261.3,128.3,1261.3,133.4z"/>
		<path class="st10" d="M1301.4,72.5c0,0.4,0,0.9,0.1,1.4c-4.3-0.2-16.1,1.4-30.3,8.3c-6.6,3.2-12,9.2-16.6,20.5
			c-3.5,8.4-3.7,17.1-3.5,21.3v0.2h-20.9V124c0.1-4.9,0.7-12.5,2.3-18.8c1.2-4.6,2.6-10.1,6.4-16.4c4.5-7.4,9.7-11.7,11.2-12.9
			c7-5.5,14.1-7.9,18.5-8.9c11.7-2.4,26.8-5.6,38.5-8l0,0c-0.9,2.2-1.8,4.4-2.8,6.6C1303.4,67.9,1302.4,70.2,1301.4,72.5z"/>
		<path class="st0" d="M1301.5,74L1301.5,74"/>
		<path class="st11" d="M1367.4,34.5l-1.9,3.9c-7.3,2.5-14.6,5-21.8,7.6c-2,1.4-4.3,3.2-6.7,5.7c-2.4,2.4-4.2,4.8-5.5,6.8l-27.2,7.2
			c0.9-2.2,1.8-4.4,2.8-6.6c1.8-4.2,3.5-8.4,5.3-12.6c0.5-1.3,1.1-2.6,1.7-3.9c3.7-0.6,45.9-7.1,53-8.2L1367.4,34.5z"/>
		<path class="st12" d="M1373.7,49c-6.6,2.4-13.2,4.9-19.8,7.3c-2.5,1.7-5.5,4-8.4,6.9c-2.2,2.2-4,4.3-5.5,6.3
			c-1.1,0.3-27.5,7.5-33.5,7.8c-0.9,0-2.7,0.1-3.9-1.1c-0.6-0.6-0.9-1.5-1-2.2c-0.1-0.6-0.1-1.1-0.1-1.4c1-2.3,1.9-4.6,2.9-6.9
			l27.2-7.2c1.4-2,3.2-4.4,5.5-6.8c2.4-2.4,4.7-4.3,6.7-5.7c7.3-2.5,14.5-5,21.8-7.6l1.9-3.9l-0.3-0.1c0.1,0,0.2,0,0.3,0
			c0.2,0,0.4,0,0.5-0.1h0.2c5.2,0,9.1,3.6,9.4,7.6C1377.7,46,1373.9,48.9,1373.7,49z"/>
		<line class="st0" x1="1367.4" y1="34.4" x2="1367.4" y2="34.5"/>
		<path class="st13" d="M1312.4,46.5c-1.8,4.2-3.5,8.4-5.3,12.6l0,0c-11.7,2.4-26.8,5.5-38.5,8c-4.4,1-11.5,3.3-18.5,8.9
			c-1.5,1.2-6.7,5.5-11.2,12.9c-3.8,6.3-5.2,11.7-6.4,16.4c-1.6,6.3-2.2,13.9-2.3,18.8v0.1h-14v-0.1l-0.2-1.9
			c-0.5-6.2-0.6-18.5,5.5-31.9c1.5-3.3,5.6-11.4,14-19.3c10.7-10.1,22.3-14.1,28.6-15.7L1312.4,46.5z"/>
		<path class="st14" d="M1204.2,161.1v12.1c0,3.4-2.7,6.1-6.1,6.1s-6.1-2.7-6.1-6.1v-12.1c0-3.4,2.7-6.1,6.1-6.1
			c1.7,0,3.2,0.7,4.3,1.8C1203.5,157.9,1204.2,159.4,1204.2,161.1z"/>
		<path class="st14" d="M1203.8,192v12.1c0,3.4-2.7,6.1-6.1,6.1l0,0c-3.4,0-6.1-2.7-6.1-6.1V192c0-3.4,2.7-6.1,6.1-6.1l0,0
			c1.7,0,3.2,0.7,4.3,1.8C1203.2,188.8,1203.8,190.4,1203.8,192z"/>
		<path class="st14" d="M1203.5,223.3v12.1c0,3.4-2.7,6.1-6.1,6.1c-3.4,0-6.1-2.7-6.1-6.1v-12.1c0-3.4,2.7-6.1,6.1-6.1
			c1.7,0,3.2,0.7,4.3,1.8C1202.8,220.1,1203.5,221.6,1203.5,223.3z"/>
		<path class="st9" d="M1259.5,210.5c-2,1.3-4.4,2.2-7,2.4c-0.3,0-0.7,0-1.1,0c-8,0-14.4-6.3-14.4-14.1s6.5-14.1,14.4-14.1
			c3.1,0,6,1,8.4,2.6c-5.6,1.1-9.8,5.9-9.8,11.6C1250.1,204.6,1254.1,209.3,1259.5,210.5z"/>
		<path class="st15" d="M1265.9,198.8c0,4.9-2.5,9.2-6.4,11.7c-5.4-1.2-9.5-5.9-9.5-11.5c0-5.7,4.2-10.5,9.8-11.6
			C1263.5,189.9,1265.9,194.1,1265.9,198.8z"/>
		<path class="st9" d="M1260.9,256.9c-2.3,1.5-5.1,2.4-8.1,2.4c-8,0-14.4-6.3-14.4-14.1s6.5-14.1,14.4-14.1c3.1,0,6,1,8.4,2.6
			c-5.6,1.1-9.8,5.9-9.8,11.6C1251.4,251,1255.4,255.7,1260.9,256.9z"/>
		<path class="st15" d="M1267.3,245.2c0,4.9-2.5,9.2-6.4,11.7c-5.4-1.2-9.5-5.9-9.5-11.5c0-5.7,4.2-10.5,9.8-11.6
			C1264.9,236.3,1267.3,240.5,1267.3,245.2z"/>
		<path class="st9" d="M1262.4,303.6c-2.3,1.5-5.1,2.4-8.1,2.4c-8,0-14.4-6.3-14.4-14.1c0-7.5,6-13.6,13.6-14.1c0.3,0,0.6,0,0.9,0
			c3.1,0,6,1,8.4,2.6c-5.6,1.1-9.8,5.9-9.8,11.6C1252.9,297.6,1256.9,302.3,1262.4,303.6z"/>
		<path class="st15" d="M1268.7,291.8c0,4.9-2.5,9.2-6.4,11.7c-5.4-1.2-9.5-5.9-9.5-11.5c0-5.7,4.2-10.5,9.8-11.6
			C1266.4,282.9,1268.7,287.1,1268.7,291.8z"/>
		<path class="st14" d="M1202.7,267.3v12.1c0,3.4-2.7,6.1-6.1,6.1s-6.1-2.7-6.1-6.1v-12.1c0-3.4,2.7-6.1,6.1-6.1
			c1.7,0,3.2,0.7,4.3,1.8C1202,264.1,1202.7,265.6,1202.7,267.3z"/>
		<path class="st14" d="M1202.3,298.2v12.1c0,3.4-2.7,6.1-6.1,6.1s-6.1-2.7-6.1-6.1v-12.1c0-3.4,2.7-6.1,6.1-6.1
			c1.7,0,3.2,0.7,4.3,1.8C1201.6,295,1202.3,296.6,1202.3,298.2z"/>
		<path class="st9" d="M1171.6,195.3c0,3.2-1.2,6.4-3.7,8.9c-3.1,3-6.2,6.1-9.4,9.1c-0.1,0.1-0.2,0.2-0.3,0.3
			c-1.6,1.6-3.3,3.2-4.9,4.8c2.1-2.3,3.2-5.3,3.2-8.3c0-3.1-1.2-6.2-3.5-8.7c-4.8-4.9-12.6-5-17.5-0.2l-76,74.1
			c0.1-0.2,0.3-0.3,0.5-0.5l90.6-88.4c4.9-4.8,12.8-4.7,17.5,0.2C1170.4,189.1,1171.6,192.2,1171.6,195.3z"/>
		<path class="st15" d="M1156.5,210.1c0,3-1.1,6-3.2,8.3l-62.8,61.3l-13.2,12.9c-4.9,4.8-12.8,4.7-17.5-0.2
			c-4.6-4.7-4.7-12.2-0.3-17v-0.1l76-74.1c4.9-4.8,12.8-4.7,17.5,0.2C1155.4,203.8,1156.5,206.9,1156.5,210.1z"/>
		<path class="st0" d="M1101.3,305.9C1101.3,305.9,1101.3,306,1101.3,305.9"/>
		<path class="st15" d="M1123.5,317.8c0,4.9-2.5,9.2-6.4,11.7c-5.4-1.2-9.5-5.9-9.5-11.5c0-5.7,4.2-10.5,9.8-11.6
			C1121.2,308.9,1123.5,313.1,1123.5,317.8z"/>
		<path class="st15" d="M1123.1,368.6c0,4.9-2.5,9.2-6.4,11.7c-5.4-1.2-9.5-5.9-9.5-11.5c0-5.7,4.2-10.5,9.8-11.6
			C1120.7,359.7,1123.1,363.9,1123.1,368.6z"/>
		<path class="st15" d="M1224.5,304.4c0,1.6-0.6,3-1.7,4c-1,1-2.4,1.7-4,1.7h-16.2c-0.1,0-0.2,0-0.3,0v-11.3c0.1,0,0.2,0,0.3,0h16.2
			C1222,298.7,1224.5,301.3,1224.5,304.4z"/>
		<path class="st9" d="M1117.1,329.5c-2.3,1.5-5.1,2.4-8.1,2.4c-3.2,0-6.2-1-8.6-2.8c-3.5-2.6-5.8-6.7-5.8-11.3
			c0-5,2.7-9.4,6.7-11.9c2.2-1.4,4.9-2.2,7.7-2.2c3.1,0,6,1,8.4,2.6c-5.6,1.1-9.8,5.9-9.8,11.6
			C1107.7,323.6,1111.7,328.3,1117.1,329.5z"/>
		<path class="st9" d="M1116.7,380.3c-2.3,1.5-5.1,2.4-8.1,2.4c-1.2,0-2.3-0.1-3.4-0.4c-6.3-1.5-11-7.1-11-13.7
			c0-4.8,2.5-9.1,6.2-11.6c2.3-1.6,5.1-2.5,8.2-2.5s6,1,8.4,2.6c-5.6,1.1-9.8,5.9-9.8,11.6C1107.3,374.4,1111.3,379.1,1116.7,380.3z
			"/>
		<path class="st13" d="M1232.4,357.6c-0.2,6.4-1.5,27.3-17.3,46.6c-15.4,18.8-40.1,26.3-46.4,27.8v0.1c-0.5-0.1-0.9-0.1-1.4-0.2
			c-42.8-5.8-61.2-47.5-62-49.5l0,0c1.1,0.2,2.2,0.4,3.4,0.4c3,0,5.8-0.9,8.1-2.4c3.8-2.5,6.4-6.8,6.4-11.7c0-4.7-2.4-8.9-6-11.5
			c-2.4-1.7-5.3-2.6-8.4-2.6c-3,0-5.9,0.9-8.2,2.5l0,0v-27.9c2.4,1.8,5.4,2.8,8.6,2.8c3,0,5.8-0.9,8.1-2.4c3.8-2.5,6.4-6.8,6.4-11.7
			c0-4.7-2.4-8.9-6-11.5c-2.4-1.7-5.3-2.6-8.4-2.6c-2.8,0-5.5,0.8-7.7,2.2c0.2-1.8-2.2-8.2-3.7-13.5l50.7-49
			c0.8,2.5,1.5,5.2,2.2,8.2c1,4.5,1.4,8.6,1.7,12.3c-0.4,25.3,0.2,51.4-0.3,76.7c1,7.3,5.9,15.8,12.5,18.4
			c7.9,3.1,17.2-2.2,18.3-2.8v-0.1c3.4,2.7,7.4,4.3,11.7,4.1c14.3-0.7,17.3-9.5,18.4-19.1c0.2-10.3,0.5-20.7,0.7-31l0,0h5.4
			c1.6,0,3-0.6,4-1.7c1-1,1.7-2.4,1.7-4l7-0.1C1231.8,322.2,1232,340.1,1232.4,357.6z"/>
		<path class="st10" d="M1182.7,356.1L1182.7,356.1c-1.2,0.6-10.4,5.9-18.3,2.8c-6.6-2.6-11.5-11.1-12.5-18.4
			c0.5-25.3-0.2-51.4,0.3-76.7c-0.2-3.7-0.7-7.8-1.7-12.3c-0.6-3-1.4-5.7-2.2-8.2l-50.7,49c-1.5-5.4-3.1-7-7.2-12.7l0,0l62.8-61.3
			c1.6-1.6,3.3-3.2,4.9-4.8l0.1,0.1c3.3,5.5,7.2,12.5,10.2,20.8c3.8,10.7,5.5,20.4,6.2,27.9c-0.1,26.3-0.3,52.6-0.4,78.9
			C1175.1,347.1,1178.3,352.6,1182.7,356.1z"/>
		<path class="st15" d="M1225.7,229.5c0,1.6-0.6,3-1.7,4c-1,1-2.4,1.7-4,1.7h-16.2c-0.1,0-0.2,0-0.3,0v-11.3c0.1,0,0.2,0,0.3,0h16.2
			C1223.2,223.8,1225.7,226.3,1225.7,229.5z"/>
		<path class="st15" d="M1225,273.5c0,1.6-0.6,3-1.7,4c-1,1-2.4,1.7-4,1.7h-16.2c-0.1,0-0.2,0-0.3,0v-11.3c0.1,0,0.2,0,0.3,0h16.2
			C1222.4,267.8,1225,270.3,1225,273.5z"/>
		<line class="st0" x1="1214.3" y1="235.1" x2="1214.3" y2="235.1"/>
		<path class="st15" d="M1226.4,167.3c0,1.6-0.6,3-1.7,4c-1,1-2.4,1.7-4,1.7h-16.2c-0.1,0-0.2,0-0.3,0v-11.3c0.1,0,0.2,0,0.3,0h16.2
			c0.8,0,1.5,0.2,2.2,0.4C1225,162.9,1226.4,164.9,1226.4,167.3z"/>
		<path class="st13" d="M1230.4,229.4L1230.4,229.4l-4.6,0.1c0-3.1-2.5-5.7-5.7-5.7h-5.6v-0.2l0.2-19.7l0,0h5.7c1.6,0,3-0.6,4-1.7
			c1-1,1.7-2.4,1.7-4c0-3.1-2.5-5.7-5.7-5.7h-5.5v-0.1l0.2-19.5l0,0h5.6c1.6,0,3-0.6,4-1.7c1-1,1.7-2.4,1.7-4c0-2.3-1.4-4.4-3.5-5.2
			l0,0h6.3c0.2,11.9,0.4,24,0.6,36.1l0,0c0,0.2,0,0.5,0,0.7l0,0C1230,209,1230.2,219.2,1230.4,229.4z"/>
		<path class="st13" d="M1231,273.4l-6.1,0.1c0-3.1-2.5-5.7-5.7-5.7h-5.2v-0.1l0.3-32.6h5.7c1.6,0,3-0.6,4-1.7c1-1,1.7-2.4,1.7-4
			l4.6-0.1c0.1,5.3,0.2,10.6,0.2,15.9C1230.7,254.7,1230.9,264,1231,273.4z"/>
		<path class="st13" d="M1231.5,304.3l-7,0.1c0-3.1-2.5-5.7-5.7-5.7h-5.2v-0.1l0.2-19.3v-0.2h5.5c1.6,0,3-0.6,4-1.7
			c1-1,1.7-2.4,1.7-4l6.1-0.1c0.1,6.2,0.2,12.4,0.3,18.6C1231.4,296.1,1231.4,300.2,1231.5,304.3z"/>
		<path class="st10" d="M1252.8,231.1c-8,0-14.4,6.3-14.4,14.1l-7.8,0.1c-0.1-5.3-0.2-10.6-0.2-15.9l0,0
			c-0.2-10.2-0.3-20.4-0.5-30.5l0,0c0-0.2,0-0.5,0-0.7l0,0c-0.2-12.1-0.4-24.2-0.6-36.1h-6.3l0,0c-0.7-0.3-1.4-0.4-2.2-0.4h-5.5
			v-0.1l0.2-15.6v-0.1h35.9l0,0v38.9c-8,0-14.4,6.3-14.4,14.1s6.5,14.1,14.4,14.1c0.4,0,0.7,0,1.1,0l0,0L1252.8,231.1z"/>
		<path class="st10" d="M1253.4,277.8c-7.6,0.4-13.6,6.6-13.6,14.1l-8.6,0.1c-0.1-6.2-0.2-12.4-0.3-18.6c-0.1-9.3-0.3-18.7-0.4-28.1
			l7.8-0.1c0,7.8,6.5,14.1,14.4,14.1l0.6,18.3L1253.4,277.8z"/>
		<path class="st10" d="M1255,362.7c-0.7,7.2-2.8,18.1-9.2,29.5c-13.6,24-43.3,43.8-77.1,39.9V432c6.3-1.5,31-9,46.4-27.8
			c15.8-19.3,17.1-40.1,17.3-46.6c-0.3-17.6-0.6-35.4-0.9-53.4c-0.1-4.1-0.1-8.2-0.2-12.3l8.6-0.1c0,7.8,6.5,14.1,14.4,14.1
			C1254.5,324.4,1254.7,344.3,1255,362.7z"/>
		<path class="st15" d="M1226.1,198.2c0,1.6-0.6,3-1.7,4c-1,1-2.4,1.7-4,1.7h-16.2c-0.1,0-0.2,0-0.3,0v-11.3c0.1,0,0.2,0,0.3,0h16.2
			C1223.5,192.5,1226.1,195.1,1226.1,198.2z"/>
		<path class="st15" d="M1243.4,133.3v3.1c0,5.1-4.2,9.3-9.3,9.3h-20.3c-4.4-0.7-7.8-4.5-7.8-9.2v-3c0-5.1,4.1-9.3,9.3-9.3h20.3
			C1239.9,124.8,1243.4,128.7,1243.4,133.3z"/>
	</g>
</g>
<g id="Percussion_00000003803427888335120280000010535139064786475906_">
	<g id="Percussion">
		<g id="Colour_Breaks_00000169546196098718000170000003939798919472718740_">
			<path class="st16" d="M687.2,273.2c-34-4.8-58.5-18.2-58.5-34c0-7.7,5.8-14.8,15.6-20.6"/>
			<path class="st17" d="M709.1,203.4c-7.9,0.2-15.5,0.9-22.7,1.9"/>
			<path class="st17" d="M687.2,273.2c8,1.1,16.5,1.8,25.4,1.9c-1.5,0-3.1,0-4.6-0.1"/>
			<path class="st18" d="M583.2,239.2c0-12,23.2-22.5,58.5-28.8"/>
			<path class="st19" d="M641.7,210.4c0.4,2.6,1.2,5.4,2.7,8c-0.1,0-0.1,0.1-0.2,0.1c-9.8,5.8-15.6,12.9-15.6,20.6
				c0,15.8,24.5,29.2,58.5,34c-23.1-1.4-43.8-4.3-60.7-8.3c-26.6-6.4-43.3-15.5-43.3-25.6"/>
		</g>
		<g id="Drum_Outline_00000057856678555477539020000006115419280735765893_">
			<path class="st20" d="M644.3,218.6c0.1,0,0.1-0.1,0.2-0.1c0.8,1.3,1.7,2.6,2.8,3.8c6.6,7.1,19.3,11.1,27.3,4.7
				c0.7-0.5,1.3-1.1,1.8-1.8c4.3-4.9,4.8-12.3,2.9-18.7c0.1,0,0.2,0,0.3-0.1c2.2-0.4,4.5-0.8,6.8-1.1c10-0.6,20.4-0.9,31.2-0.9
				c13.2,0,26.1,0.5,38.2,1.4l0,0c-0.1,0.2-0.1,0.5-0.2,0.7c-1.8,6.4-1.3,13.8,2.9,18.7c0.5,0.6,1.2,1.2,1.8,1.8
				c2.1,1.7,4.5,2.7,7.1,3c7.2,1.1,15.3-2.5,20.2-7.7c1.1-1.2,2.1-2.5,2.8-3.8c1.5-2.7,2.3-5.5,2.7-8c0,0,0,0,0-0.1
				c35.5,6.3,58.9,16.8,58.9,28.8l0,0c0,19.2-60.2,34.9-134.4,34.9c-10.4,0-20.6-0.3-30.3-0.9l0,0"/>
			<path class="st21" d="M686.4,205.3c-2.5,0.2-4.9,0.3-7.3,0.5"/>
			<path class="st22" d="M756.3,295.5L756.3,295.5l-38.8,109.3l-38.1-109.3l0,0c11.4,0.8,24,1.3,38.1,1.3
				C731.9,296.7,744.8,296.3,756.3,295.5z"/>
			<path class="st22" d="M626.5,287.4c13.4,3.4,30.7,6.4,52.9,8l0,0l-48,101.1l-4.9-14.4"/>
			<path class="st23" d="M626.5,287.4v-22.5"/>
			<path class="st23" d="M626.5,264.8c16.8,4,37.6,6.9,60.7,8.3l0,0c9.8,0.6,19.9,0.9,30.3,0.9c74.2,0,134.4-15.6,134.4-34.9v29.6
				c0,0-1.7,2.2-6.6,5.3c-10.4,6.7-35.4,17.7-89,21.4c-11.6,0.8-24.4,1.3-38.8,1.3c-14.1,0-26.8-0.5-38.1-1.3
				c-22.2-1.6-39.5-4.6-52.9-8"/>
			<path class="st22" d="M852,268.8v108c0,0-9.5,11.9-47.3,20.2l40.7-122.9C850.2,270.9,852,268.8,852,268.8z"/>
			<path class="st23" d="M626.5,417.4V397"/>
			<path class="st23" d="M626.5,395.4L626.5,395.4c1.6,0.4,3.2,0.8,4.9,1.2c20,4.6,47.8,8.2,86.1,8.2c38.9,0,67-3.4,87.1-7.8
				c37.8-8.3,47.3-20.2,47.3-20.2v22c0,0-22.2,27.9-134.4,27.9c-41.5,0-70.7-4.1-91-9.3"/>
			<path class="st22" d="M804.7,397c-20.1,4.4-48.2,7.8-87.1,7.8l38.8-109.2L804.7,397z"/>
			<path class="st22" d="M717.6,404.7c-38.3,0-66.1-3.5-86.1-8.2l48-101.1L717.6,404.7z"/>
			<path class="st24" d="M626.5,417.4c-34.5-8.9-43.3-20.8-43.3-20.8v-22c0,0,8.8,12,43.3,20.8"/>
			<path class="st25" d="M626.5,382.1l-37-110c6.1,4.3,17.4,10.3,37,15.3"/>
			<path class="st24" d="M626.5,287.4c-19.6-5-30.9-11-37-15.3c-4.7-3.3-6.3-5.5-6.3-5.5v-27.4c0,10.1,16.7,19.3,43.3,25.6"/>
			<path class="st25" d="M631.4,396.6c-1.7-0.4-3.3-0.8-4.9-1.2c-34.5-8.9-43.3-20.8-43.3-20.8v-108c0,0,1.7,2.2,6.3,5.5l37,110
				L631.4,396.6z"/>
			<path class="st22" d="M845.4,274.1L804.7,397l-48.4-101.5l0,0C810,291.8,834.9,280.7,845.4,274.1z"/>
			<line class="st21" x1="717.2" y1="151.4" x2="717.2" y2="174.7"/>
			<line class="st21" x1="758.3" y1="163" x2="746.6" y2="181.5"/>
			<line class="st21" x1="677" y1="163" x2="687.6" y2="180.4"/>
		</g>
		<g id="Drumsticks_00000087405372026745831540000016265595741612681368_">
			<path class="st26" d="M676.4,225.2c-6.6,0.2-13.7-3.2-18.1-7.9c-1.1-1.2-2.1-2.5-2.8-3.8c-1.5-2.7-2.3-5.5-2.7-8
				c-0.9-5.6,0.3-10.4,0.5-10.9c-0.7-0.8-1.4-1.5-2.1-2.3l2.9-2.7c9.4-0.8,18.3,3.6,22.8,11.1c1,1.6,1.7,3.3,2.3,5.2
				c0.1,0.2,0.1,0.5,0.2,0.7C681.1,212.9,680.6,220.3,676.4,225.2z"/>
			<path class="st27" d="M651,192.2c0.7,0.8,1.4,1.5,2.1,2.3c-0.1,0.6-1.3,5.3-0.5,10.9c0.4,2.6,1.2,5.4,2.7,8
				c0.8,1.3,1.7,2.6,2.8,3.8c4.4,4.7,11.5,8.1,18.1,7.9c-0.5,0.6-1.1,1.2-1.8,1.8c-8,6.4-20.7,2.4-27.3-4.7
				c-1.1-1.2-2.1-2.5-2.8-3.8c-1.5-2.7-2.3-5.5-2.7-8c-0.9-5.6,0.3-10.4,0.5-10.9c-35-38.2-70-76.3-105-114.5
				c-7.3-9.1-7.5-21.2-0.3-27.1l0.2-0.2c2.5-2,5.7-3.1,9.1-3.1"/>
			<path class="st27" d="M546.1,54.6c-5.4,6.3-4.7,17.1,2.1,25.4c34.3,37.4,68.6,74.8,102.8,112.2"/>
			<path class="st26" d="M793.1,210.4L793.1,210.4c-0.4,2.6-1.2,5.4-2.8,8.1c-0.8,1.3-1.7,2.6-2.8,3.8c-4.8,5.2-13,8.8-20.2,7.7
				c-2.3-4.6-2.3-10.4-0.8-15.5c0.1-0.2,0.1-0.5,0.2-0.7c0.6-1.9,1.4-3.6,2.3-5.2c0.3-0.5,0.6-1,1-1.5c2.1-3,5-5.4,8.4-7.1
				c0.4-0.2,0.9-0.4,1.3-0.6c2.7-1.1,5.6-1.8,8.7-2c1.1,0,2.3,0,3.5,0.1l1.4,1.3c-0.2,0.2-0.4,0.5-0.6,0.7
				C792.8,200.1,793.9,204.8,793.1,210.4z"/>
			<path class="st27" d="M767.3,230c-2.6-0.4-5-1.3-7.1-3c-0.7-0.5-1.3-1.1-1.8-1.8c-4.3-4.9-4.8-12.3-2.9-18.7
				c0.1-0.2,0.1-0.5,0.2-0.7l0,0c0.6-1.8,1.4-3.6,2.3-5.2c4.1-6.8,11.8-11,20.2-11.2c0.3,0,0.7,0,1,0c0.3,0,0.5,0,0.8,0s0.5,0,0.8,0
				l7.5,7.9c-3.1,0.2-6,0.9-8.7,2c-0.4,0.2-0.9,0.4-1.3,0.6c-3.3,1.7-6.2,4.1-8.4,7.1c-0.4,0.5-0.7,1-1,1.5c-1,1.6-1.7,3.3-2.3,5.2
				c-0.1,0.2-0.1,0.5-0.2,0.7C765,219.6,765.1,225.4,767.3,230"/>
			<path class="st27" d="M780.9,189.5L871,63.7c4.9-6,11.6-9.2,17.7-9.1c3.3,0,6.5,1.1,9.1,3.2L898,58c1.6,1.3,2.9,3,3.8,4.8
				c-0.3,0-0.6-0.1-0.9-0.1c-0.4,0-0.8,0-1.2,0c-6.1-0.1-12.9,3.2-17.7,9.1l-90.1,125.8c-1.2-0.1-2.3-0.1-3.5-0.1"/>
			<path class="st26" d="M897.6,85c-34.8,37.9-69.6,75.8-104.4,113.8l-1.4-1.3l90.1-125.8c4.9-6,11.6-9.2,17.7-9.1
				c0.4,0,0.8,0,1.2,0c0.3,0,0.6,0.1,0.9,0.1C904.8,69.1,903.4,78,897.6,85z"/>
			<path class="st28" d="M653.9,189.5l-2.9,2.7c-34.2-37.4-68.5-74.8-102.8-112.2c-6.8-8.3-7.5-19.1-2.1-25.4"/>
			<path class="st26" d="M546.1,54.6c6.1-0.1,12.9,3.2,17.7,9.1l90.1,125.8"/>
		</g>
	</g>
</g>
<g id="Flute_00000059301212930790771960000015733667823634889915_">
	<g id="Flute">
		<path class="st29" d="M1095.1,831.1l6.1,6.1l-62.2,62.2c-1.5,1.5-3.9,1.5-5.3,0l-8.5-8.5c1.5,1.5,3.9,1.5,5.3,0l56.4-56.4
			C1089.9,834.5,1092.9,833.4,1095.1,831.1z"/>
		<path class="st29" d="M1277.4,644.1l8.5,8.5l-184.7,184.6l-6.1-6.1c2.3-2.3,3.4-5.2,3.4-8.2l23.4-23.4c2.9,0,5.8-1.2,8.1-3.4
			c2.2-2.2,3.4-5.2,3.4-8.1l23.4-23.4c2.8-0.1,5.6-1.2,7.8-3.4s3.3-4.9,3.4-7.8l23.9-23.9c2.7-0.2,5.4-1.3,7.5-3.4
			c2.1-2.1,3.2-4.8,3.4-7.5l24-24c2.8-0.1,5.6-1.2,7.8-3.4c2.2-2.2,3.3-4.9,3.4-7.8L1277.4,644.1z"/>
		<path class="st29" d="M1383.1,533l8.5,8.5c1.5,1.5,1.5,3.9,0,5.3l-63.7,63.7l0,0l-8.4-8.4l41.1-41.1l22.6-22.7
			C1384.5,536.9,1384.5,534.5,1383.1,533z"/>
		<path class="st30" d="M1068.1,811.8l7.7,7.7c-1.2,4-0.2,8.5,2.9,11.6c2.3,2.3,5.3,3.4,8.3,3.4l-56.5,56.5c-1.5,1.5-3.9,1.5-5.3,0
			l-15.5-15.5c-1.5-1.5-1.5-3.9,0-5.4L1068.1,811.8z"/>
		<path class="st30" d="M1102.9,777l7.7,7.7c-1.1,3.9-0.1,8.3,3,11.4c2.3,2.3,5.3,3.4,8.4,3.4l-23.4,23.4c0-3-1.1-6-3.4-8.3
			c-3-3-7.4-4-11.3-3l-7.8-7.8L1102.9,777z"/>
		<path class="st30" d="M1148.2,761.2c2.4,2.4,5.6,3.5,8.7,3.4l-23.4,23.4c0-3-1.1-6.1-3.4-8.4c-3.1-3.1-7.5-4.1-11.5-2.9l-7.7-7.7
			l26.9-26.9l7.5,7.5C1144.1,753.6,1145.1,758.1,1148.2,761.2z"/>
		<path class="st30" d="M1183,726.1c2.5,2.5,5.8,3.6,9,3.4l-23.9,23.9c0.1-3.1-1-6.3-3.4-8.7c-3.1-3.1-7.4-4.1-11.3-3l-7.6-7.6
			l26.8-26.8l7.4,7.4C1178.9,718.7,1179.9,723.1,1183,726.1z"/>
		<path class="st30" d="M1218.2,691.2c2.4,2.4,5.6,3.5,8.7,3.4l-24,24c0.2-3.2-0.9-6.5-3.4-9c-3.1-3.1-7.6-4.1-11.6-2.9l-7.4-7.4
			l27.2-27.2l7.5,7.5C1214.1,683.6,1215.1,688.1,1218.2,691.2z"/>
		<path class="st30" d="M1256.6,623.3l20.8,20.8l-39.3,39.3c0.1-3.1-1-6.3-3.4-8.7c-3.1-3.1-7.4-4.1-11.3-3l-7.6-7.6L1256.6,623.3z"
			/>
		<path class="st30" d="M1356.3,556.9l4.1,4.1l-41.1,41.1l-20.8-20.8l17.9-17.8l9.1,9.1c4.2,4.2,10.9,4.2,15,0L1356.3,556.9z"/>
		<path class="st30" d="M1367.6,517.6L1383,533c1.5,1.5,1.5,3.9,0,5.3l-22.6,22.7l-4.1-4.1c4.2-4.2,4.2-10.9,0-15l-9.1-9.1
			l15.1-15.1C1363.8,516.1,1366.2,516.1,1367.6,517.6z"/>
		<path class="st31" d="M1220.9,631.7c1.1,1.1,1.6,2.5,1.6,3.8c0,1.4-0.5,2.8-1.6,3.8l-15,15l17.4,17.4c3.9-1.1,8.3-0.1,11.3,3
			c2.4,2.4,3.5,5.6,3.4,8.7c-0.1,2.8-1.2,5.6-3.4,7.8s-4.9,3.3-7.8,3.4c-3.1,0.1-6.3-1-8.7-3.4c-3.1-3.1-4.1-7.6-2.9-11.5
			l-17.3-17.3l-27.2,27.2l17.1,17.1c4-1.2,8.4-0.2,11.6,2.9c2.5,2.5,3.6,5.8,3.4,9c-0.2,2.7-1.3,5.4-3.4,7.5
			c-2.1,2.1-4.8,3.2-7.5,3.4c-3.2,0.2-6.5-0.9-9-3.4c-3.1-3.1-4.1-7.4-3-11.3l-17.2-17.2l-26.8,26.8l17.4,17.4
			c3.9-1.1,8.3-0.1,11.3,3c2.4,2.4,3.5,5.6,3.4,8.7c-0.1,2.8-1.2,5.6-3.4,7.8s-4.9,3.3-7.8,3.4c-3.1,0.1-6.3-1-8.7-3.4
			c-3.1-3.1-4.1-7.6-2.9-11.5l-17.3-17.3l-26.9,26.9l17.5,17.5c3.9-1.1,8.4-0.2,11.5,2.9c2.3,2.3,3.4,5.3,3.4,8.4
			c0,2.9-1.2,5.9-3.4,8.1c-2.2,2.2-5.2,3.4-8.1,3.4c-3,0-6.1-1.1-8.4-3.4c-3.1-3.1-4.1-7.5-3-11.4l-17.5-17.5l-26.8,26.8l17.6,17.6
			c3.9-1,8.2,0,11.3,3c2.3,2.3,3.4,5.3,3.4,8.3s-1.2,5.9-3.4,8.2c-2.3,2.3-5.2,3.4-8.2,3.4s-6-1.1-8.3-3.4
			c-3.1-3.1-4.1-7.6-2.9-11.6l-17.5-17.5l-13.6,13.6c-2.1,2.1-5.6,2.1-7.7,0c-1.1-1.1-1.6-2.4-1.6-3.8c0-1.4,0.5-2.8,1.6-3.8
			L1213.1,632C1215.3,629.6,1218.8,629.6,1220.9,631.7z"/>
		<path class="st31" d="M1347.2,532.7l9.1,9.1c4.2,4.2,4.2,10.9,0,15l-15.7,15.8c-4.2,4.2-10.9,4.2-15,0l-9.1-9.1L1347.2,532.7z"/>
		<path class="st32" d="M1295.9,578.7l23.4,23.4c1.8,1.8,1.9,5.1,0.1,7l-5.3,5.3c-1.8,1.8-3.8,2.8-5.7,1l-0.2-0.2
			c-0.5-0.3-1.1-0.4-1.7-0.3c-0.6,0.1-1.2,0.3-1.7,0.8l-14.1,14.1c-0.5,0.5-0.7,1.1-0.8,1.7c-0.1,0.8,0.2,1.6,0.8,2.3
			c1.8,1.8,0.6,3.6-1.2,5.4l-5.3,5.3c-1.8,1.8-4.8,1.8-6.6,0l-24.5-24.5c-0.9-1.6-0.7-3.7,0.7-5l5.8-5.8c0.7-0.7,1.6-1.1,2.6-1.3
			c1.2-0.2,2.4,0.1,3.4,0.8h0.1c1.7-0.1,3.5-0.7,4.8-2.1l11.5-11.5c1.1-1.1,1.8-2.5,2-3.9c-0.1-0.1-0.2-0.2-0.2-0.3
			c-1.1-1.3-1.4-3.1-0.8-4.6c0.1-0.3,0.2-0.6,0.4-0.8l0,0c0.2-0.3,0.4-0.6,0.7-0.9l5.3-5.3c0.3-0.3,0.7-0.6,1.1-0.8l0,0
			c1.3-0.9,3.1-1,4.5-0.2C1295.3,578.2,1295.7,578.5,1295.9,578.7z"/>
		<path class="st0" d="M1299.4,648.8c0.1-0.1,0.2-0.2,0.3-0.2c0.3-0.2,0.5-0.4,0.7-0.7"/>
		<path class="st0" d="M1293.6,654.6c-0.3,0.4-0.5,0.5-1,0.7"/>
		<path class="st0" d="M1296,579.1"/>
		<path class="st0" d="M1290,578.7"/>
		<path class="st0" d="M1290,578.7"/>
		<path class="st0" d="M1296,579.1"/>
		<path class="st0" d="M1295,578"/>
		<path class="st0" d="M1290.6,578.2"/>
		<path class="st31" d="M1319.3,602.1l10.4,10.4c1.2,1.7,1.4,4.2,0.2,5.8c0,0,0,0.1-0.1,0.1c-0.1,0.2-0.3,0.4-0.5,0.6l-5.3,5.3
			c-0.2,0.2-0.4,0.3-0.5,0.5c-1.6,1.2-3.3,1.4-5,0.3c-0.5-0.5-1.3-0.8-2-0.7c-0.7,0-1.4,0.3-2,0.9l-14.1,14.1
			c-1.1,1.1-1.1,2.8,0,3.9c0.7,0.7,1,1.5,0.9,2.2c-0.1,0.7-0.5,1.5-1,2.4l-6.7,6.7c-0.3,0.3-0.6,0.5-1,0.7l0,0
			c-1.7,0.7-3.7,0.3-5.1-1l-9.9-9.9c1.8,1.8,4.8,1.8,6.6,0l5.3-5.3c1.8-1.8,3-3.6,1.2-5.4c-0.6-0.6-0.9-1.4-0.8-2.3
			c0.1-0.6,0.3-1.2,0.8-1.7l14.1-14.1c0.5-0.5,1.1-0.7,1.7-0.8c0.6-0.1,1.2,0,1.7,0.3l0.2,0.2c1.8,1.8,3.9,0.9,5.7-1l5.3-5.3
			C1321.3,607.3,1321.2,604,1319.3,602.1z"/>
		<path class="st0" d="M1329.8,618.4L1329.8,618.4"/>
		<path class="st0" d="M1329.3,612.4"/>
		<path class="st0" d="M1290.5,578.3"/>
		<path class="st0" d="M1329.8,618.4L1329.8,618.4"/>
	</g>
</g>
<g id="Clarinet_00000060710027891353580080000012814356078702424750_">
	<g id="Clarinet">
		
			<rect x="366.8" y="578.9" transform="matrix(0.7071 -0.7071 0.7071 0.7071 -306.8264 436.3419)" class="st33" width="12.9" height="19.2"/>
		
			<rect x="339.8" y="600.1" transform="matrix(0.7071 -0.7071 0.7071 0.7071 -328.0324 427.4908)" class="st33" width="24.5" height="19.3"/>
		<path class="st33" d="M342.2,633.2l-34.3,34.3l-21,21l-4.4,4.4l-0.2-0.2c7-7,7-18.3,0-25.2c-0.3-0.3-0.6-0.6-0.9-0.8l0.3-0.3
			l46.8-46.9l0.1,0.1L342.2,633.2z"/>
		<path class="st33" d="M282.6,692.9l-3.9,4l-34.5,34.5l-4.1,4.1l-0.3-0.3c7-7,7-18.3,0-25.2c-0.2-0.2-0.5-0.5-0.7-0.7l0.1-0.1
			l17-17l0.3-0.2c0.2,0.3,0.5,0.5,0.7,0.8c7,7,18.3,7,25.2,0L282.6,692.9z"/>
		<path class="st33" d="M240.1,735.4l-42.4,42.4l-0.4-0.3c7-7,7-18.3,0-25.2c-0.2-0.2-0.4-0.4-0.7-0.6l0.1-0.1l17.1-17.1
			c0.2,0.2,0.5,0.5,0.7,0.8c7,7,18.3,7,25.2,0L240.1,735.4z"/>
		<path class="st33" d="M197.7,777.8L155,820.5L141.5,807l-0.2-0.2l30-30l0.1-0.1c0.2,0.2,0.5,0.5,0.7,0.7c7,7,18.3,7,25.2,0
			L197.7,777.8z"/>
		<path class="st34" d="M171.4,776.7l-0.1,0.1l-30,30l-11.8-11.7l40.6-40.6c-0.2,0.2-0.3,0.5-0.5,0.7c-0.1,0.1-0.2,0.2-0.2,0.3
			c-0.1,0.2-0.3,0.4-0.4,0.7c-0.5,1-1,2-1.3,3c-0.1,0.2-0.1,0.5-0.2,0.7c-0.1,0.4-0.2,0.8-0.3,1.2c-0.1,0.3-0.1,0.5-0.1,0.8
			c0,0.1-0.1,0.2-0.1,0.3c-0.1,0.4-0.1,0.8-0.1,1.2l0,0c0,0.4-0.1,0.8-0.1,1.2c0,1.6,0.2,3.3,0.6,4.9c0.1,0.4,0.2,0.8,0.4,1.2
			C168.6,772.8,169.8,774.9,171.4,776.7z"/>
		<path class="st34" d="M213.9,734.4l-17.1,17.1l-0.1,0.1c-2.9-2.7-6.6-4.2-10.3-4.5c-1.3-0.1-2.6-0.1-3.8,0c-0.3,0-0.6,0.1-1,0.1
			c-0.3,0-0.6,0.1-0.9,0.2c-0.3,0.1-0.6,0.1-0.9,0.2c-0.6,0.2-1.2,0.4-1.7,0.6c-0.3,0.1-0.6,0.2-0.9,0.4c-0.2,0.1-0.5,0.2-0.7,0.3
			c-0.2,0.1-0.4,0.2-0.6,0.3c-0.2,0.1-0.4,0.2-0.6,0.4c-0.2,0.1-0.4,0.3-0.6,0.4c-0.1,0-0.2,0.1-0.3,0.2l38.8-38.8
			c-0.2,0.3-0.4,0.5-0.6,0.8c0,0,0,0.1-0.1,0.1c-0.2,0.3-0.4,0.6-0.6,1l0,0c-0.2,0.3-0.4,0.6-0.5,1c-0.2,0.3-0.3,0.7-0.5,1
			c-0.1,0.3-0.2,0.6-0.3,0.9s-0.2,0.7-0.3,1c-0.1,0.2-0.2,0.5-0.2,0.8c-0.2,0.9-0.4,1.8-0.5,2.8c0,0.3-0.1,0.6-0.1,0.9
			c0,0.1,0,0.2,0,0.3c0,0.1,0,0.3,0,0.4c0,0.1,0,0.2,0,0.4l0,0c0,0.1,0,0.2,0,0.3c0,0.3,0,0.7,0,1s0.1,0.7,0.1,1
			c0,0.2,0.1,0.5,0.1,0.7c0,0.1,0,0.2,0.1,0.3c0.2,0.8,0.4,1.5,0.6,2.2C211.1,730.5,212.3,732.6,213.9,734.4z"/>
		<path class="st34" d="M256.4,691.9l-0.3,0.2l-17,17l-0.1,0.1c-2.9-2.6-6.5-4.1-10.2-4.4c-0.9-0.1-1.7-0.1-2.6-0.1
			c-0.2,0-0.5,0-0.8,0s-0.5,0.1-0.8,0.1c-1.6,0.2-3.3,0.7-4.8,1.4c-0.3,0.1-0.5,0.2-0.8,0.4c-0.2,0.1-0.5,0.3-0.8,0.4
			c-0.1,0.1-0.2,0.1-0.4,0.2c-0.1,0.1-0.2,0.2-0.4,0.2c-0.5,0.3-1,0.6-1.4,1l40-40c-0.1,0.1-0.2,0.3-0.3,0.4
			c-0.1,0.1-0.2,0.3-0.3,0.4c-0.1,0.1-0.2,0.2-0.3,0.4c-0.1,0.2-0.2,0.3-0.3,0.5c-0.2,0.3-0.3,0.5-0.5,0.8c0,0.1-0.1,0.2-0.2,0.2
			c-0.1,0.3-0.3,0.5-0.4,0.8c-0.1,0.2-0.2,0.4-0.3,0.5c-0.1,0.2-0.2,0.3-0.2,0.5c-0.1,0.2-0.1,0.4-0.2,0.5c-0.3,0.9-0.6,1.8-0.8,2.7
			c-0.1,0.3-0.1,0.7-0.2,1c0,0.1,0,0.2-0.1,0.4c0,0.2-0.1,0.5-0.1,0.8c0,0.2,0,0.5-0.1,0.7c0,0.2,0,0.4,0,0.6c0,0.2,0,0.3,0,0.5
			c0,0.2,0,0.5,0,0.7c0,0.1,0,0.3,0,0.4c0,0.3,0,0.6,0.1,0.9v0.1c0.1,0.4,0.1,0.8,0.2,1.2c0.1,0.5,0.2,0.9,0.3,1.4
			c0.1,0.3,0.2,0.7,0.3,1C253.7,688,254.8,690.1,256.4,691.9z"/>
		<path class="st34" d="M328.5,619.5l-46.8,46.8l-0.3,0.3c-2.9-2.5-6.4-4-10-4.3c-0.4,0-0.8-0.1-1.1-0.1c-0.5,0-1,0-1.5,0
			c-0.2,0-0.5,0-0.7,0.1c-0.2,0-0.5,0-0.7,0.1c-0.6,0.1-1.3,0.2-1.9,0.4c-0.2,0-0.5,0.1-0.7,0.2c-0.3,0.1-0.5,0.2-0.8,0.2h-0.1
			c-0.1,0-0.2,0.1-0.3,0.1c-0.3,0.1-0.5,0.2-0.8,0.3c-0.3,0.1-0.5,0.2-0.8,0.4c-0.2,0.1-0.4,0.2-0.6,0.3c-0.2,0.1-0.4,0.2-0.6,0.3
			c-0.4,0.2-0.8,0.5-1.2,0.7c-0.2,0.1-0.4,0.3-0.5,0.4c-0.1,0.1-0.2,0.1-0.3,0.2c-0.2,0.2-0.4,0.3-0.6,0.5l58.7-58.7L328.5,619.5z"
			/>
		
			<rect x="327" y="588.7" transform="matrix(0.7071 -0.7071 0.7071 0.7071 -322.7546 414.7556)" class="st34" width="24.5" height="16.6"/>
		
			<rect x="354.1" y="567.4" transform="matrix(0.7071 -0.7071 0.7071 0.7071 -301.5632 423.642)" class="st34" width="12.9" height="16.8"/>
		<path class="st0" d="M217.6,707.4c-0.5,0.3-0.9,0.6-1.4,1C216.7,708.1,217.1,707.7,217.6,707.4z"/>
		
			<rect x="133.9" y="797.9" transform="matrix(0.7071 -0.7071 0.7071 0.7071 -537.6505 333.7347)" class="st0" width="0.2" height="35.9"/>
		<path class="st35" d="M394.8,593c-1.1,1.1-2.5,1.7-4,1.7c-1.4,0-2.9-0.6-4-1.7l-29.9-29.9c-2.2-2.2-2.2-5.8,0-8
			c1.1-1.1,2.6-1.7,4-1.7s2.9,0.5,4,1.7l29.9,29.9C397,587.2,397,590.8,394.8,593z"/>
		<path class="st35" d="M378.1,610.4c-1.1,1.1-2.6,1.7-4,1.7c-1.5,0-2.9-0.6-4-1.7l-29.9-29.9c-2.2-2.2-2.2-5.8,0-8
			c1.1-1.1,2.5-1.7,4-1.7c1.4,0,2.9,0.6,4,1.7l29.9,29.9C380.3,604.6,380.3,608.2,378.1,610.4z"/>
		<path class="st35" d="M352.3,635.3c-1.1,1.1-2.5,1.7-4,1.7c-1.4,0-2.9-0.5-4-1.6l-29.9-29.9c-2.2-2.2-2.2-5.8,0-8
			c1.1-1.1,2.5-1.7,4-1.7s2.9,0.6,4,1.7l29.9,29.9C354.5,629.5,354.5,633.1,352.3,635.3z"/>
		<path class="st0" d="M258.2,666.5l-2,2c0.3-0.4,0.6-0.7,1-1c0.2-0.2,0.5-0.4,0.7-0.6C257.9,666.7,258,666.6,258.2,666.5z"/>
		<path class="st36" d="M267.2,680.7c-3.9,3.9-9.2,5.6-14.3,5.1c-0.1-0.3-0.2-0.6-0.3-1c-0.1-0.5-0.2-0.9-0.3-1.4
			c-0.1-0.4-0.1-0.8-0.2-1.2v-0.1c0-0.3-0.1-0.6-0.1-0.9c0-0.1,0-0.3,0-0.4c0-0.2,0-0.5,0-0.7c0-0.2,0-0.3,0-0.5c0-0.2,0-0.4,0-0.6
			s0-0.5,0.1-0.7c0-0.3,0-0.5,0.1-0.8c0-0.1,0-0.3,0.1-0.4c0-0.3,0.1-0.7,0.2-1c0.2-0.9,0.5-1.8,0.8-2.7c0.1-0.2,0.1-0.3,0.2-0.5
			c0.1-0.2,0.2-0.4,0.2-0.5c0.1-0.2,0.2-0.4,0.3-0.5c0.1-0.3,0.3-0.5,0.4-0.8c0-0.1,0.1-0.2,0.2-0.2c0.2-0.3,0.3-0.5,0.5-0.8
			c0.1-0.2,0.2-0.3,0.3-0.5c0.1-0.1,0.2-0.2,0.3-0.4c0.1-0.1,0.2-0.3,0.3-0.4c0.1-0.1,0.2-0.3,0.3-0.4l0,0l2-2
			c0.2-0.2,0.4-0.3,0.6-0.5c0.1-0.1,0.2-0.2,0.3-0.2c0.2-0.1,0.4-0.3,0.5-0.4c0.4-0.3,0.8-0.5,1.2-0.7c0.2-0.1,0.4-0.2,0.6-0.3
			c0.2-0.1,0.4-0.2,0.6-0.3c0.2-0.1,0.5-0.2,0.8-0.4c0.3-0.1,0.5-0.2,0.8-0.3c0.1,0,0.2-0.1,0.3-0.1h0.1c0.3-0.1,0.5-0.2,0.8-0.2
			c0.2-0.1,0.5-0.1,0.7-0.2c0.6-0.2,1.3-0.3,1.9-0.4c0.2,0,0.5-0.1,0.7-0.1c0.2,0,0.5,0,0.7-0.1c0.5,0,1,0,1.5,0
			c0.4,0,0.8,0,1.1,0.1C273.6,668.5,272.2,675.7,267.2,680.7z"/>
		<path class="st0" d="M258.2,666.5l-2,2c0.3-0.4,0.6-0.7,1-1c0.2-0.2,0.5-0.4,0.7-0.6C257.9,666.7,258,666.6,258.2,666.5z"/>
		<path class="st37" d="M239.8,735.1c-7,7-18.3,7-25.2,0c-0.2-0.2-0.5-0.5-0.7-0.8c-1.6-1.8-2.8-3.9-3.6-6.1
			c5.1,0.5,10.4-1.2,14.3-5.2c5-5,6.4-12.2,4.3-18.4c3.7,0.3,7.3,1.8,10.2,4.4c0.3,0.2,0.5,0.5,0.7,0.7
			C246.8,716.9,246.8,728.2,239.8,735.1z"/>
		<path class="st0" d="M216.2,708.4l-3.1,3.1c0.2-0.3,0.4-0.6,0.7-0.8c0.1-0.1,0.2-0.3,0.4-0.4c0.1-0.1,0.2-0.3,0.4-0.4
			c0.2-0.2,0.4-0.4,0.6-0.5c0.1-0.1,0.2-0.1,0.2-0.2C215.7,708.9,215.9,708.7,216.2,708.4z"/>
		<path class="st36" d="M224.6,723.2c-3.9,3.9-9.2,5.6-14.3,5.2c-0.2-0.7-0.4-1.5-0.6-2.2c0-0.1,0-0.2-0.1-0.3
			c0-0.2-0.1-0.5-0.1-0.7c0-0.3-0.1-0.7-0.1-1c0-0.3,0-0.7,0-1c0-0.1,0-0.2,0-0.3l0,0c0-0.1,0-0.2,0-0.4c0-0.1,0-0.2,0-0.4
			c0-0.1,0-0.2,0-0.3c0-0.3,0-0.6,0.1-0.9c0.1-0.9,0.2-1.9,0.5-2.8c0.1-0.3,0.1-0.5,0.2-0.8c0.1-0.3,0.2-0.7,0.3-1s0.2-0.6,0.3-0.9
			c0.1-0.3,0.3-0.7,0.5-1c0.2-0.3,0.3-0.6,0.5-1l0,0c0.2-0.3,0.4-0.6,0.6-1c0,0,0-0.1,0.1-0.1c0.2-0.3,0.4-0.6,0.6-0.8l3.1-3.1
			c0.5-0.4,0.9-0.7,1.4-1c0.1-0.1,0.2-0.2,0.4-0.2c0.1-0.1,0.2-0.2,0.4-0.2c0.2-0.1,0.5-0.3,0.8-0.4c0.2-0.1,0.5-0.2,0.8-0.4
			c1.5-0.7,3.2-1.2,4.8-1.4c0.3,0,0.5-0.1,0.8-0.1c0.2,0,0.5,0,0.8,0c0.8,0,1.7,0,2.6,0.1C231,711,229.6,718.2,224.6,723.2z"/>
		<path class="st0" d="M216.2,708.4l-3.1,3.1c0.2-0.3,0.4-0.6,0.7-0.8c0.1-0.1,0.2-0.3,0.4-0.4c0.1-0.1,0.2-0.3,0.4-0.4
			c0.2-0.2,0.4-0.4,0.6-0.5c0.1-0.1,0.2-0.1,0.2-0.2C215.7,708.9,215.9,708.7,216.2,708.4z"/>
		<path class="st0" d="M217.6,707.4c-0.5,0.3-0.9,0.6-1.4,1C216.7,708.1,217.1,707.7,217.6,707.4z"/>
		<path class="st37" d="M197.3,777.5c-7,7-18.3,7-25.2,0c-0.2-0.2-0.5-0.5-0.7-0.7c-1.6-1.8-2.8-3.9-3.6-6.1
			c5.1,0.5,10.4-1.2,14.3-5.2c5-5,6.4-12.2,4.3-18.4c3.7,0.3,7.4,1.8,10.3,4.5c0.2,0.2,0.4,0.4,0.7,0.6
			C204.3,759.2,204.3,770.5,197.3,777.5z"/>
		<path class="st0" d="M174.4,750.3l-4.2,4.2c0.4-0.6,0.9-1.2,1.4-1.7c0.1-0.1,0.2-0.2,0.3-0.3c0.1-0.1,0.2-0.2,0.3-0.3
			c0.2-0.2,0.4-0.4,0.7-0.6c0.1-0.1,0.1-0.1,0.2-0.2c0.2-0.2,0.4-0.4,0.7-0.6C173.9,750.7,174.1,750.5,174.4,750.3z"/>
		<path class="st36" d="M182.1,765.5c-3.9,3.9-9.2,5.6-14.3,5.2c-0.1-0.4-0.3-0.8-0.4-1.2c-0.4-1.6-0.6-3.2-0.6-4.9
			c0-0.4,0-0.8,0.1-1.2l0,0c0-0.4,0.1-0.8,0.1-1.2c0-0.1,0-0.2,0.1-0.3c0-0.3,0.1-0.5,0.1-0.8c0.1-0.4,0.2-0.8,0.3-1.2
			c0.1-0.2,0.1-0.5,0.2-0.7c0.3-1,0.8-2,1.3-3c0.1-0.2,0.2-0.4,0.4-0.7c0.1-0.1,0.1-0.2,0.2-0.3c0.1-0.2,0.3-0.5,0.5-0.7l0,0l0,0
			l4.2-4.2c0.1-0.1,0.2-0.1,0.3-0.2c0.2-0.2,0.4-0.3,0.6-0.4c0.2-0.1,0.4-0.2,0.6-0.4c0.2-0.1,0.4-0.2,0.6-0.3
			c0.2-0.1,0.5-0.2,0.7-0.3c0.3-0.1,0.6-0.2,0.9-0.4c0.6-0.2,1.1-0.4,1.7-0.6c0.3-0.1,0.6-0.2,0.9-0.2c0.3-0.1,0.6-0.1,0.9-0.2
			c0.3-0.1,0.6-0.1,1-0.1c1.3-0.2,2.5-0.2,3.8,0C188.5,753.3,187.1,760.5,182.1,765.5z"/>
		<path class="st0" d="M174.4,750.3l-4.2,4.2c0.4-0.6,0.9-1.2,1.4-1.7c0.1-0.1,0.2-0.2,0.3-0.3c0.1-0.1,0.2-0.2,0.3-0.3
			c0.2-0.2,0.4-0.4,0.7-0.6c0.1-0.1,0.1-0.1,0.2-0.2c0.2-0.2,0.4-0.4,0.7-0.6C173.9,750.7,174.1,750.5,174.4,750.3z"/>
		<path class="st35" d="M157.2,830.8c-1.1,1.1-2.6,1.7-4,1.7c-1.4,0-2.9-0.5-4-1.6L119.3,801c-2.2-2.2-2.2-5.8,0-8
			c1.1-1.1,2.5-1.7,4-1.6c1.4,0,2.9,0.5,4,1.7l29.9,29.9C159.4,825,159.4,828.6,157.2,830.8z"/>
		<path class="st38" d="M114.9,906.2c-2.3,2.3-5.3,3.4-8.2,3.4c-3,0-6-1.1-8.2-3.4l-55.6-55.5c-4.5-4.5-4.5-11.9,0-16.5
			c2.3-2.3,5.3-3.4,8.2-3.4c3,0,6,1.1,8.2,3.4l55.5,55.5C119.4,894.3,119.4,901.7,114.9,906.2z"/>
		<path class="st36" d="M323.8,693.8L308,709.6l-7.5-7.5l9.4-9.4c10.5-10.5,11.4-11.8,3.2-20.1l-5.1-5.1l7.7-7.7l8.1,8.1
			C331,675,331,686.6,323.8,693.8z"/>
		<path class="st36" d="M256.9,760.7l-34.1,34.1l-7.5-7.5l34.1-34.1l7.4,7.4C256.8,760.6,256.9,760.6,256.9,760.7z"/>
		<path class="st36" d="M214.5,803.1L198,819.6c-7.2,7.2-18.9,7.2-26,0l-8-8l7.7-7.7l5,5c7.8,7.8,11.1,5.9,20.2-3.2l10.1-10.1
			L214.5,803.1z"/>
		<path class="st36" d="M299.7,717.9l-34.5,34.5l-0.1-0.1l-7.4-7.4l34.5-34.5L299.7,717.9z"/>
		<path class="st37" d="M282.4,692.7c-7,7-18.3,7-25.2,0c-0.2-0.3-0.5-0.5-0.7-0.8c-1.6-1.8-2.8-3.9-3.5-6
			c5.1,0.5,10.4-1.2,14.3-5.1c5-5,6.4-12.2,4.2-18.4c3.6,0.3,7.1,1.8,10,4.3c0.3,0.3,0.6,0.5,0.9,0.8
			C289.4,674.4,289.4,685.7,282.4,692.7z"/>
		<path class="st0" d="M207,795.6l-10.1,10.1c-9.1,9.1-12.4,11-20.2,3.2l-5-5l21.8-21.8L207,795.6z"/>
		<path class="st35" d="M222.8,803.1L222.8,803.1c-2.3,2.3-6,2.3-8.3,0L193.4,782l8.3-8.3l21.1,21.1
			C225.1,797.1,225.1,800.8,222.8,803.1z"/>
		
			<rect x="201.5" y="753.8" transform="matrix(0.7071 -0.7071 0.7071 0.7071 -473.7536 383.1125)" class="st0" width="48.2" height="19.2"/>
		<path class="st35" d="M265.1,760.5L265.1,760.5c-2.3,2.3-5.9,2.3-8.2,0.1l-0.1-0.1l-20.9-20.9l8.3-8.3l20.9,20.9l0.1,0.1
			C267.4,754.6,267.4,758.3,265.1,760.5z"/>
		<path class="st0" d="M309.9,692.7l-9.4,9.4L287,688.6l21-21l5.1,5.1C321.3,680.8,320.4,682.2,309.9,692.7z"/>
		
			<rect x="243.8" y="711.3" transform="matrix(0.7071 -0.7071 0.7071 0.7071 -431.1893 400.7608)" class="st0" width="48.7" height="19.2"/>
		<path class="st35" d="M308,717.8L308,717.8c-2.3,2.3-6,2.3-8.3,0l-21.1-21.1l8.3-8.3l21.1,21.1C310.3,711.9,310.3,715.6,308,717.8
			z"/>
		<line class="st0" x1="379.5" y1="545.3" x2="379" y2="545.6"/>
		<path class="st39" d="M412.8,557.9L412.8,557.9c-5.8,5-14.6,4.7-20.1-0.8c-1.2-1.2-2.1-2.5-2.8-3.9c-2.6-5.2-1.9-11.7,2.1-16.3
			l16.7-10.6l0.1-0.1l14.8,14.8l0,0l-10.7,16.8L412.8,557.9z"/>
		<path class="st34" d="M379.2,569l-0.2,0.2l-11.8-11.8l8.4-8.4l0,0l3.8-3.8l12.5-8.3l0,0c-4,4.6-4.7,11.1-2.1,16.3h-0.1
			c0,0-1.7,3.6-3.5,6.5c-0.1,0.2-0.3,0.4-0.4,0.7C383.9,563.3,379.2,569,379.2,569z"/>
		<path class="st33" d="M403.1,572.5l-1.8,1.8l-0.3,0.2l-8.4,8.4L379,569.2l0.2-0.2c0,0,4.7-5.6,6.6-8.5c0.1-0.2,0.3-0.4,0.4-0.7
			c1.8-2.8,3.5-6.5,3.5-6.5h0.1c0.7,1.4,1.6,2.7,2.8,3.9c5.5,5.5,14.3,5.8,20.1,0.8L403.1,572.5L403.1,572.5z"/>
		<path class="st34" d="M96.5,870.6l-0.4,0.4l-33.3-33.3l0.4-0.4c2.2,0.3,25.5-10.5,34-14.8s24.2-19.1,24.2-19.1l11.9,11.8
			c-2.2,2.4-15.6,16.6-21,23.4C106.2,846.4,100.1,855.9,96.5,870.6z"/>
		<path class="st33" d="M112.9,887l-0.4,0.4L96.1,871l0.4-0.4c3.6-14.6,9.7-24.2,15.8-31.9c5.4-6.8,18.8-21.1,21-23.4l13.5,13.5v0.1
			c0,0-14.8,15.8-19.1,24.2C123.3,861.5,112.6,884.8,112.9,887z"/>
		<path class="st0" d="M133.3,815.2c0.1-0.1,0.1-0.1,0.2-0.2c0.1-0.1,0.1-0.2,0.1-0.2"/>
	</g>
</g>
<g id="Bass_Guitar_00000143617727902751528730000011436605449849126291_">
	<g id="Bass_Guitar">
		<path class="st40" d="M1664.5,201.4c-1-4.7-20.3-8-37.1-1c-17.1,7.1-25,19-33.7,33.7c-13.3,22.4-13.3,31.3-22.7,40.3
			c-13.3,12.9-43.3,13.7-51.6,17.9c-10,5.1-14.7,6.7-20.6,22.2c-11.5,30.3,2.2,65.7,23,86.1c8.4,8.2,18,16.2,28.5,22.1l0.1-0.1
			c8-4.1,16.2-8.5,22.9-14.5c6.8-6,12.3-13.9,14.1-22.8c1.8-8.9-0.5-18.9-7.1-25.2c-6.8-6.5-17.4-8.4-23.5-15.4
			c-6.4-7.3-6.4-18.7-2.2-27.4c4.3-8.7,12.2-15.1,20.7-20c8.4-4.9,17.4-8.6,25.7-13.6c14.1-8.5,25.8-20.8,33.6-35.3
			c-1.2-7-1.2-14.9,2.4-22.3C1644.9,209.5,1665.6,206.5,1664.5,201.4z M1553.6,371.6c7.1,7.1,8.8,16.9,3.7,21.9s-14.9,3.4-21.9-3.7
			s-8.8-16.9-3.7-21.9C1536.8,362.9,1546.6,364.6,1553.6,371.6z M1611,257.6c-5.8,0-10.4-4.2-10.4-9.4c0-5.2,4.7-9.4,10.4-9.4
			c5.7,0,10.4,4.2,10.4,9.4C1621.4,253.4,1616.8,257.6,1611,257.6z"/>
		<path class="st41" d="M1712.8,279c-2.7-1.6-7.5,11.5-29.4,15.5c-12.8,2.3-23.8-6.7-27.8-10.9c-0.5-0.7-1-1.4-1.5-2.1
			c-2,2.1-3.9,4-5.7,5.8c-7.1,7.2-11.6,11.7-12,11.9c-1.8,0.7-18.6-11.9-17.8-14.9c0.2-0.7,5.1-6.2,12.5-14.4c2.3-2.6,5-5.5,7.8-8.5
			c-0.5-0.7-1-1.4-1.5-2.1c-1.1-3.1-2.3-6.8-3-10.8c-7.8,14.5-19.5,26.8-33.6,35.3c-8.3,5-17.4,8.7-25.7,13.6
			c-8.4,4.9-16.3,11.3-20.7,20c-4.3,8.7-4.3,20.1,2.2,27.4c6.2,7.1,16.7,8.9,23.5,15.4c6.6,6.3,8.9,16.2,7.1,25.2
			c-1.8,8.9-7.3,16.7-14.1,22.8c-6.8,6-14.9,10.5-23,14.5l-0.1,0.1c20.6,11.7,44.5,15.8,68.8-1.5c31.8-22.7,15-44.1,32.1-76.4
			c12.5-23.8,35.4-15.6,50.5-32.3C1716.9,295.4,1715.8,280.7,1712.8,279z M1598.9,413.3c-4.9,0-8.8-3.8-8.8-8.4
			c0-4.7,3.9-8.5,8.8-8.5c4.9,0,8.8,3.8,8.8,8.5C1607.7,409.5,1603.8,413.3,1598.9,413.3z M1615.4,387.6c-4.9,0-8.8-3.8-8.8-8.4
			s3.9-8.5,8.8-8.5s8.8,3.8,8.8,8.5C1624.3,383.8,1620.3,387.6,1615.4,387.6z"/>
		<path class="st42" d="M1630.2,253.6"/>
		<path class="st42" d="M1634.6,248.3C1634.6,248.3,1634.6,248.3,1634.6,248.3"/>
		<line class="st42" x1="1572.8" y1="328.3" x2="1596.2" y2="347.2"/>
		<line class="st42" x1="1586.6" y1="311.4" x2="1610.3" y2="332.7"/>
		<line class="st42" x1="1600.5" y1="295.9" x2="1625.8" y2="319.8"/>
		<path class="st41" d="M1621.5,248.2c0,5.1-4.7,9.4-10.4,9.4c-5.8,0-10.4-4.2-10.4-9.4c0-5.2,4.7-9.4,10.4-9.4
			C1616.8,238.9,1621.5,243,1621.5,248.2z"/>
		<path class="st43" d="M1557.3,393.6c-5.1,5.1-14.9,3.4-21.9-3.7s-8.8-16.9-3.7-21.9s14.9-3.4,21.9,3.7
			C1560.7,378.7,1562.4,388.6,1557.3,393.6z"/>
		<path class="st40" d="M1624.3,379.1c0,4.7-3.9,8.4-8.8,8.4s-8.8-3.8-8.8-8.4c0-4.7,3.9-8.5,8.8-8.5
			C1620.3,370.7,1624.3,374.4,1624.3,379.1z"/>
		<path class="st40" d="M1607.7,404.7c0,4.7-3.9,8.4-8.8,8.4c-4.9,0-8.8-3.8-8.8-8.4s3.9-8.5,8.8-8.5
			C1603.8,396.3,1607.7,400.1,1607.7,404.7z"/>
		<path class="st40" d="M1878,71.5c-6.8,3.9-13.9,2.7-16.1,2.2c-9.3,13.9-18.7,27.8-28,41.7c-1.9-2.8-3.9-5.5-5.9-8
			c-4.3-5.7-8.6-11.1-12.9-16.9c-1.4-1.9-2.8-3.9-4.3-5.9c-1.8-4.3,2.6-7.1,4-9.3c1.2-0.8,2.4-1.5,3.7-2.3c3.5-2.3,7.2-4.5,10.7-6.8
			c3-1.8,5.9-3.7,8.8-5.5c3.1-2,6.3-3.9,9.4-5.9c3.4-2.1,6.8-4.3,10-6.3c0.6-0.4,1.1-0.7,1.7-1.1c1.4-0.8,4.1-2.2,7.6-2.7
			c1.6-0.2,3.3-0.4,5.2-0.2c5,0.4,14.5,3,16.3,10.1C1890.2,61.7,1883.1,68.6,1878,71.5z"/>
		<line class="st42" x1="1825.8" y1="82.1" x2="1834.4" y2="76.8"/>
		<line class="st42" x1="1840.2" y1="71.9" x2="1848.6" y2="66"/>
		<line class="st42" x1="1859.6" y1="59.9" x2="1868.3" y2="54.4"/>
		<path class="st43" d="M1829.3,66.2c-3.5,2.3-7.2,4.5-10.7,6.8l0,0c-3-3.4-5.9-6.8-8.8-10.1c-1.5-3.1-0.8-6.8,1.8-8.9
			c2.7-2.4,7-2.4,10-0.1C1824.1,58,1826.7,62.1,1829.3,66.2L1829.3,66.2z"/>
		<path class="st43" d="M1847.5,54.7c-3.1,2-6.3,4-9.4,5.9l-0.1-0.2c-3.4-4-6.8-8.1-10.2-12.1c-1.8-3.6-2.1-7.2,0.8-9.7
			c3.1-2.8,7.2-1.4,10.6,1.3c3,4.8,5.2,9.8,8.2,14.6L1847.5,54.7z"/>
		<path class="st43" d="M1866.9,44.5c-3.5,0.6-6.2,1.9-7.6,2.7c-0.6,0.4-1.1,0.7-1.7,1.1v-0.1c-2.6-3.9-5.1-7.9-7.7-11.7
			c-1.1-3.3-1-6.4,2-8.2c3.2-1.9,6.8-0.2,9.6,2.6C1863.4,35.5,1864.8,40,1866.9,44.5z"/>
		<line class="st42" x1="1866.9" y1="44.5" x2="1866.9" y2="44.5"/>
		<path class="st43" d="M1660.9,274.4c-2.4,2.5-4.7,4.8-6.9,7.1c-2,2.1-3.9,4-5.7,5.8l-17.2-17.4c2.3-2.6,5-5.5,7.8-8.5
			c1.5-1.7,3.1-3.4,4.8-5.2l0.2,0.2L1660.9,274.4z"/>
		<path class="st43" d="M1648.4,287.2c-7.1,7.2-11.6,11.7-12,11.9c-1.8,0.7-18.6-11.9-17.8-14.9c0.2-0.7,5.1-6.2,12.5-14.4
			L1648.4,287.2z"/>
		<path class="st43" d="M1675.5,259.5c-5.1,5.2-10,10.3-14.5,14.9l-17-18.2l-0.2-0.2c4.2-4.5,8.7-9.3,13.3-14.2l0.2,0.2
			L1675.5,259.5z"/>
		<path class="st43" d="M1692.6,241.8c-5.7,5.9-11.5,11.9-17.1,17.6l-18.2-17.5l-0.2-0.2c5.7-6.1,11.7-12.5,17.6-18.7l0.2,0.2
			L1692.6,241.8z"/>
		<path class="st43" d="M1707.2,226.7c-4.7,4.8-9.6,10-14.6,15.1l-17.7-18.6l-0.2-0.2c5-5.2,9.8-10.4,14.5-15.3l0.1,0.1
			L1707.2,226.7z"/>
		<path class="st43" d="M1725.1,208.2c-5.1,5.3-11.3,11.7-17.8,18.5l-17.9-18.9l-0.1-0.1c6.4-6.8,12.5-13.1,17.6-18.5l0.1,0.1
			L1725.1,208.2z"/>
		<path class="st43" d="M1740.2,192.7c-0.5,0.5-0.8,0.8-1.1,1.1c-1.8,1.8-6.9,7.2-14,14.5l-18.2-18.8l-0.1-0.1
			c5.4-5.6,9.8-10.1,12.6-13c0.9-1,1.9-1.9,3.1-3.1l0.2,0.2L1740.2,192.7z"/>
		<path class="st43" d="M1755.5,177.6c-7,6.8-12.5,12.2-15.3,15l-17.4-19.3l-0.2-0.2c4-3.9,9.6-9.1,16.1-14.9l0.2,0.3L1755.5,177.6z
			"/>
		<path class="st43" d="M1773.4,160.3c-6.4,6.2-12.5,12.1-17.8,17.3l-16.6-19l-0.2-0.3c5.7-5.2,12.1-10.9,18.6-16.8l0.1,0.2
			l15.8,18.6L1773.4,160.3z"/>
		<path class="st43" d="M1789.9,144.3c-5.5,5.3-11.1,10.8-16.6,16.1l-0.2-0.2l-15.8-18.6l-0.1-0.2c5.5-4.9,11.1-9.9,16.6-14.7
			l0.2,0.2L1789.9,144.3z"/>
		<path class="st43" d="M1809,125.9c-5.7,5.5-12.2,11.9-19,18.4l-15.9-17.4l-0.2-0.2c7.1-6.3,13.9-12.3,19.9-17.6l0.1,0.1l14.7,16.3
			L1809,125.9z"/>
		<path class="st43" d="M1828,107.4l-0.2,0.2c0,0-7.9,7.6-18.9,18.3l-0.3-0.3l-14.6-16.3l-0.1-0.1c12.4-10.8,21.1-18.5,21.1-18.5
			l0.2-0.1C1819.5,96.4,1823.7,101.7,1828,107.4z"/>
		<line class="st42" x1="1648.4" y1="287.2" x2="1648.4" y2="287.2"/>
		<line class="st42" x1="1661.1" y1="274.5" x2="1660.9" y2="274.4"/>
		<line class="st42" x1="1675.8" y1="259.8" x2="1675.5" y2="259.5"/>
		<line class="st42" x1="1692.7" y1="241.9" x2="1692.6" y2="241.8"/>
		<line class="st42" x1="1707.4" y1="226.8" x2="1707.2" y2="226.7"/>
		<line class="st42" x1="1725.4" y1="208.6" x2="1725.1" y2="208.2"/>
		<line class="st42" x1="1740.3" y1="192.7" x2="1740.2" y2="192.7"/>
		<line class="st42" x1="1755.6" y1="177.7" x2="1755.5" y2="177.6"/>
		<line class="st42" x1="1789.9" y1="144.3" x2="1789.9" y2="144.3"/>
	</g>
</g>
<g id="Trumpet_00000177445663705058300370000004845850383874782380_">
	<g id="Trumpet">
		<polygon class="st0" points="1558.1,768.5 1558.1,768.5 1541.7,784.9 1541.7,784.9 		"/>
		
			<rect x="1637.7" y="677.1" transform="matrix(0.7071 -0.7071 0.7071 0.7071 4.3092 1364.665)" class="st0" width="23.6" height="0.1"/>
		<path class="st44" d="M1524.7,868.1l-16,15.8l0,0l-25.6-25.6c-3.9-3.9-3.9-10.3,0-14.2l1.7-1.7c3.9-3.9,10.3-3.9,14.2,0l9.5,9.5
			L1524.7,868.1z"/>
		<path class="st45" d="M1551.1,908.7l-1.7,1.7c-3.9,3.9-10.3,3.9-14.2,0l-26.4-26.4l0,0l16-15.8l26.4,26.4
			C1555,898.4,1555,904.8,1551.1,908.7z"/>
		<polygon class="st44" points="1575.6,785.9 1563.1,798.4 1559.1,802.4 1558.6,801.9 1558.6,801.9 1542.5,785.8 1542.3,785.6 
			1558.8,769.1 1559,769.3 1570.1,780.4 		"/>
		<polygon class="st0" points="1558.1,768.5 1541.7,784.9 1541.7,784.9 1558.1,768.5 		"/>
		<polygon class="st0" points="1607.8,753 1591.4,769.3 1591.4,769.3 1607.7,752.9 		"/>
		<polygon class="st0" points="1673.4,687.5 1658.4,702.5 1658.4,702.4 		"/>
		<path class="st46" d="M1829.3,565.8l-32.1,31.8c-28.2-28.3-48.1-56.6-51.5-72.1c0,0,0,0,0-0.1c-0.1-0.8-0.3-1.6-0.4-2.3v0
			c0,0,0,0,0,0c0,0,0,0,0,0c-0.4-3.3,0.2-5.9,1.8-7.5C1755.9,506.6,1792.7,529.2,1829.3,565.8z"/>
		<path class="st0" d="M1745.3,523.1c0.1,0.8,0.3,1.6,0.4,2.3C1745.5,524.6,1745.4,523.8,1745.3,523.1z"/>
		<path class="st47" d="M1879.6,648c-0.7,0.7-1.5,1.1-2.4,1.4c-0.1,0-0.2,0.1-0.4,0.1c-0.1,0-0.2,0.1-0.4,0.1
			c-12.5,2.9-45.9-18.7-79.1-51.9c0,0-0.1-0.1-0.1-0.1l32.1-31.8C1865.9,602.4,1888.4,639.2,1879.6,648z"/>
		<polygon class="st44" points="1642.1,719.7 1636.7,725.1 1632.3,729.6 1625.7,736.2 1625.6,736.2 1608.7,719.4 1625.3,702.9 
			1625.3,702.9 1631.4,709 1641.6,719.2 		"/>
		<polygon class="st0" points="1631.7,729 1625,735.7 1625,735.7 1625.1,735.6 		"/>
		<polygon class="st0" points="1607.8,753 1591.4,769.3 1591.4,769.3 1607.7,752.9 		"/>
		<polygon class="st0" points="1673.4,687.5 1658.4,702.5 1658.4,702.4 		"/>
		<polygon class="st45" points="1674.3,818.2 1658.2,834.4 1625.4,801.5 1641.5,785.4 1674.3,818.2 		"/>
		
			<rect x="1671.1" y="753.8" transform="matrix(0.7071 -0.7071 0.7071 0.7071 -56.5642 1417.4386)" class="st45" width="23.2" height="46.4"/>
		<polygon class="st44" points="1608.3,753.3 1591.7,769.8 1591.2,769.4 1581.2,759.3 1575.1,753.2 1574.8,753 1591.4,736.4 		"/>
		<polygon class="st44" points="1675.3,686.3 1675.3,686.4 1674.5,687.1 1674.5,687.1 1673.9,687.7 1673.9,687.7 1658.8,702.8 
			1658.6,703 1641.7,686 1658.4,669.4 		"/>
		
			<rect x="1637.7" y="677.1" transform="matrix(0.7071 -0.7071 0.7071 0.7071 4.3092 1364.665)" class="st0" width="23.6" height="0.1"/>
		<path class="st46" d="M1711.9,682.3l-155.2,154v0l-32,31.8l-16.2-16.2l0.2-0.2l49.8-49.7h0l3.5-3.5l13-13l16.1-16l0.1-0.1l0.1,0.1
			l16.4-16.4l0,0l0.1-0.1l17.2-17.1l0,0l6.7-6.7l0.7-0.7l0.9-0.9l1.2-1.2l1.6-1.6l5.4-5.4l16.6-16.6l0.2-0.2l0,0l15-15
			c0.4-0.1,0.7-0.2,1.1-0.3h0c0.7-0.2,1.3-0.4,2-0.6c0,0,0.1,0,0.1,0c0.7-0.2,1.3-0.4,2-0.5c0.9-0.2,1.8-0.5,2.7-0.7
			c0.4-0.1,0.9-0.2,1.3-0.3c0.5-0.1,1-0.2,1.6-0.3c0.7-0.2,1.4-0.3,2.1-0.4c1.4-0.3,2.9-0.5,4.3-0.8c0.7-0.1,1.4-0.2,2.1-0.3
			c1.9-0.3,3.9-0.5,5.8-0.6c0.8-0.1,1.5-0.1,2.3-0.2c0.8,0,1.5-0.1,2.3-0.1c0.5,0,1,0,1.5,0c0.4,0,0.8,0,1.1,0
			C1707.8,682.1,1709.9,682.2,1711.9,682.3z"/>
		<polygon class="st0" points="1631.7,729 1625,735.7 1625,735.7 1625.1,735.6 		"/>
		<path class="st44" d="M1797.2,597.6l-85.3,84.7c-12.2-0.6-25.3,1.2-38.5,5.2h0l-15,15l-0.2-0.2l15.1-15.1h0l1.4-1.3l0.2,0.2
			c11.8-11.1,26.3-26.5,40-47c11.4-17,21.8-31.9,27.9-53.9c3.3-11.8,7.4-32.9,2.9-59.6C1749.2,541,1769,569.3,1797.2,597.6z"/>
		<line class="st0" x1="1674.9" y1="686" x2="1674.8" y2="686.1"/>
		<path class="st0" d="M1745.3,523c0-0.3-0.1-0.5-0.2-0.8"/>
		<line class="st0" x1="1641.5" y1="785.4" x2="1641.3" y2="785.2"/>
		<line class="st0" x1="1658.1" y1="768.8" x2="1657.6" y2="768.3"/>
		<line class="st0" x1="1691.4" y1="802" x2="1690.9" y2="801.6"/>
		<line class="st0" x1="1708" y1="785.9" x2="1707.3" y2="785.2"/>
		<line class="st0" x1="1674.5" y1="752.4" x2="1674.5" y2="752.4"/>
		<line class="st0" x1="1658.4" y1="834.5" x2="1658.2" y2="834.4"/>
		<path class="st45" d="M1876.9,649.8l-6.7,3c0,0-49.9-0.2-59.8,1.1s-57.7,32-65.7,36.6l-0.2,0.4c-9.7-5.2-20.7-8-32.6-8.6
			l85.3-84.7c0,0,0.1,0.1,0.1,0.1c33.2,33.2,66.6,54.8,79.1,51.9c0.1,0,0.3-0.1,0.4-0.1L1876.9,649.8z"/>
		<line class="st0" x1="1877.2" y1="649.6" x2="1876.9" y2="649.8"/>
		<path class="st45" d="M1716,876.6c-2.2,2.2-5.1,3.3-8,3.3s-5.8-1.1-8-3.3l-8.3-8.3l15.9-15.9l8.3,8.3
			C1720.4,865,1720.4,872.2,1716,876.6z"/>
		<path class="st45" d="M1749.3,842.8c-2.2,2.2-5.1,3.3-8,3.3c-2.9,0-5.8-1.1-8-3.3l-8.3-8.3l15.9-15.9l8.3,8.3
			C1753.6,831.3,1753.6,838.4,1749.3,842.8z"/>
		<path class="st47" d="M1759.7,702.1c-4.5-4.5-9.6-8.3-15.2-11.2c-9.7-5.2-20.7-8-32.6-8.6l-155.2,154v0l-32,31.8l16.8,16.8
			l20.7-20.7l0.3-0.1c3.3,7.9,7.9,15,14,21.1c15.9,15.9,38.9,22,64,19.3h0c16.9-4.9,22.4-9.2,30.3-15.8c2.3-1.9,10.4-9.8,21-20.4
			c4-4,8.3-8.3,12.7-12.8c0.7-0.7,1.3-1.3,2-2c0.4-0.4,0.7-0.7,1.1-1.1c5.8-5.8,11.7-11.8,17.5-17.7c5.6-5.6,10.9-11.1,15.8-16
			c12.7-12.9,21.9-22.3,21.9-22.3s15.2-18.6,16.4-34.4c0-0.3,0-0.5,0.1-0.8C1780.9,738,1774.6,717,1759.7,702.1z M1707.3,785.2
			l-16.4,16.4l-16.6,16.6l-16.1,16.1l-17.6,17.6c-9.1,9.1-23.8,9.1-32.8,0c-9.1-9.1-9.1-23.8,0-32.8l17.6-17.6l16.1-16.1l16.6-16.6
			l16.4-16.4l18.2-18.2c9.1-9.1,23.8-9.1,32.8,0c4.5,4.5,6.8,10.5,6.8,16.4c0,5.9-2.3,11.9-6.8,16.4L1707.3,785.2z"/>
		<path class="st0" d="M1658.2,834.4l-17.6,17.6c-9.1,9.1-23.8,9.1-32.8,0c-9.1-9.1-9.1-23.8,0-32.8l17.6-17.6L1658.2,834.4z"/>
		<polygon class="st0" points="1690.9,801.6 1674.3,818.2 1674.3,818.2 1641.5,785.4 1658.1,768.8 		"/>
		<path class="st0" d="M1732.3,750.6c0,5.9-2.3,11.9-6.8,16.4l-18.2,18.2l-32.8-32.8l18.2-18.2c9.1-9.1,23.8-9.1,32.8,0
			C1730,738.8,1732.3,744.7,1732.3,750.6z"/>
		<polygon class="st0" points="1591.2,769.4 1575.2,785.4 1570.1,780.4 1559,769.3 1575.1,753.2 1581.2,759.3 		"/>
		<polygon class="st0" points="1625,735.7 1607.9,752.8 1591.6,736.6 1608.8,719.5 		"/>
		<polygon class="st0" points="1658.2,702.6 1641.6,719.2 1631.4,709 1625.3,702.9 1641.2,687 1641.2,687 1641.9,686.3 		"/>
		<path class="st46" d="M1668.2,660l-9.6,9.6l-0.7,0.7l0,0l-16.7,16.7l0,0l-15.9,15.9l-0.7,0.7l-15.8,15.8l-17.2,17.2l-0.7,0.7
			l-15.9,15.9l-16.1,16.1l-0.7,0.7l-0.1,0.1l0,0l-15.7,15.7l-0.6,0.6l0,0l-0.1,0.1l-8.5,8.5c-3.9,3.9-10.3,3.9-14.2,0l-1.7-1.7
			c-3.9-3.9-3.9-10.3,0-14.2l135-135c3.9-3.9,10.3-3.9,14.2,0l1.7,1.7C1672.2,649.7,1672.2,656.1,1668.2,660z"/>
	</g>
</g>
</svg>
