<?xml version="1.0" encoding="utf-8"?>
<!-- Generator: Adobe Illustrator 28.1.0, SVG Export Plug-In . SVG Version: 6.00 Build 0)  -->
<svg version="1.1" id="Baritone_Tuba" xmlns="http://www.w3.org/2000/svg" xmlns:xlink="http://www.w3.org/1999/xlink" x="0px"
	 y="0px" viewBox="0 0 331.1 429.3" style="enable-background:new 0 0 331.1 429.3;" xml:space="preserve">
<style type="text/css">
	.st0{fill:none;}
	.st1{fill:#FDBE13;}
	.st2{fill:#FED007;}
	.st3{fill:#FDE62A;}
	.st4{fill:#ED8223;}
	.st5{fill:#F89820;}
</style>
<path class="st0" d="M168.9,324l-8.2,8.2l-7.2-7.2l-8,8c-2.3,2.3-5.9,2.3-8.2,0c-2.3-2.3-2.3-5.9,0-8.2l8-8l-3.8-3.8l-8,8
	c-2.3,2.3-5.9,2.3-8.2,0s-2.3-5.9,0-8.2l8-8l-4-4l-8.1,8.1c-2.3,2.3-5.9,2.3-8.2,0c-2.3-2.3-2.3-5.9,0-8.2l8.1-8.1l-7.1-7.1l8.2-8.2
	l7.1,7.1l9.7-9.7c2.3-2.3,5.9-2.3,8.2,0c1.1,1.1,1.7,2.6,1.7,4.1c0,1.5-0.6,3-1.7,4.1l-9.7,9.7l4,4l9.8-9.8c2.3-2.3,5.9-2.3,8.2,0
	c1.1,1.1,1.7,2.6,1.7,4.1c0,1.5-0.6,3-1.7,4.1l-9.8,9.8l3.8,3.8l9.8-9.8c2.3-2.3,5.9-2.3,8.2,0c1.1,1.1,1.7,2.6,1.7,4.1
	c0,1.5-0.6,3-1.7,4.1l-9.8,9.8L168.9,324l11.3-11.3c12.7-12.7,12.7-33.2,0-45.8l-0.9-0.9c-12.2-12.2-31.7-12.7-44.4-1.4
	c-0.5,0.4-1,0.9-1.5,1.4l-11.3,11.3l-0.1-0.1l-8.2,8.2l0.1,0.1L102,297.4c-0.5,0.5-0.9,1-1.4,1.5c-10.6,11.9-10.8,29.8-0.8,42
	c0.3,0.4,0.7,0.8,1,1.2c0.4,0.4,0.7,0.8,1.1,1.2l0.9,0.9c12.4,12.4,32.2,12.7,44.9,0.9c0.5-0.4,0.9-0.9,1.4-1.3L168.9,324L168.9,324
	z M168.9,324l-8.2,8.2l-7.2-7.2l-8,8c-2.3,2.3-5.9,2.3-8.2,0c-2.3-2.3-2.3-5.9,0-8.2l8-8l-3.8-3.8l-8,8c-2.3,2.3-5.9,2.3-8.2,0
	s-2.3-5.9,0-8.2l8-8l-4-4l-8.1,8.1c-2.3,2.3-5.9,2.3-8.2,0c-2.3-2.3-2.3-5.9,0-8.2l8.1-8.1l-7.1-7.1l8.2-8.2l7.1,7.1l9.7-9.7
	c2.3-2.3,5.9-2.3,8.2,0c1.1,1.1,1.7,2.6,1.7,4.1c0,1.5-0.6,3-1.7,4.1l-9.7,9.7l4,4l9.8-9.8c2.3-2.3,5.9-2.3,8.2,0
	c1.1,1.1,1.7,2.6,1.7,4.1c0,1.5-0.6,3-1.7,4.1l-9.8,9.8l3.8,3.8l9.8-9.8c2.3-2.3,5.9-2.3,8.2,0c1.1,1.1,1.7,2.6,1.7,4.1
	c0,1.5-0.6,3-1.7,4.1l-9.8,9.8L168.9,324l11.3-11.3c12.7-12.7,12.7-33.2,0-45.8l-0.9-0.9c-12.2-12.2-31.7-12.7-44.4-1.4
	c-0.5,0.4-1,0.9-1.5,1.4l-11.3,11.3l-0.1-0.1l-8.2,8.2l0.1,0.1L102,297.4c-0.5,0.5-0.9,1-1.4,1.5c-10.6,11.9-10.8,29.8-0.8,42
	c0.3,0.4,0.7,0.8,1,1.2c0.4,0.4,0.7,0.8,1.1,1.2l0.9,0.9c12.4,12.4,32.2,12.7,44.9,0.9c0.5-0.4,0.9-0.9,1.4-1.3L168.9,324L168.9,324
	z M168.9,324l-8.2,8.2l-7.2-7.2l-8,8c-2.3,2.3-5.9,2.3-8.2,0c-2.3-2.3-2.3-5.9,0-8.2l8-8l-3.8-3.8l-8,8c-2.3,2.3-5.9,2.3-8.2,0
	s-2.3-5.9,0-8.2l8-8l-4-4l-8.1,8.1c-2.3,2.3-5.9,2.3-8.2,0c-2.3-2.3-2.3-5.9,0-8.2l8.1-8.1l-7.1-7.1l8.2-8.2l7.1,7.1l9.7-9.7
	c2.3-2.3,5.9-2.3,8.2,0c1.1,1.1,1.7,2.6,1.7,4.1c0,1.5-0.6,3-1.7,4.1l-9.7,9.7l4,4l9.8-9.8c2.3-2.3,5.9-2.3,8.2,0
	c1.1,1.1,1.7,2.6,1.7,4.1c0,1.5-0.6,3-1.7,4.1l-9.8,9.8l3.8,3.8l9.8-9.8c2.3-2.3,5.9-2.3,8.2,0c1.1,1.1,1.7,2.6,1.7,4.1
	c0,1.5-0.6,3-1.7,4.1l-9.8,9.8L168.9,324l11.3-11.3c12.7-12.7,12.7-33.2,0-45.8l-0.9-0.9c-12.2-12.2-31.7-12.7-44.4-1.4
	c-0.5,0.4-1,0.9-1.5,1.4l-11.3,11.3l-0.1-0.1l-8.2,8.2l0.1,0.1L102,297.4c-0.5,0.5-0.9,1-1.4,1.5c-10.6,11.9-10.8,29.8-0.8,42
	c0.3,0.4,0.7,0.8,1,1.2c0.4,0.4,0.7,0.8,1.1,1.2l0.9,0.9c12.4,12.4,32.2,12.7,44.9,0.9c0.5-0.4,0.9-0.9,1.4-1.3L168.9,324L168.9,324
	z M168.9,324l-8.2,8.2l-7.2-7.2l-8,8c-2.3,2.3-5.9,2.3-8.2,0c-2.3-2.3-2.3-5.9,0-8.2l8-8l-3.8-3.8l-8,8c-2.3,2.3-5.9,2.3-8.2,0
	s-2.3-5.9,0-8.2l8-8l-4-4l-8.1,8.1c-2.3,2.3-5.9,2.3-8.2,0c-2.3-2.3-2.3-5.9,0-8.2l8.1-8.1l-7.1-7.1l8.2-8.2l7.1,7.1l9.7-9.7
	c2.3-2.3,5.9-2.3,8.2,0c1.1,1.1,1.7,2.6,1.7,4.1c0,1.5-0.6,3-1.7,4.1l-9.7,9.7l4,4l9.8-9.8c2.3-2.3,5.9-2.3,8.2,0
	c1.1,1.1,1.7,2.6,1.7,4.1c0,1.5-0.6,3-1.7,4.1l-9.8,9.8l3.8,3.8l9.8-9.8c2.3-2.3,5.9-2.3,8.2,0c1.1,1.1,1.7,2.6,1.7,4.1
	c0,1.5-0.6,3-1.7,4.1l-9.8,9.8L168.9,324l11.3-11.3c12.7-12.7,12.7-33.2,0-45.8l-0.9-0.9c-12.2-12.2-31.7-12.7-44.4-1.4
	c-0.5,0.4-1,0.9-1.5,1.4l-11.3,11.3l-0.1-0.1l-8.2,8.2l0.1,0.1L102,297.4c-0.5,0.5-0.9,1-1.4,1.5c-10.6,11.9-10.8,29.8-0.8,42
	c0.3,0.4,0.7,0.8,1,1.2c0.4,0.4,0.7,0.8,1.1,1.2l0.9,0.9c12.4,12.4,32.2,12.7,44.9,0.9c0.5-0.4,0.9-0.9,1.4-1.3L168.9,324L168.9,324
	z M168.9,324l-8.2,8.2l-7.2-7.2l-8,8c-2.3,2.3-5.9,2.3-8.2,0c-2.3-2.3-2.3-5.9,0-8.2l8-8l-3.8-3.8l-8,8c-2.3,2.3-5.9,2.3-8.2,0
	s-2.3-5.9,0-8.2l8-8l-4-4l-8.1,8.1c-2.3,2.3-5.9,2.3-8.2,0c-2.3-2.3-2.3-5.9,0-8.2l8.1-8.1l-7.1-7.1l8.2-8.2l7.1,7.1l9.7-9.7
	c2.3-2.3,5.9-2.3,8.2,0c1.1,1.1,1.7,2.6,1.7,4.1c0,1.5-0.6,3-1.7,4.1l-9.7,9.7l4,4l9.8-9.8c2.3-2.3,5.9-2.3,8.2,0
	c1.1,1.1,1.7,2.6,1.7,4.1c0,1.5-0.6,3-1.7,4.1l-9.8,9.8l3.8,3.8l9.8-9.8c2.3-2.3,5.9-2.3,8.2,0c1.1,1.1,1.7,2.6,1.7,4.1
	c0,1.5-0.6,3-1.7,4.1l-9.8,9.8L168.9,324l11.3-11.3c12.7-12.7,12.7-33.2,0-45.8l-0.9-0.9c-12.2-12.2-31.7-12.7-44.4-1.4
	c-0.5,0.4-1,0.9-1.5,1.4l-11.3,11.3l-0.1-0.1l-8.2,8.2l0.1,0.1L102,297.4c-0.5,0.5-0.9,1-1.4,1.5c-10.6,11.9-10.8,29.8-0.8,42
	c0.3,0.4,0.7,0.8,1,1.2c0.4,0.4,0.7,0.8,1.1,1.2l0.9,0.9c12.4,12.4,32.2,12.7,44.9,0.9c0.5-0.4,0.9-0.9,1.4-1.3L168.9,324L168.9,324
	z M168.9,324l-8.2,8.2l-7.2-7.2l-8,8c-2.3,2.3-5.9,2.3-8.2,0c-2.3-2.3-2.3-5.9,0-8.2l8-8l-3.8-3.8l-8,8c-2.3,2.3-5.9,2.3-8.2,0
	s-2.3-5.9,0-8.2l8-8l-4-4l-8.1,8.1c-2.3,2.3-5.9,2.3-8.2,0c-2.3-2.3-2.3-5.9,0-8.2l8.1-8.1l-7.1-7.1l8.2-8.2l7.1,7.1l9.7-9.7
	c2.3-2.3,5.9-2.3,8.2,0c1.1,1.1,1.7,2.6,1.7,4.1c0,1.5-0.6,3-1.7,4.1l-9.7,9.7l4,4l9.8-9.8c2.3-2.3,5.9-2.3,8.2,0
	c1.1,1.1,1.7,2.6,1.7,4.1c0,1.5-0.6,3-1.7,4.1l-9.8,9.8l3.8,3.8l9.8-9.8c2.3-2.3,5.9-2.3,8.2,0c1.1,1.1,1.7,2.6,1.7,4.1
	c0,1.5-0.6,3-1.7,4.1l-9.8,9.8L168.9,324l11.3-11.3c12.7-12.7,12.7-33.2,0-45.8l-0.9-0.9c-12.2-12.2-31.7-12.7-44.4-1.4
	c-0.5,0.4-1,0.9-1.5,1.4l-11.3,11.3l-0.1-0.1l-8.2,8.2l0.1,0.1L102,297.4c-0.5,0.5-0.9,1-1.4,1.5c-10.6,11.9-10.8,29.8-0.8,42
	c0.3,0.4,0.7,0.8,1,1.2c0.4,0.4,0.7,0.8,1.1,1.2l0.9,0.9c12.4,12.4,32.2,12.7,44.9,0.9c0.5-0.4,0.9-0.9,1.4-1.3L168.9,324L168.9,324
	z M168.9,324l-8.2,8.2l-7.2-7.2l-8,8c-2.3,2.3-5.9,2.3-8.2,0c-2.3-2.3-2.3-5.9,0-8.2l8-8l-3.8-3.8l-8,8c-2.3,2.3-5.9,2.3-8.2,0
	s-2.3-5.9,0-8.2l8-8l-4-4l-8.1,8.1c-2.3,2.3-5.9,2.3-8.2,0c-2.3-2.3-2.3-5.9,0-8.2l8.1-8.1l-7.1-7.1l8.2-8.2l7.1,7.1l9.7-9.7
	c2.3-2.3,5.9-2.3,8.2,0c1.1,1.1,1.7,2.6,1.7,4.1c0,1.5-0.6,3-1.7,4.1l-9.7,9.7l4,4l9.8-9.8c2.3-2.3,5.9-2.3,8.2,0
	c1.1,1.1,1.7,2.6,1.7,4.1c0,1.5-0.6,3-1.7,4.1l-9.8,9.8l3.8,3.8l9.8-9.8c2.3-2.3,5.9-2.3,8.2,0c1.1,1.1,1.7,2.6,1.7,4.1
	c0,1.5-0.6,3-1.7,4.1l-9.8,9.8L168.9,324l11.3-11.3c12.7-12.7,12.7-33.2,0-45.8l-0.9-0.9c-12.2-12.2-31.7-12.7-44.4-1.4
	c-0.5,0.4-1,0.9-1.5,1.4l-11.3,11.3l-0.1-0.1l-8.2,8.2l0.1,0.1L102,297.4c-0.5,0.5-0.9,1-1.4,1.5c-10.6,11.9-10.8,29.8-0.8,42
	c0.3,0.4,0.7,0.8,1,1.2c0.4,0.4,0.7,0.8,1.1,1.2l0.9,0.9c12.4,12.4,32.2,12.7,44.9,0.9c0.5-0.4,0.9-0.9,1.4-1.3L168.9,324L168.9,324
	z M209.9,317.7c0.3-0.3,0.6-0.6,0.8-1L163,364.5c-22.4,18.6-55.6,17.5-76.6-3.5c-6.9-6.9-11.6-15-14.2-23.7
	c-3.3,14.6,0.8,30.6,12.2,41.9c17,17,44.1,17.7,61.9,2.1c0.7-0.7,1.5-1.3,2.2-2l15.6-15.6c1-0.9,2-1.8,2.9-2.7l40.4-40.4
	C208.2,319.6,209.1,318.7,209.9,317.7z M168.9,324l-8.2,8.2l-7.2-7.2l-8,8c-2.3,2.3-5.9,2.3-8.2,0c-2.3-2.3-2.3-5.9,0-8.2l8-8
	l-3.8-3.8l-8,8c-2.3,2.3-5.9,2.3-8.2,0s-2.3-5.9,0-8.2l8-8l-4-4l-8.1,8.1c-2.3,2.3-5.9,2.3-8.2,0c-2.3-2.3-2.3-5.9,0-8.2l8.1-8.1
	l-7.1-7.1l8.2-8.2l7.1,7.1l9.7-9.7c2.3-2.3,5.9-2.3,8.2,0c1.1,1.1,1.7,2.6,1.7,4.1c0,1.5-0.6,3-1.7,4.1l-9.7,9.7l4,4l9.8-9.8
	c2.3-2.3,5.9-2.3,8.2,0c1.1,1.1,1.7,2.6,1.7,4.1c0,1.5-0.6,3-1.7,4.1l-9.8,9.8l3.8,3.8l9.8-9.8c2.3-2.3,5.9-2.3,8.2,0
	c1.1,1.1,1.7,2.6,1.7,4.1c0,1.5-0.6,3-1.7,4.1l-9.8,9.8L168.9,324l11.3-11.3c12.7-12.7,12.7-33.2,0-45.8l-0.9-0.9
	c-12.2-12.2-31.7-12.7-44.4-1.4c-0.5,0.4-1,0.9-1.5,1.4l-11.3,11.3l-0.1-0.1l-8.2,8.2l0.1,0.1L102,297.4c-0.5,0.5-0.9,1-1.4,1.5
	c-10.6,11.9-10.8,29.8-0.8,42c0.3,0.4,0.7,0.8,1,1.2c0.4,0.4,0.7,0.8,1.1,1.2l0.9,0.9c12.4,12.4,32.2,12.7,44.9,0.9
	c0.5-0.4,0.9-0.9,1.4-1.3L168.9,324L168.9,324z M168.9,324l-8.2,8.2l-7.2-7.2l-8,8c-2.3,2.3-5.9,2.3-8.2,0c-2.3-2.3-2.3-5.9,0-8.2
	l8-8l-3.8-3.8l-8,8c-2.3,2.3-5.9,2.3-8.2,0s-2.3-5.9,0-8.2l8-8l-4-4l-8.1,8.1c-2.3,2.3-5.9,2.3-8.2,0c-2.3-2.3-2.3-5.9,0-8.2
	l8.1-8.1l-7.1-7.1l8.2-8.2l7.1,7.1l9.7-9.7c2.3-2.3,5.9-2.3,8.2,0c1.1,1.1,1.7,2.6,1.7,4.1c0,1.5-0.6,3-1.7,4.1l-9.7,9.7l4,4
	l9.8-9.8c2.3-2.3,5.9-2.3,8.2,0c1.1,1.1,1.7,2.6,1.7,4.1c0,1.5-0.6,3-1.7,4.1l-9.8,9.8l3.8,3.8l9.8-9.8c2.3-2.3,5.9-2.3,8.2,0
	c1.1,1.1,1.7,2.6,1.7,4.1c0,1.5-0.6,3-1.7,4.1l-9.8,9.8L168.9,324l11.3-11.3c12.7-12.7,12.7-33.2,0-45.8l-0.9-0.9
	c-12.2-12.2-31.7-12.7-44.4-1.4c-0.5,0.4-1,0.9-1.5,1.4l-11.3,11.3l-0.1-0.1l-8.2,8.2l0.1,0.1L102,297.4c-0.5,0.5-0.9,1-1.4,1.5
	c-10.6,11.9-10.8,29.8-0.8,42c0.3,0.4,0.7,0.8,1,1.2c0.4,0.4,0.7,0.8,1.1,1.2l0.9,0.9c12.4,12.4,32.2,12.7,44.9,0.9
	c0.5-0.4,0.9-0.9,1.4-1.3L168.9,324L168.9,324z M168.9,324l-8.2,8.2l-7.2-7.2l-8,8c-2.3,2.3-5.9,2.3-8.2,0c-2.3-2.3-2.3-5.9,0-8.2
	l8-8l-3.8-3.8l-8,8c-2.3,2.3-5.9,2.3-8.2,0s-2.3-5.9,0-8.2l8-8l-4-4l-8.1,8.1c-2.3,2.3-5.9,2.3-8.2,0c-2.3-2.3-2.3-5.9,0-8.2
	l8.1-8.1l-7.1-7.1l8.2-8.2l7.1,7.1l9.7-9.7c2.3-2.3,5.9-2.3,8.2,0c1.1,1.1,1.7,2.6,1.7,4.1c0,1.5-0.6,3-1.7,4.1l-9.7,9.7l4,4
	l9.8-9.8c2.3-2.3,5.9-2.3,8.2,0c1.1,1.1,1.7,2.6,1.7,4.1c0,1.5-0.6,3-1.7,4.1l-9.8,9.8l3.8,3.8l9.8-9.8c2.3-2.3,5.9-2.3,8.2,0
	c1.1,1.1,1.7,2.6,1.7,4.1c0,1.5-0.6,3-1.7,4.1l-9.8,9.8L168.9,324l11.3-11.3c12.7-12.7,12.7-33.2,0-45.8l-0.9-0.9
	c-12.2-12.2-31.7-12.7-44.4-1.4c-0.5,0.4-1,0.9-1.5,1.4l-11.3,11.3l-0.1-0.1l-8.2,8.2l0.1,0.1L102,297.4c-0.5,0.5-0.9,1-1.4,1.5
	c-10.6,11.9-10.8,29.8-0.8,42c0.3,0.4,0.7,0.8,1,1.2c0.4,0.4,0.7,0.8,1.1,1.2l0.9,0.9c12.4,12.4,32.2,12.7,44.9,0.9
	c0.5-0.4,0.9-0.9,1.4-1.3L168.9,324L168.9,324z M168.9,324l-8.2,8.2l-7.2-7.2l-8,8c-2.3,2.3-5.9,2.3-8.2,0c-2.3-2.3-2.3-5.9,0-8.2
	l8-8l-3.8-3.8l-8,8c-2.3,2.3-5.9,2.3-8.2,0s-2.3-5.9,0-8.2l8-8l-4-4l-8.1,8.1c-2.3,2.3-5.9,2.3-8.2,0c-2.3-2.3-2.3-5.9,0-8.2
	l8.1-8.1l-7.1-7.1l8.2-8.2l7.1,7.1l9.7-9.7c2.3-2.3,5.9-2.3,8.2,0c1.1,1.1,1.7,2.6,1.7,4.1c0,1.5-0.6,3-1.7,4.1l-9.7,9.7l4,4
	l9.8-9.8c2.3-2.3,5.9-2.3,8.2,0c1.1,1.1,1.7,2.6,1.7,4.1c0,1.5-0.6,3-1.7,4.1l-9.8,9.8l3.8,3.8l9.8-9.8c2.3-2.3,5.9-2.3,8.2,0
	c1.1,1.1,1.7,2.6,1.7,4.1c0,1.5-0.6,3-1.7,4.1l-9.8,9.8L168.9,324l11.3-11.3c12.7-12.7,12.7-33.2,0-45.8l-0.9-0.9
	c-12.2-12.2-31.7-12.7-44.4-1.4c-0.5,0.4-1,0.9-1.5,1.4l-11.3,11.3l-0.1-0.1l-8.2,8.2l0.1,0.1L102,297.4c-0.5,0.5-0.9,1-1.4,1.5
	c-10.6,11.9-10.8,29.8-0.8,42c0.3,0.4,0.7,0.8,1,1.2c0.4,0.4,0.7,0.8,1.1,1.2l0.9,0.9c12.4,12.4,32.2,12.7,44.9,0.9
	c0.5-0.4,0.9-0.9,1.4-1.3L168.9,324L168.9,324z M168.9,324l-8.2,8.2l-7.2-7.2l-8,8c-2.3,2.3-5.9,2.3-8.2,0c-2.3-2.3-2.3-5.9,0-8.2
	l8-8l-3.8-3.8l-8,8c-2.3,2.3-5.9,2.3-8.2,0s-2.3-5.9,0-8.2l8-8l-4-4l-8.1,8.1c-2.3,2.3-5.9,2.3-8.2,0c-2.3-2.3-2.3-5.9,0-8.2
	l8.1-8.1l-7.1-7.1l8.2-8.2l7.1,7.1l9.7-9.7c2.3-2.3,5.9-2.3,8.2,0c1.1,1.1,1.7,2.6,1.7,4.1c0,1.5-0.6,3-1.7,4.1l-9.7,9.7l4,4
	l9.8-9.8c2.3-2.3,5.9-2.3,8.2,0c1.1,1.1,1.7,2.6,1.7,4.1c0,1.5-0.6,3-1.7,4.1l-9.8,9.8l3.8,3.8l9.8-9.8c2.3-2.3,5.9-2.3,8.2,0
	c1.1,1.1,1.7,2.6,1.7,4.1c0,1.5-0.6,3-1.7,4.1l-9.8,9.8L168.9,324l11.3-11.3c12.7-12.7,12.7-33.2,0-45.8l-0.9-0.9
	c-12.2-12.2-31.7-12.7-44.4-1.4c-0.5,0.4-1,0.9-1.5,1.4l-11.3,11.3l-0.1-0.1l-8.2,8.2l0.1,0.1L102,297.4c-0.5,0.5-0.9,1-1.4,1.5
	c-10.6,11.9-10.8,29.8-0.8,42c0.3,0.4,0.7,0.8,1,1.2c0.4,0.4,0.7,0.8,1.1,1.2l0.9,0.9c12.4,12.4,32.2,12.7,44.9,0.9
	c0.5-0.4,0.9-0.9,1.4-1.3L168.9,324L168.9,324z M168.9,324l-8.2,8.2l-7.2-7.2l-8,8c-2.3,2.3-5.9,2.3-8.2,0c-2.3-2.3-2.3-5.9,0-8.2
	l8-8l-3.8-3.8l-8,8c-2.3,2.3-5.9,2.3-8.2,0s-2.3-5.9,0-8.2l8-8l-4-4l-8.1,8.1c-2.3,2.3-5.9,2.3-8.2,0c-2.3-2.3-2.3-5.9,0-8.2
	l8.1-8.1l-7.1-7.1l8.2-8.2l7.1,7.1l9.7-9.7c2.3-2.3,5.9-2.3,8.2,0c1.1,1.1,1.7,2.6,1.7,4.1c0,1.5-0.6,3-1.7,4.1l-9.7,9.7l4,4
	l9.8-9.8c2.3-2.3,5.9-2.3,8.2,0c1.1,1.1,1.7,2.6,1.7,4.1c0,1.5-0.6,3-1.7,4.1l-9.8,9.8l3.8,3.8l9.8-9.8c2.3-2.3,5.9-2.3,8.2,0
	c1.1,1.1,1.7,2.6,1.7,4.1c0,1.5-0.6,3-1.7,4.1l-9.8,9.8L168.9,324l11.3-11.3c12.7-12.7,12.7-33.2,0-45.8l-0.9-0.9
	c-12.2-12.2-31.7-12.7-44.4-1.4c-0.5,0.4-1,0.9-1.5,1.4l-11.3,11.3l-0.1-0.1l-8.2,8.2l0.1,0.1L102,297.4c-0.5,0.5-0.9,1-1.4,1.5
	c-10.6,11.9-10.8,29.8-0.8,42c0.3,0.4,0.7,0.8,1,1.2c0.4,0.4,0.7,0.8,1.1,1.2l0.9,0.9c12.4,12.4,32.2,12.7,44.9,0.9
	c0.5-0.4,0.9-0.9,1.4-1.3L168.9,324L168.9,324z M168.9,324l-8.2,8.2l-7.2-7.2l-8,8c-2.3,2.3-5.9,2.3-8.2,0c-2.3-2.3-2.3-5.9,0-8.2
	l8-8l-3.8-3.8l-8,8c-2.3,2.3-5.9,2.3-8.2,0s-2.3-5.9,0-8.2l8-8l-4-4l-8.1,8.1c-2.3,2.3-5.9,2.3-8.2,0c-2.3-2.3-2.3-5.9,0-8.2
	l8.1-8.1l-7.1-7.1l8.2-8.2l7.1,7.1l9.7-9.7c2.3-2.3,5.9-2.3,8.2,0c1.1,1.1,1.7,2.6,1.7,4.1c0,1.5-0.6,3-1.7,4.1l-9.7,9.7l4,4
	l9.8-9.8c2.3-2.3,5.9-2.3,8.2,0c1.1,1.1,1.7,2.6,1.7,4.1c0,1.5-0.6,3-1.7,4.1l-9.8,9.8l3.8,3.8l9.8-9.8c2.3-2.3,5.9-2.3,8.2,0
	c1.1,1.1,1.7,2.6,1.7,4.1c0,1.5-0.6,3-1.7,4.1l-9.8,9.8L168.9,324l11.3-11.3c12.7-12.7,12.7-33.2,0-45.8l-0.9-0.9
	c-12.2-12.2-31.7-12.7-44.4-1.4c-0.5,0.4-1,0.9-1.5,1.4l-11.3,11.3l-0.1-0.1l-8.2,8.2l0.1,0.1L102,297.4c-0.5,0.5-0.9,1-1.4,1.5
	c-10.6,11.9-10.8,29.8-0.8,42c0.3,0.4,0.7,0.8,1,1.2c0.4,0.4,0.7,0.8,1.1,1.2l0.9,0.9c12.4,12.4,32.2,12.7,44.9,0.9
	c0.5-0.4,0.9-0.9,1.4-1.3L168.9,324L168.9,324z M168.9,324l-8.2,8.2l-7.2-7.2l-8,8c-2.3,2.3-5.9,2.3-8.2,0c-2.3-2.3-2.3-5.9,0-8.2
	l8-8l-3.8-3.8l-8,8c-2.3,2.3-5.9,2.3-8.2,0s-2.3-5.9,0-8.2l8-8l-4-4l-8.1,8.1c-2.3,2.3-5.9,2.3-8.2,0c-2.3-2.3-2.3-5.9,0-8.2
	l8.1-8.1l-7.1-7.1l8.2-8.2l7.1,7.1l9.7-9.7c2.3-2.3,5.9-2.3,8.2,0c1.1,1.1,1.7,2.6,1.7,4.1c0,1.5-0.6,3-1.7,4.1l-9.7,9.7l4,4
	l9.8-9.8c2.3-2.3,5.9-2.3,8.2,0c1.1,1.1,1.7,2.6,1.7,4.1c0,1.5-0.6,3-1.7,4.1l-9.8,9.8l3.8,3.8l9.8-9.8c2.3-2.3,5.9-2.3,8.2,0
	c1.1,1.1,1.7,2.6,1.7,4.1c0,1.5-0.6,3-1.7,4.1l-9.8,9.8L168.9,324l11.3-11.3c12.7-12.7,12.7-33.2,0-45.8l-0.9-0.9
	c-12.2-12.2-31.7-12.7-44.4-1.4c-0.5,0.4-1,0.9-1.5,1.4l-11.3,11.3l-0.1-0.1l-8.2,8.2l0.1,0.1L102,297.4c-0.5,0.5-0.9,1-1.4,1.5
	c-10.6,11.9-10.8,29.8-0.8,42c0.3,0.4,0.7,0.8,1,1.2c0.4,0.4,0.7,0.8,1.1,1.2l0.9,0.9c12.4,12.4,32.2,12.7,44.9,0.9
	c0.5-0.4,0.9-0.9,1.4-1.3L168.9,324L168.9,324z M168.9,324l-8.2,8.2l-7.2-7.2l-8,8c-2.3,2.3-5.9,2.3-8.2,0c-2.3-2.3-2.3-5.9,0-8.2
	l8-8l-3.8-3.8l-8,8c-2.3,2.3-5.9,2.3-8.2,0s-2.3-5.9,0-8.2l8-8l-4-4l-8.1,8.1c-2.3,2.3-5.9,2.3-8.2,0c-2.3-2.3-2.3-5.9,0-8.2
	l8.1-8.1l-7.1-7.1l8.2-8.2l7.1,7.1l9.7-9.7c2.3-2.3,5.9-2.3,8.2,0c1.1,1.1,1.7,2.6,1.7,4.1c0,1.5-0.6,3-1.7,4.1l-9.7,9.7l4,4
	l9.8-9.8c2.3-2.3,5.9-2.3,8.2,0c1.1,1.1,1.7,2.6,1.7,4.1c0,1.5-0.6,3-1.7,4.1l-9.8,9.8l3.8,3.8l9.8-9.8c2.3-2.3,5.9-2.3,8.2,0
	c1.1,1.1,1.7,2.6,1.7,4.1c0,1.5-0.6,3-1.7,4.1l-9.8,9.8L168.9,324l11.3-11.3c12.7-12.7,12.7-33.2,0-45.8l-0.9-0.9
	c-12.2-12.2-31.7-12.7-44.4-1.4c-0.5,0.4-1,0.9-1.5,1.4l-11.3,11.3l-0.1-0.1l-8.2,8.2l0.1,0.1L102,297.4c-0.5,0.5-0.9,1-1.4,1.5
	c-10.6,11.9-10.8,29.8-0.8,42c0.3,0.4,0.7,0.8,1,1.2c0.4,0.4,0.7,0.8,1.1,1.2l0.9,0.9c12.4,12.4,32.2,12.7,44.9,0.9
	c0.5-0.4,0.9-0.9,1.4-1.3L168.9,324L168.9,324z M168.9,324l-8.2,8.2l-7.2-7.2l-8,8c-2.3,2.3-5.9,2.3-8.2,0c-2.3-2.3-2.3-5.9,0-8.2
	l8-8l-3.8-3.8l-8,8c-2.3,2.3-5.9,2.3-8.2,0s-2.3-5.9,0-8.2l8-8l-4-4l-8.1,8.1c-2.3,2.3-5.9,2.3-8.2,0c-2.3-2.3-2.3-5.9,0-8.2
	l8.1-8.1l-7.1-7.1l8.2-8.2l7.1,7.1l9.7-9.7c2.3-2.3,5.9-2.3,8.2,0c1.1,1.1,1.7,2.6,1.7,4.1c0,1.5-0.6,3-1.7,4.1l-9.7,9.7l4,4
	l9.8-9.8c2.3-2.3,5.9-2.3,8.2,0c1.1,1.1,1.7,2.6,1.7,4.1c0,1.5-0.6,3-1.7,4.1l-9.8,9.8l3.8,3.8l9.8-9.8c2.3-2.3,5.9-2.3,8.2,0
	c1.1,1.1,1.7,2.6,1.7,4.1c0,1.5-0.6,3-1.7,4.1l-9.8,9.8L168.9,324l11.3-11.3c12.7-12.7,12.7-33.2,0-45.8l-0.9-0.9
	c-12.2-12.2-31.7-12.7-44.4-1.4c-0.5,0.4-1,0.9-1.5,1.4l-11.3,11.3l-0.1-0.1l-8.2,8.2l0.1,0.1L102,297.4c-0.5,0.5-0.9,1-1.4,1.5
	c-10.6,11.9-10.8,29.8-0.8,42c0.3,0.4,0.7,0.8,1,1.2c0.4,0.4,0.7,0.8,1.1,1.2l0.9,0.9c12.4,12.4,32.2,12.7,44.9,0.9
	c0.5-0.4,0.9-0.9,1.4-1.3L168.9,324L168.9,324z M168.9,324l-8.2,8.2l-7.2-7.2l-8,8c-2.3,2.3-5.9,2.3-8.2,0c-2.3-2.3-2.3-5.9,0-8.2
	l8-8l-3.8-3.8l-8,8c-2.3,2.3-5.9,2.3-8.2,0s-2.3-5.9,0-8.2l8-8l-4-4l-8.1,8.1c-2.3,2.3-5.9,2.3-8.2,0c-2.3-2.3-2.3-5.9,0-8.2
	l8.1-8.1l-7.1-7.1l8.2-8.2l7.1,7.1l9.7-9.7c2.3-2.3,5.9-2.3,8.2,0c1.1,1.1,1.7,2.6,1.7,4.1c0,1.5-0.6,3-1.7,4.1l-9.7,9.7l4,4
	l9.8-9.8c2.3-2.3,5.9-2.3,8.2,0c1.1,1.1,1.7,2.6,1.7,4.1c0,1.5-0.6,3-1.7,4.1l-9.8,9.8l3.8,3.8l9.8-9.8c2.3-2.3,5.9-2.3,8.2,0
	c1.1,1.1,1.7,2.6,1.7,4.1c0,1.5-0.6,3-1.7,4.1l-9.8,9.8L168.9,324l11.3-11.3c12.7-12.7,12.7-33.2,0-45.8l-0.9-0.9
	c-12.2-12.2-31.7-12.7-44.4-1.4c-0.5,0.4-1,0.9-1.5,1.4l-11.3,11.3l-0.1-0.1l-8.2,8.2l0.1,0.1L102,297.4c-0.5,0.5-0.9,1-1.4,1.5
	c-10.6,11.9-10.8,29.8-0.8,42c0.3,0.4,0.7,0.8,1,1.2c0.4,0.4,0.7,0.8,1.1,1.2l0.9,0.9c12.4,12.4,32.2,12.7,44.9,0.9
	c0.5-0.4,0.9-0.9,1.4-1.3L168.9,324L168.9,324z M168.9,324l-8.2,8.2l-7.2-7.2l-8,8c-2.3,2.3-5.9,2.3-8.2,0c-2.3-2.3-2.3-5.9,0-8.2
	l8-8l-3.8-3.8l-8,8c-2.3,2.3-5.9,2.3-8.2,0s-2.3-5.9,0-8.2l8-8l-4-4l-8.1,8.1c-2.3,2.3-5.9,2.3-8.2,0c-2.3-2.3-2.3-5.9,0-8.2
	l8.1-8.1l-7.1-7.1l8.2-8.2l7.1,7.1l9.7-9.7c2.3-2.3,5.9-2.3,8.2,0c1.1,1.1,1.7,2.6,1.7,4.1c0,1.5-0.6,3-1.7,4.1l-9.7,9.7l4,4
	l9.8-9.8c2.3-2.3,5.9-2.3,8.2,0c1.1,1.1,1.7,2.6,1.7,4.1c0,1.5-0.6,3-1.7,4.1l-9.8,9.8l3.8,3.8l9.8-9.8c2.3-2.3,5.9-2.3,8.2,0
	c1.1,1.1,1.7,2.6,1.7,4.1c0,1.5-0.6,3-1.7,4.1l-9.8,9.8L168.9,324l11.3-11.3c12.7-12.7,12.7-33.2,0-45.8l-0.9-0.9
	c-12.2-12.2-31.7-12.7-44.4-1.4c-0.5,0.4-1,0.9-1.5,1.4l-11.3,11.3l-0.1-0.1l-8.2,8.2l0.1,0.1L102,297.4c-0.5,0.5-0.9,1-1.4,1.5
	c-10.6,11.9-10.8,29.8-0.8,42c0.3,0.4,0.7,0.8,1,1.2c0.4,0.4,0.7,0.8,1.1,1.2l0.9,0.9c12.4,12.4,32.2,12.7,44.9,0.9
	c0.5-0.4,0.9-0.9,1.4-1.3L168.9,324L168.9,324z M168.9,324l-8.2,8.2l-7.2-7.2l-8,8c-2.3,2.3-5.9,2.3-8.2,0c-2.3-2.3-2.3-5.9,0-8.2
	l8-8l-3.8-3.8l-8,8c-2.3,2.3-5.9,2.3-8.2,0s-2.3-5.9,0-8.2l8-8l-4-4l-8.1,8.1c-2.3,2.3-5.9,2.3-8.2,0c-2.3-2.3-2.3-5.9,0-8.2
	l8.1-8.1l-7.1-7.1l8.2-8.2l7.1,7.1l9.7-9.7c2.3-2.3,5.9-2.3,8.2,0c1.1,1.1,1.7,2.6,1.7,4.1c0,1.5-0.6,3-1.7,4.1l-9.7,9.7l4,4
	l9.8-9.8c2.3-2.3,5.9-2.3,8.2,0c1.1,1.1,1.7,2.6,1.7,4.1c0,1.5-0.6,3-1.7,4.1l-9.8,9.8l3.8,3.8l9.8-9.8c2.3-2.3,5.9-2.3,8.2,0
	c1.1,1.1,1.7,2.6,1.7,4.1c0,1.5-0.6,3-1.7,4.1l-9.8,9.8L168.9,324l11.3-11.3c12.7-12.7,12.7-33.2,0-45.8l-0.9-0.9
	c-12.2-12.2-31.7-12.7-44.4-1.4c-0.5,0.4-1,0.9-1.5,1.4l-11.3,11.3l-0.1-0.1l-8.2,8.2l0.1,0.1L102,297.4c-0.5,0.5-0.9,1-1.4,1.5
	c-10.6,11.9-10.8,29.8-0.8,42c0.3,0.4,0.7,0.8,1,1.2c0.4,0.4,0.7,0.8,1.1,1.2l0.9,0.9c12.4,12.4,32.2,12.7,44.9,0.9
	c0.5-0.4,0.9-0.9,1.4-1.3L168.9,324L168.9,324z M209.9,317.7c0.3-0.3,0.6-0.6,0.8-1L163,364.5c-22.4,18.6-55.6,17.5-76.6-3.5
	c-6.9-6.9-11.6-15-14.2-23.7c-3.3,14.6,0.8,30.6,12.2,41.9c17,17,44.1,17.7,61.9,2.1c0.7-0.7,1.5-1.3,2.2-2l15.6-15.6
	c1-0.9,2-1.8,2.9-2.7l40.4-40.4C208.2,319.6,209.1,318.7,209.9,317.7z M168.9,324l-8.2,8.2l-7.2-7.2l-8,8c-2.3,2.3-5.9,2.3-8.2,0
	c-2.3-2.3-2.3-5.9,0-8.2l8-8l-3.8-3.8l-8,8c-2.3,2.3-5.9,2.3-8.2,0s-2.3-5.9,0-8.2l8-8l-4-4l-8.1,8.1c-2.3,2.3-5.9,2.3-8.2,0
	c-2.3-2.3-2.3-5.9,0-8.2l8.1-8.1l-7.1-7.1l8.2-8.2l7.1,7.1l9.7-9.7c2.3-2.3,5.9-2.3,8.2,0c1.1,1.1,1.7,2.6,1.7,4.1
	c0,1.5-0.6,3-1.7,4.1l-9.7,9.7l4,4l9.8-9.8c2.3-2.3,5.9-2.3,8.2,0c1.1,1.1,1.7,2.6,1.7,4.1c0,1.5-0.6,3-1.7,4.1l-9.8,9.8l3.8,3.8
	l9.8-9.8c2.3-2.3,5.9-2.3,8.2,0c1.1,1.1,1.7,2.6,1.7,4.1c0,1.5-0.6,3-1.7,4.1l-9.8,9.8L168.9,324l11.3-11.3
	c12.7-12.7,12.7-33.2,0-45.8l-0.9-0.9c-12.2-12.2-31.7-12.7-44.4-1.4c-0.5,0.4-1,0.9-1.5,1.4l-11.3,11.3l-0.1-0.1l-8.2,8.2l0.1,0.1
	L102,297.4c-0.5,0.5-0.9,1-1.4,1.5c-10.6,11.9-10.8,29.8-0.8,42c0.3,0.4,0.7,0.8,1,1.2c0.4,0.4,0.7,0.8,1.1,1.2l0.9,0.9
	c12.4,12.4,32.2,12.7,44.9,0.9c0.5-0.4,0.9-0.9,1.4-1.3L168.9,324L168.9,324z M168.9,324l-8.2,8.2l-7.2-7.2l-8,8
	c-2.3,2.3-5.9,2.3-8.2,0c-2.3-2.3-2.3-5.9,0-8.2l8-8l-3.8-3.8l-8,8c-2.3,2.3-5.9,2.3-8.2,0s-2.3-5.9,0-8.2l8-8l-4-4l-8.1,8.1
	c-2.3,2.3-5.9,2.3-8.2,0c-2.3-2.3-2.3-5.9,0-8.2l8.1-8.1l-7.1-7.1l8.2-8.2l7.1,7.1l9.7-9.7c2.3-2.3,5.9-2.3,8.2,0
	c1.1,1.1,1.7,2.6,1.7,4.1c0,1.5-0.6,3-1.7,4.1l-9.7,9.7l4,4l9.8-9.8c2.3-2.3,5.9-2.3,8.2,0c1.1,1.1,1.7,2.6,1.7,4.1
	c0,1.5-0.6,3-1.7,4.1l-9.8,9.8l3.8,3.8l9.8-9.8c2.3-2.3,5.9-2.3,8.2,0c1.1,1.1,1.7,2.6,1.7,4.1c0,1.5-0.6,3-1.7,4.1l-9.8,9.8
	L168.9,324l11.3-11.3c12.7-12.7,12.7-33.2,0-45.8l-0.9-0.9c-12.2-12.2-31.7-12.7-44.4-1.4c-0.5,0.4-1,0.9-1.5,1.4l-11.3,11.3
	l-0.1-0.1l-8.2,8.2l0.1,0.1L102,297.4c-0.5,0.5-0.9,1-1.4,1.5c-10.6,11.9-10.8,29.8-0.8,42c0.3,0.4,0.7,0.8,1,1.2
	c0.4,0.4,0.7,0.8,1.1,1.2l0.9,0.9c12.4,12.4,32.2,12.7,44.9,0.9c0.5-0.4,0.9-0.9,1.4-1.3L168.9,324L168.9,324z M168.9,324l-8.2,8.2
	l-7.2-7.2l-8,8c-2.3,2.3-5.9,2.3-8.2,0c-2.3-2.3-2.3-5.9,0-8.2l8-8l-3.8-3.8l-8,8c-2.3,2.3-5.9,2.3-8.2,0s-2.3-5.9,0-8.2l8-8l-4-4
	l-8.1,8.1c-2.3,2.3-5.9,2.3-8.2,0c-2.3-2.3-2.3-5.9,0-8.2l8.1-8.1l-7.1-7.1l8.2-8.2l7.1,7.1l9.7-9.7c2.3-2.3,5.9-2.3,8.2,0
	c1.1,1.1,1.7,2.6,1.7,4.1c0,1.5-0.6,3-1.7,4.1l-9.7,9.7l4,4l9.8-9.8c2.3-2.3,5.9-2.3,8.2,0c1.1,1.1,1.7,2.6,1.7,4.1
	c0,1.5-0.6,3-1.7,4.1l-9.8,9.8l3.8,3.8l9.8-9.8c2.3-2.3,5.9-2.3,8.2,0c1.1,1.1,1.7,2.6,1.7,4.1c0,1.5-0.6,3-1.7,4.1l-9.8,9.8
	L168.9,324l11.3-11.3c12.7-12.7,12.7-33.2,0-45.8l-0.9-0.9c-12.2-12.2-31.7-12.7-44.4-1.4c-0.5,0.4-1,0.9-1.5,1.4l-11.3,11.3
	l-0.1-0.1l-8.2,8.2l0.1,0.1L102,297.4c-0.5,0.5-0.9,1-1.4,1.5c-10.6,11.9-10.8,29.8-0.8,42c0.3,0.4,0.7,0.8,1,1.2
	c0.4,0.4,0.7,0.8,1.1,1.2l0.9,0.9c12.4,12.4,32.2,12.7,44.9,0.9c0.5-0.4,0.9-0.9,1.4-1.3L168.9,324L168.9,324z M168.9,324l-8.2,8.2
	l-7.2-7.2l-8,8c-2.3,2.3-5.9,2.3-8.2,0c-2.3-2.3-2.3-5.9,0-8.2l8-8l-3.8-3.8l-8,8c-2.3,2.3-5.9,2.3-8.2,0s-2.3-5.9,0-8.2l8-8l-4-4
	l-8.1,8.1c-2.3,2.3-5.9,2.3-8.2,0c-2.3-2.3-2.3-5.9,0-8.2l8.1-8.1l-7.1-7.1l8.2-8.2l7.1,7.1l9.7-9.7c2.3-2.3,5.9-2.3,8.2,0
	c1.1,1.1,1.7,2.6,1.7,4.1c0,1.5-0.6,3-1.7,4.1l-9.7,9.7l4,4l9.8-9.8c2.3-2.3,5.9-2.3,8.2,0c1.1,1.1,1.7,2.6,1.7,4.1
	c0,1.5-0.6,3-1.7,4.1l-9.8,9.8l3.8,3.8l9.8-9.8c2.3-2.3,5.9-2.3,8.2,0c1.1,1.1,1.7,2.6,1.7,4.1c0,1.5-0.6,3-1.7,4.1l-9.8,9.8
	L168.9,324l11.3-11.3c12.7-12.7,12.7-33.2,0-45.8l-0.9-0.9c-12.2-12.2-31.7-12.7-44.4-1.4c-0.5,0.4-1,0.9-1.5,1.4l-11.3,11.3
	l-0.1-0.1l-8.2,8.2l0.1,0.1L102,297.4c-0.5,0.5-0.9,1-1.4,1.5c-10.6,11.9-10.8,29.8-0.8,42c0.3,0.4,0.7,0.8,1,1.2
	c0.4,0.4,0.7,0.8,1.1,1.2l0.9,0.9c12.4,12.4,32.2,12.7,44.9,0.9c0.5-0.4,0.9-0.9,1.4-1.3L168.9,324L168.9,324z M168.9,324l-8.2,8.2
	l-7.2-7.2l-8,8c-2.3,2.3-5.9,2.3-8.2,0c-2.3-2.3-2.3-5.9,0-8.2l8-8l-3.8-3.8l-8,8c-2.3,2.3-5.9,2.3-8.2,0s-2.3-5.9,0-8.2l8-8l-4-4
	l-8.1,8.1c-2.3,2.3-5.9,2.3-8.2,0c-2.3-2.3-2.3-5.9,0-8.2l8.1-8.1l-7.1-7.1l8.2-8.2l7.1,7.1l9.7-9.7c2.3-2.3,5.9-2.3,8.2,0
	c1.1,1.1,1.7,2.6,1.7,4.1c0,1.5-0.6,3-1.7,4.1l-9.7,9.7l4,4l9.8-9.8c2.3-2.3,5.9-2.3,8.2,0c1.1,1.1,1.7,2.6,1.7,4.1
	c0,1.5-0.6,3-1.7,4.1l-9.8,9.8l3.8,3.8l9.8-9.8c2.3-2.3,5.9-2.3,8.2,0c1.1,1.1,1.7,2.6,1.7,4.1c0,1.5-0.6,3-1.7,4.1l-9.8,9.8
	L168.9,324l11.3-11.3c12.7-12.7,12.7-33.2,0-45.8l-0.9-0.9c-12.2-12.2-31.7-12.7-44.4-1.4c-0.5,0.4-1,0.9-1.5,1.4l-11.3,11.3
	l-0.1-0.1l-8.2,8.2l0.1,0.1L102,297.4c-0.5,0.5-0.9,1-1.4,1.5c-10.6,11.9-10.8,29.8-0.8,42c0.3,0.4,0.7,0.8,1,1.2
	c0.4,0.4,0.7,0.8,1.1,1.2l0.9,0.9c12.4,12.4,32.2,12.7,44.9,0.9c0.5-0.4,0.9-0.9,1.4-1.3L168.9,324L168.9,324z M168.9,324l-8.2,8.2
	l-7.2-7.2l-8,8c-2.3,2.3-5.9,2.3-8.2,0c-2.3-2.3-2.3-5.9,0-8.2l8-8l-3.8-3.8l-8,8c-2.3,2.3-5.9,2.3-8.2,0s-2.3-5.9,0-8.2l8-8l-4-4
	l-8.1,8.1c-2.3,2.3-5.9,2.3-8.2,0c-2.3-2.3-2.3-5.9,0-8.2l8.1-8.1l-7.1-7.1l8.2-8.2l7.1,7.1l9.7-9.7c2.3-2.3,5.9-2.3,8.2,0
	c1.1,1.1,1.7,2.6,1.7,4.1c0,1.5-0.6,3-1.7,4.1l-9.7,9.7l4,4l9.8-9.8c2.3-2.3,5.9-2.3,8.2,0c1.1,1.1,1.7,2.6,1.7,4.1
	c0,1.5-0.6,3-1.7,4.1l-9.8,9.8l3.8,3.8l9.8-9.8c2.3-2.3,5.9-2.3,8.2,0c1.1,1.1,1.7,2.6,1.7,4.1c0,1.5-0.6,3-1.7,4.1l-9.8,9.8
	L168.9,324l11.3-11.3c12.7-12.7,12.7-33.2,0-45.8l-0.9-0.9c-12.2-12.2-31.7-12.7-44.4-1.4c-0.5,0.4-1,0.9-1.5,1.4l-11.3,11.3
	l-0.1-0.1l-8.2,8.2l0.1,0.1L102,297.4c-0.5,0.5-0.9,1-1.4,1.5c-10.6,11.9-10.8,29.8-0.8,42c0.3,0.4,0.7,0.8,1,1.2
	c0.4,0.4,0.7,0.8,1.1,1.2l0.9,0.9c12.4,12.4,32.2,12.7,44.9,0.9c0.5-0.4,0.9-0.9,1.4-1.3L168.9,324L168.9,324z M168.9,324l-8.2,8.2
	l-7.2-7.2l-8,8c-2.3,2.3-5.9,2.3-8.2,0c-2.3-2.3-2.3-5.9,0-8.2l8-8l-3.8-3.8l-8,8c-2.3,2.3-5.9,2.3-8.2,0s-2.3-5.9,0-8.2l8-8l-4-4
	l-8.1,8.1c-2.3,2.3-5.9,2.3-8.2,0c-2.3-2.3-2.3-5.9,0-8.2l8.1-8.1l-7.1-7.1l8.2-8.2l7.1,7.1l9.7-9.7c2.3-2.3,5.9-2.3,8.2,0
	c1.1,1.1,1.7,2.6,1.7,4.1c0,1.5-0.6,3-1.7,4.1l-9.7,9.7l4,4l9.8-9.8c2.3-2.3,5.9-2.3,8.2,0c1.1,1.1,1.7,2.6,1.7,4.1
	c0,1.5-0.6,3-1.7,4.1l-9.8,9.8l3.8,3.8l9.8-9.8c2.3-2.3,5.9-2.3,8.2,0c1.1,1.1,1.7,2.6,1.7,4.1c0,1.5-0.6,3-1.7,4.1l-9.8,9.8
	L168.9,324l11.3-11.3c12.7-12.7,12.7-33.2,0-45.8l-0.9-0.9c-12.2-12.2-31.7-12.7-44.4-1.4c-0.5,0.4-1,0.9-1.5,1.4l-11.3,11.3
	l-0.1-0.1l-8.2,8.2l0.1,0.1L102,297.4c-0.5,0.5-0.9,1-1.4,1.5c-10.6,11.9-10.8,29.8-0.8,42c0.3,0.4,0.7,0.8,1,1.2
	c0.4,0.4,0.7,0.8,1.1,1.2l0.9,0.9c12.4,12.4,32.2,12.7,44.9,0.9c0.5-0.4,0.9-0.9,1.4-1.3L168.9,324L168.9,324z M168.9,324l-8.2,8.2
	l-7.2-7.2l-8,8c-2.3,2.3-5.9,2.3-8.2,0c-2.3-2.3-2.3-5.9,0-8.2l8-8l-3.8-3.8l-8,8c-2.3,2.3-5.9,2.3-8.2,0s-2.3-5.9,0-8.2l8-8l-4-4
	l-8.1,8.1c-2.3,2.3-5.9,2.3-8.2,0c-2.3-2.3-2.3-5.9,0-8.2l8.1-8.1l-7.1-7.1l8.2-8.2l7.1,7.1l9.7-9.7c2.3-2.3,5.9-2.3,8.2,0
	c1.1,1.1,1.7,2.6,1.7,4.1c0,1.5-0.6,3-1.7,4.1l-9.7,9.7l4,4l9.8-9.8c2.3-2.3,5.9-2.3,8.2,0c1.1,1.1,1.7,2.6,1.7,4.1
	c0,1.5-0.6,3-1.7,4.1l-9.8,9.8l3.8,3.8l9.8-9.8c2.3-2.3,5.9-2.3,8.2,0c1.1,1.1,1.7,2.6,1.7,4.1c0,1.5-0.6,3-1.7,4.1l-9.8,9.8
	L168.9,324l11.3-11.3c12.7-12.7,12.7-33.2,0-45.8l-0.9-0.9c-12.2-12.2-31.7-12.7-44.4-1.4c-0.5,0.4-1,0.9-1.5,1.4l-11.3,11.3
	l-0.1-0.1l-8.2,8.2l0.1,0.1L102,297.4c-0.5,0.5-0.9,1-1.4,1.5c-10.6,11.9-10.8,29.8-0.8,42c0.3,0.4,0.7,0.8,1,1.2
	c0.4,0.4,0.7,0.8,1.1,1.2l0.9,0.9c12.4,12.4,32.2,12.7,44.9,0.9c0.5-0.4,0.9-0.9,1.4-1.3L168.9,324L168.9,324z"/>
<path class="st0" d="M102.5,343.7l0.4,0.4c12.4,12.4,32.2,12.7,44.9,0.9C134.9,356.6,115,356.2,102.5,343.7z M180.3,266.9l-0.9-0.9
	c-12.2-12.2-31.7-12.7-44.4-1.4l-12.7,12.7l7.1,7.1l9.7-9.7c2.3-2.3,5.9-2.3,8.2,0c1.1,1.1,1.7,2.6,1.7,4.1c0,1.5-0.6,3-1.7,4.1
	l-9.7,9.7l4,4l9.8-9.8c2.3-2.3,5.9-2.3,8.2,0c1.1,1.1,1.7,2.6,1.7,4.1c0,1.5-0.6,3-1.7,4.1l-9.8,9.8l3.8,3.8l9.8-9.8
	c2.3-2.3,5.9-2.3,8.2,0c1.1,1.1,1.7,2.6,1.7,4.1c0,1.5-0.6,3-1.7,4.1l-9.8,9.8l7.2,7.2l11.3-11.3
	C192.9,300.1,192.9,279.5,180.3,266.9z M168.9,324l-20.1,20.1c-0.3,0.3-0.6,0.6-0.9,0.9c0.5-0.4,0.9-0.9,1.4-1.3L168.9,324
	L168.9,324z M102.5,343.7l0.4,0.4c12.4,12.4,32.2,12.7,44.9,0.9C134.9,356.6,115,356.2,102.5,343.7z M180.3,266.9l-0.9-0.9
	c-12.2-12.2-31.7-12.7-44.4-1.4l-12.7,12.7l7.1,7.1l9.7-9.7c2.3-2.3,5.9-2.3,8.2,0c1.1,1.1,1.7,2.6,1.7,4.1c0,1.5-0.6,3-1.7,4.1
	l-9.7,9.7l4,4l9.8-9.8c2.3-2.3,5.9-2.3,8.2,0c1.1,1.1,1.7,2.6,1.7,4.1c0,1.5-0.6,3-1.7,4.1l-9.8,9.8l3.8,3.8l9.8-9.8
	c2.3-2.3,5.9-2.3,8.2,0c1.1,1.1,1.7,2.6,1.7,4.1c0,1.5-0.6,3-1.7,4.1l-9.8,9.8l7.2,7.2l11.3-11.3
	C192.9,300.1,192.9,279.5,180.3,266.9z M168.9,324l-20.1,20.1c-0.3,0.3-0.6,0.6-0.9,0.9c0.5-0.4,0.9-0.9,1.4-1.3L168.9,324
	L168.9,324z M102.5,343.7l0.4,0.4c12.4,12.4,32.2,12.7,44.9,0.9C134.9,356.6,115,356.2,102.5,343.7z M180.3,266.9l-0.9-0.9
	c-12.2-12.2-31.7-12.7-44.4-1.4l-12.7,12.7l7.1,7.1l9.7-9.7c2.3-2.3,5.9-2.3,8.2,0c1.1,1.1,1.7,2.6,1.7,4.1c0,1.5-0.6,3-1.7,4.1
	l-9.7,9.7l4,4l9.8-9.8c2.3-2.3,5.9-2.3,8.2,0c1.1,1.1,1.7,2.6,1.7,4.1c0,1.5-0.6,3-1.7,4.1l-9.8,9.8l3.8,3.8l9.8-9.8
	c2.3-2.3,5.9-2.3,8.2,0c1.1,1.1,1.7,2.6,1.7,4.1c0,1.5-0.6,3-1.7,4.1l-9.8,9.8l7.2,7.2l11.3-11.3
	C192.9,300.1,192.9,279.5,180.3,266.9z M168.9,324l-20.1,20.1c-0.3,0.3-0.6,0.6-0.9,0.9c0.5-0.4,0.9-0.9,1.4-1.3L168.9,324
	L168.9,324z M102.5,343.7l0.4,0.4c12.4,12.4,32.2,12.7,44.9,0.9C134.9,356.6,115,356.2,102.5,343.7z M180.3,266.9l-0.9-0.9
	c-12.2-12.2-31.7-12.7-44.4-1.4l-12.7,12.7l7.1,7.1l9.7-9.7c2.3-2.3,5.9-2.3,8.2,0c1.1,1.1,1.7,2.6,1.7,4.1c0,1.5-0.6,3-1.7,4.1
	l-9.7,9.7l4,4l9.8-9.8c2.3-2.3,5.9-2.3,8.2,0c1.1,1.1,1.7,2.6,1.7,4.1c0,1.5-0.6,3-1.7,4.1l-9.8,9.8l3.8,3.8l9.8-9.8
	c2.3-2.3,5.9-2.3,8.2,0c1.1,1.1,1.7,2.6,1.7,4.1c0,1.5-0.6,3-1.7,4.1l-9.8,9.8l7.2,7.2l11.3-11.3
	C192.9,300.1,192.9,279.5,180.3,266.9z M168.9,324l-20.1,20.1c-0.3,0.3-0.6,0.6-0.9,0.9c0.5-0.4,0.9-0.9,1.4-1.3L168.9,324
	L168.9,324z M210.8,316.7L163,364.5c-22.4,18.6-55.6,17.5-76.6-3.5c-6.9-6.9-11.6-15-14.2-23.7c-3.3,14.6,0.8,30.6,12.2,41.9
	c17,17,44.1,17.7,61.9,2.1c0.7-0.7,1.5-1.3,2.2-2l61.5-61.5C210.2,317.4,210.5,317,210.8,316.7z M180.3,266.9l-0.9-0.9
	c-12.2-12.2-31.7-12.7-44.4-1.4l-12.7,12.7l7.1,7.1l9.7-9.7c2.3-2.3,5.9-2.3,8.2,0c1.1,1.1,1.7,2.6,1.7,4.1c0,1.5-0.6,3-1.7,4.1
	l-9.7,9.7l4,4l9.8-9.8c2.3-2.3,5.9-2.3,8.2,0c1.1,1.1,1.7,2.6,1.7,4.1c0,1.5-0.6,3-1.7,4.1l-9.8,9.8l3.8,3.8l9.8-9.8
	c2.3-2.3,5.9-2.3,8.2,0c1.1,1.1,1.7,2.6,1.7,4.1c0,1.5-0.6,3-1.7,4.1l-9.8,9.8l7.2,7.2l11.3-11.3
	C192.9,300.1,192.9,279.5,180.3,266.9z M168.9,324l-20.1,20.1c-0.3,0.3-0.6,0.6-0.9,0.9c0.5-0.4,0.9-0.9,1.4-1.3L168.9,324
	L168.9,324z M102.5,343.7l0.4,0.4c12.4,12.4,32.2,12.7,44.9,0.9C134.9,356.6,115,356.2,102.5,343.7z M180.3,266.9l-0.9-0.9
	c-12.2-12.2-31.7-12.7-44.4-1.4l-12.7,12.7l7.1,7.1l9.7-9.7c2.3-2.3,5.9-2.3,8.2,0c1.1,1.1,1.7,2.6,1.7,4.1c0,1.5-0.6,3-1.7,4.1
	l-9.7,9.7l4,4l9.8-9.8c2.3-2.3,5.9-2.3,8.2,0c1.1,1.1,1.7,2.6,1.7,4.1c0,1.5-0.6,3-1.7,4.1l-9.8,9.8l3.8,3.8l9.8-9.8
	c2.3-2.3,5.9-2.3,8.2,0c1.1,1.1,1.7,2.6,1.7,4.1c0,1.5-0.6,3-1.7,4.1l-9.8,9.8l7.2,7.2l11.3-11.3
	C192.9,300.1,192.9,279.5,180.3,266.9z M168.9,324l-20.1,20.1c-0.3,0.3-0.6,0.6-0.9,0.9c0.5-0.4,0.9-0.9,1.4-1.3L168.9,324
	L168.9,324z M102.5,343.7l0.4,0.4c12.4,12.4,32.2,12.7,44.9,0.9C134.9,356.6,115,356.2,102.5,343.7z M180.3,266.9l-0.9-0.9
	c-12.2-12.2-31.7-12.7-44.4-1.4l-12.7,12.7l7.1,7.1l9.7-9.7c2.3-2.3,5.9-2.3,8.2,0c1.1,1.1,1.7,2.6,1.7,4.1c0,1.5-0.6,3-1.7,4.1
	l-9.7,9.7l4,4l9.8-9.8c2.3-2.3,5.9-2.3,8.2,0c1.1,1.1,1.7,2.6,1.7,4.1c0,1.5-0.6,3-1.7,4.1l-9.8,9.8l3.8,3.8l9.8-9.8
	c2.3-2.3,5.9-2.3,8.2,0c1.1,1.1,1.7,2.6,1.7,4.1c0,1.5-0.6,3-1.7,4.1l-9.8,9.8l7.2,7.2l11.3-11.3
	C192.9,300.1,192.9,279.5,180.3,266.9z M168.9,324l-20.1,20.1c-0.3,0.3-0.6,0.6-0.9,0.9c0.5-0.4,0.9-0.9,1.4-1.3L168.9,324
	L168.9,324z M102.5,343.7l0.4,0.4c12.4,12.4,32.2,12.7,44.9,0.9C134.9,356.6,115,356.2,102.5,343.7z M180.3,266.9l-0.9-0.9
	c-12.2-12.2-31.7-12.7-44.4-1.4l-12.7,12.7l7.1,7.1l9.7-9.7c2.3-2.3,5.9-2.3,8.2,0c1.1,1.1,1.7,2.6,1.7,4.1c0,1.5-0.6,3-1.7,4.1
	l-9.7,9.7l4,4l9.8-9.8c2.3-2.3,5.9-2.3,8.2,0c1.1,1.1,1.7,2.6,1.7,4.1c0,1.5-0.6,3-1.7,4.1l-9.8,9.8l3.8,3.8l9.8-9.8
	c2.3-2.3,5.9-2.3,8.2,0c1.1,1.1,1.7,2.6,1.7,4.1c0,1.5-0.6,3-1.7,4.1l-9.8,9.8l7.2,7.2l11.3-11.3
	C192.9,300.1,192.9,279.5,180.3,266.9z M168.9,324l-20.1,20.1c-0.3,0.3-0.6,0.6-0.9,0.9c0.5-0.4,0.9-0.9,1.4-1.3L168.9,324
	L168.9,324z M102.5,343.7l0.4,0.4c12.4,12.4,32.2,12.7,44.9,0.9C134.9,356.6,115,356.2,102.5,343.7z M180.3,266.9l-0.9-0.9
	c-12.2-12.2-31.7-12.7-44.4-1.4l-12.7,12.7l7.1,7.1l9.7-9.7c2.3-2.3,5.9-2.3,8.2,0c1.1,1.1,1.7,2.6,1.7,4.1c0,1.5-0.6,3-1.7,4.1
	l-9.7,9.7l4,4l9.8-9.8c2.3-2.3,5.9-2.3,8.2,0c1.1,1.1,1.7,2.6,1.7,4.1c0,1.5-0.6,3-1.7,4.1l-9.8,9.8l3.8,3.8l9.8-9.8
	c2.3-2.3,5.9-2.3,8.2,0c1.1,1.1,1.7,2.6,1.7,4.1c0,1.5-0.6,3-1.7,4.1l-9.8,9.8l7.2,7.2l11.3-11.3
	C192.9,300.1,192.9,279.5,180.3,266.9z M168.9,324l-20.1,20.1c-0.3,0.3-0.6,0.6-0.9,0.9c0.5-0.4,0.9-0.9,1.4-1.3L168.9,324
	L168.9,324z M102.5,343.7l0.4,0.4c12.4,12.4,32.2,12.7,44.9,0.9C134.9,356.6,115,356.2,102.5,343.7z M180.3,266.9l-0.9-0.9
	c-12.2-12.2-31.7-12.7-44.4-1.4l-12.7,12.7l7.1,7.1l9.7-9.7c2.3-2.3,5.9-2.3,8.2,0c1.1,1.1,1.7,2.6,1.7,4.1c0,1.5-0.6,3-1.7,4.1
	l-9.7,9.7l4,4l9.8-9.8c2.3-2.3,5.9-2.3,8.2,0c1.1,1.1,1.7,2.6,1.7,4.1c0,1.5-0.6,3-1.7,4.1l-9.8,9.8l3.8,3.8l9.8-9.8
	c2.3-2.3,5.9-2.3,8.2,0c1.1,1.1,1.7,2.6,1.7,4.1c0,1.5-0.6,3-1.7,4.1l-9.8,9.8l7.2,7.2l11.3-11.3
	C192.9,300.1,192.9,279.5,180.3,266.9z M168.9,324l-8.2,8.2l-7.2-7.2l-8,8c-2.3,2.3-5.9,2.3-8.2,0c-2.3-2.3-2.3-5.9,0-8.2l8-8
	l-3.8-3.8l-8,8c-2.3,2.3-5.9,2.3-8.2,0s-2.3-5.9,0-8.2l8-8l-4-4l-8.1,8.1c-2.3,2.3-5.9,2.3-8.2,0c-2.3-2.3-2.3-5.9,0-8.2l8.1-8.1
	l-7.1-7.1l-13.3,13.3c-10.6,11.9-10.8,29.8-0.8,42c0.3,0.4,0.7,0.8,1,1.2c0.4,0.4,0.7,0.8,1.1,1.2l0.9,0.9
	c12.4,12.4,32.2,12.7,44.9,0.9c0.5-0.4,0.9-0.9,1.4-1.3L168.9,324L168.9,324z"/>
<path class="st0" d="M168.9,324l-8.2,8.2l-7.2-7.2l-8,8c-2.3,2.3-5.9,2.3-8.2,0c-2.3-2.3-2.3-5.9,0-8.2l8-8l-3.8-3.8l-8,8
	c-2.3,2.3-5.9,2.3-8.2,0s-2.3-5.9,0-8.2l8-8l-4-4l-8.1,8.1c-2.3,2.3-5.9,2.3-8.2,0c-2.3-2.3-2.3-5.9,0-8.2l8.1-8.1l-7.1-7.1l8.2-8.2
	l7.1,7.1l9.7-9.7c2.3-2.3,5.9-2.3,8.2,0c1.1,1.1,1.7,2.6,1.7,4.1c0,1.5-0.6,3-1.7,4.1l-9.7,9.7l4,4l9.8-9.8c2.3-2.3,5.9-2.3,8.2,0
	c1.1,1.1,1.7,2.6,1.7,4.1c0,1.5-0.6,3-1.7,4.1l-9.8,9.8l3.8,3.8l9.8-9.8c2.3-2.3,5.9-2.3,8.2,0c1.1,1.1,1.7,2.6,1.7,4.1
	c0,1.5-0.6,3-1.7,4.1l-9.8,9.8L168.9,324l11.3-11.3c12.7-12.7,12.7-33.2,0-45.8l-0.9-0.9c-12.2-12.2-31.7-12.7-44.4-1.4
	c-0.5,0.4-1,0.9-1.5,1.4l-11.3,11.3l0,0l-8.2,8.2l0,0L102,297.4c-0.5,0.5-0.9,1-1.4,1.5c-10.6,11.9-10.8,29.8-0.8,42
	c0.3,0.4,0.7,0.8,1,1.2c0.4,0.4,0.7,0.8,1.1,1.2l0.9,0.9c12.4,12.4,32.2,12.7,44.9,0.9c0.5-0.4,0.9-0.9,1.4-1.3L168.9,324L168.9,324
	z M86.4,360.9c-6.9-6.9-11.6-15-14.2-23.7c-3.3,14.6,0.8,30.6,12.2,41.9c17,17,44.1,17.7,61.9,2.1l16.8-16.8
	C140.7,383.1,107.4,381.9,86.4,360.9z"/>
<path class="st0" d="M168.9,324l-8.2,8.2l-7.2-7.2l-8,8c-2.3,2.3-5.9,2.3-8.2,0c-2.3-2.3-2.3-5.9,0-8.2l8-8l-3.8-3.8l-8,8
	c-2.3,2.3-5.9,2.3-8.2,0s-2.3-5.9,0-8.2l8-8l-4-4l-8.1,8.1c-2.3,2.3-5.9,2.3-8.2,0c-2.3-2.3-2.3-5.9,0-8.2l8.1-8.1l-7.1-7.1l8.2-8.2
	l7.1,7.1l9.7-9.7c2.3-2.3,5.9-2.3,8.2,0c1.1,1.1,1.7,2.6,1.7,4.1c0,1.5-0.6,3-1.7,4.1l-9.7,9.7l4,4l9.8-9.8c2.3-2.3,5.9-2.3,8.2,0
	c1.1,1.1,1.7,2.6,1.7,4.1c0,1.5-0.6,3-1.7,4.1l-9.8,9.8l3.8,3.8l9.8-9.8c2.3-2.3,5.9-2.3,8.2,0c1.1,1.1,1.7,2.6,1.7,4.1
	c0,1.5-0.6,3-1.7,4.1l-9.8,9.8L168.9,324l11.3-11.3c12.7-12.7,12.7-33.2,0-45.8l-0.9-0.9c-12.2-12.2-31.7-12.7-44.4-1.4
	c-0.5,0.4-1,0.9-1.5,1.4l-11.3,11.3l-0.1-0.1l-8.2,8.2l0.1,0.1L102,297.4c-0.5,0.5-0.9,1-1.4,1.5c-10.6,11.9-10.8,29.8-0.8,42
	c0.3,0.4,0.7,0.8,1,1.2c0.4,0.4,0.7,0.8,1.1,1.2l0.9,0.9c12.4,12.4,32.2,12.7,44.9,0.9c0.5-0.4,0.9-0.9,1.4-1.3L168.9,324L168.9,324
	z M200,327.6c0.3-0.3,0.6-0.6,0.8-1L163,364.5c0.3-0.3,0.7-0.5,1-0.8c1-0.9,2-1.8,2.9-2.7l30.5-30.5
	C198.3,329.5,199.2,328.6,200,327.6z M168.9,324l-8.2,8.2l-7.2-7.2l-8,8c-2.3,2.3-5.9,2.3-8.2,0c-2.3-2.3-2.3-5.9,0-8.2l8-8
	l-3.8-3.8l-8,8c-2.3,2.3-5.9,2.3-8.2,0s-2.3-5.9,0-8.2l8-8l-4-4l-8.1,8.1c-2.3,2.3-5.9,2.3-8.2,0c-2.3-2.3-2.3-5.9,0-8.2l8.1-8.1
	l-7.1-7.1l8.2-8.2l7.1,7.1l9.7-9.7c2.3-2.3,5.9-2.3,8.2,0c1.1,1.1,1.7,2.6,1.7,4.1c0,1.5-0.6,3-1.7,4.1l-9.7,9.7l4,4l9.8-9.8
	c2.3-2.3,5.9-2.3,8.2,0c1.1,1.1,1.7,2.6,1.7,4.1c0,1.5-0.6,3-1.7,4.1l-9.8,9.8l3.8,3.8l9.8-9.8c2.3-2.3,5.9-2.3,8.2,0
	c1.1,1.1,1.7,2.6,1.7,4.1c0,1.5-0.6,3-1.7,4.1l-9.8,9.8L168.9,324l11.3-11.3c12.7-12.7,12.7-33.2,0-45.8l-0.9-0.9
	c-12.2-12.2-31.7-12.7-44.4-1.4c-0.5,0.4-1,0.9-1.5,1.4l-11.3,11.3l-0.1-0.1l-8.2,8.2l0.1,0.1L102,297.4c-0.5,0.5-0.9,1-1.4,1.5
	c-10.6,11.9-10.8,29.8-0.8,42c0.3,0.4,0.7,0.8,1,1.2c0.4,0.4,0.7,0.8,1.1,1.2l0.9,0.9c12.4,12.4,32.2,12.7,44.9,0.9
	c0.5-0.4,0.9-0.9,1.4-1.3L168.9,324L168.9,324z M209.9,317.7c0.3-0.3,0.6-0.6,0.8-1l-37.9,37.9c0.3-0.3,0.7-0.5,1-0.8
	c1-0.9,2-1.8,2.9-2.7l30.5-30.5C208.2,319.6,209.1,318.7,209.9,317.7z"/>
<path class="st0" d="M180.3,312.7L168.9,324l-7.2-7.2l9.8-9.8c1.1-1.1,1.7-2.6,1.7-4.1c0-1.5-0.6-3-1.7-4.1c-2.3-2.3-5.9-2.3-8.2,0
	l-9.8,9.8l-3.8-3.8l9.8-9.8c1.1-1.1,1.7-2.6,1.7-4.1c0-1.5-0.6-3-1.7-4.1c-2.3-2.3-5.9-2.3-8.2,0l-9.8,9.8l-4-4l9.7-9.7
	c1.1-1.1,1.7-2.6,1.7-4.1c0-1.5-0.6-3-1.7-4.1c-2.3-2.3-5.9-2.3-8.2,0l-9.7,9.7l-7.1-7.1l12.7-12.7c12.7-11.3,32.2-10.8,44.4,1.4
	l0.9,0.9C192.9,279.5,192.9,300.1,180.3,312.7z"/>
<path class="st0" d="M168.9,324.1l-19.7,19.7c-0.5,0.5-0.9,0.9-1.4,1.3c-13,11.6-32.9,11.1-45.4-1.3l-0.5-0.5
	c-12.4-12.9-12.2-33.5,0.5-46.3l11.5-11.5l7.1,7.1l-8.1,8.1c-2.3,2.3-2.3,5.9,0,8.2c2.3,2.3,5.9,2.3,8.2,0l8.1-8.1l4,4l-8,8
	c-2.3,2.3-2.3,5.9,0,8.2s5.9,2.3,8.2,0l8-8l3.8,3.8l-8,8c-2.3,2.3-2.3,5.9,0,8.2c2.3,2.3,5.9,2.3,8.2,0l8-8l7.2,7.2L168.9,324.1
	L168.9,324.1z"/>
<path class="st0" d="M168.9,324l11.3-11.3c12.7-12.7,12.7-33.2,0-45.8l-0.9-0.9c-12.2-12.2-31.7-12.7-44.4-1.4
	c-0.5,0.4-1,0.9-1.5,1.4L102,297.4c-0.5,0.5-0.9,1-1.4,1.5c-10.6,11.9-10.8,29.8-0.8,42c0.3,0.4,0.7,0.8,1,1.2
	c0.4,0.4,0.7,0.8,1.1,1.2l0.9,0.9c12.4,12.4,32.2,12.7,44.9,0.9c0.3-0.3,0.6-0.6,0.9-0.9l11.9-11.9l-7.2-7.2l-8,8
	c-2.3,2.3-5.9,2.3-8.2,0c-2.3-2.3-2.3-5.9,0-8.2l8-8l-3.8-3.8l-8,8c-2.3,2.3-5.9,2.3-8.2,0s-2.3-5.9,0-8.2l8-8l-4-4l-8.1,8.1
	c-2.3,2.3-5.9,2.3-8.2,0c-2.3-2.3-2.3-5.9,0-8.2l8.1-8.1l-7.1-7.1l8.2-8.2l7.1,7.1l9.7-9.7c2.3-2.3,5.9-2.3,8.2,0
	c1.1,1.1,1.7,2.6,1.7,4.1c0,1.5-0.6,3-1.7,4.1l-9.7,9.7l4,4l9.8-9.8c2.3-2.3,5.9-2.3,8.2,0c1.1,1.1,1.7,2.6,1.7,4.1
	c0,1.5-0.6,3-1.7,4.1l-9.8,9.8l3.8,3.8l9.8-9.8c2.3-2.3,5.9-2.3,8.2,0c1.1,1.1,1.7,2.6,1.7,4.1c0,1.5-0.6,3-1.7,4.1l-9.8,9.8
	L168.9,324z"/>
<rect x="112.3" y="281.3" transform="matrix(0.7071 -0.7071 0.7071 0.7071 -164.3632 165.8814)" class="st0" width="11.6" height="0.1"/>
<rect x="159.1" y="328.1" transform="matrix(0.7071 -0.7071 0.7071 0.7071 -183.7454 212.6742)" class="st0" width="11.6" height="0"/>
<path class="st0" d="M168.9,324.1l-19.7,19.7c-0.5,0.5-0.9,0.9-1.4,1.3c-12.7,11.8-32.6,11.5-44.9-0.9l-0.9-0.9
	c-0.4-0.4-0.7-0.8-1.1-1.2c-0.4-0.4-0.7-0.8-1-1.2c-10.1-12.2-9.8-30.1,0.8-42c0.4-0.5,0.9-1,1.4-1.5l11.9-11.9l-0.1-0.1l8.2-8.2
	l0.1,0.1l11.3-11.3c0.5-0.5,1-0.9,1.5-1.4c12.7-11.3,32.2-10.8,44.4,1.4l0.9,0.9c12.7,12.7,12.7,33.2,0,45.8L168.9,324.1l-7.2-7.2
	l9.8-9.8c1.1-1.1,1.7-2.6,1.7-4.1c0-1.5-0.6-3-1.7-4.1c-2.3-2.3-5.9-2.3-8.2,0l-9.8,9.8l-3.8-3.8l9.8-9.8c1.1-1.1,1.7-2.6,1.7-4.1
	c0-1.5-0.6-3-1.7-4.1c-2.3-2.3-5.9-2.3-8.2,0l-9.8,9.8l-4-4l9.7-9.7c1.1-1.1,1.7-2.6,1.7-4.1c0-1.5-0.6-3-1.7-4.1
	c-2.3-2.3-5.9-2.3-8.2,0l-9.7,9.7l-7.1-7.1l-8.2,8.2l7.1,7.1l-8.1,8.1c-2.3,2.3-2.3,5.9,0,8.2c2.3,2.3,5.9,2.3,8.2,0l8.1-8.1l4,4
	l-8,8c-2.3,2.3-2.3,5.9,0,8.2s5.9,2.3,8.2,0l8-8l3.8,3.8l-8,8c-2.3,2.3-2.3,5.9,0,8.2c2.3,2.3,5.9,2.3,8.2,0l8-8l7.2,7.2
	L168.9,324.1L168.9,324.1z"/>
<path class="st0" d="M207.2,320.6l-40.4,40.4c-0.9,0.9-1.9,1.8-2.9,2.7l-15.6,15.6c-0.7,0.7-1.4,1.4-2.2,2
	c-17.8,15.6-44.9,14.9-61.9-2.1c-11.4-11.4-15.4-27.3-12.2-41.9c2.6,8.7,7.4,16.8,14.2,23.7c21,21,54.3,22.2,76.6,3.5l37.9-37.9
	c8.8-10.5,13.1-23.4,13.1-36.4c0-14.6-5.6-29.1-16.7-40.2c-0.5-0.5-0.9-0.9-1.4-1.3l-0.1-0.1c-0.1-0.1-0.2-0.2-0.3-0.3l0,0
	c-0.1-0.1-0.2-0.1-0.3-0.2l-0.1-0.1c-7-6.3-15.1-10.6-23.7-12.8c10.8-3.4,22.7-2.6,33,2.4c4.5,2.2,8.7,5.1,12.5,8.8
	c8.8,8.8,13.3,20.4,13.3,32c0,11.6-4.4,23.2-13.3,32l-6.3,6.3c-0.3,0.3-0.5,0.7-0.8,1C209.1,318.7,208.2,319.6,207.2,320.6z"/>
<path class="st1" d="M169,392.1l-9.9,9.9c-36.4,36.4-95.4,36.4-131.8,0c-36.4-36.4-36.4-95.4,0-131.8l9.9-9.9
	c-36.4,36.4-36.4,95.4,0,131.8c27,27,66.5,34,100,20.9C148.8,408.4,159.6,401.5,169,392.1z"/>
<path class="st2" d="M233.5,327.6L175,386.1c-19.8,19.8-48.6,25-73.2,15.6c-8.8-3.4-17-8.5-24-15.6c-7.5-7.5-12.9-16.3-16.2-25.7
	c-8.5-24.2-3.1-52.1,16.2-71.4l8.6-8.6l0,0c-13.4,13.4-18.7,31.8-16,49.2c0.4,2.6,1,5.1,1.8,7.7c-3.3,14.6,0.8,30.6,12.2,41.9
	c17,17,44.1,17.7,61.9,2.1c0.7-0.7,1.5-1.3,2.2-2l15.6-15.6c1-0.9,2-1.8,2.9-2.7l40.4-40.4c0.9-0.9,1.8-1.9,2.7-2.9l16.8-16.8
	c8.8-8.8,13.3-20.4,13.3-32c0-11.6-4.4-23.2-13.3-32c-0.4-0.4-0.8-0.7-1.2-1.1l6.4-6.9c0.5,0.5,1.1,1,1.6,1.5
	c13.4,13.4,20.1,31,20.1,48.6C253.6,296.6,246.9,314.2,233.5,327.6z"/>
<path class="st1" d="M190,303l-21.1,21.1l0,0l11.3-11.3c12.7-12.7,12.7-33.2,0-45.8l-0.9-0.9c-12.2-12.2-31.7-12.7-44.4-1.4l8.4-8.4
	c12.5-12.5,32.5-12.9,45.5-1.2c0.1,0.1,0.2,0.2,0.3,0.3c0.1,0.1,0.2,0.2,0.3,0.2l0,0c0.2,0.2,0.4,0.4,0.6,0.6
	c6.5,6.5,9.7,14.9,9.7,23.4C199.7,288,196.5,296.5,190,303z"/>
<path class="st1" d="M168.9,324l-8.2,8.2l-7.2-7.2l-8,8c-2.3,2.3-5.9,2.3-8.2,0c-2.3-2.3-2.3-5.9,0-8.2l8-8l-3.8-3.8l-8,8
	c-2.3,2.3-5.9,2.3-8.2,0s-2.3-5.9,0-8.2l8-8l-4-4l-8.1,8.1c-2.3,2.3-5.9,2.3-8.2,0c-2.3-2.3-2.3-5.9,0-8.2l8.1-8.1l-7.1-7.1l8.2-8.2
	l7.1,7.1l9.7-9.7c2.3-2.3,5.9-2.3,8.2,0c1.1,1.1,1.7,2.6,1.7,4.1c0,1.5-0.6,3-1.7,4.1l-9.7,9.7l4,4l9.8-9.8c2.3-2.3,5.9-2.3,8.2,0
	c1.1,1.1,1.7,2.6,1.7,4.1c0,1.5-0.6,3-1.7,4.1l-9.8,9.8l3.8,3.8l9.8-9.8c2.3-2.3,5.9-2.3,8.2,0c1.1,1.1,1.7,2.6,1.7,4.1
	c0,1.5-0.6,3-1.7,4.1l-9.8,9.8L168.9,324z"/>
<path class="st0" d="M168.9,324.1l-19.7,19.7c-0.5,0.5-0.9,0.9-1.4,1.3c-12.7,11.8-32.6,11.5-44.9-0.9l-0.9-0.9
	c-0.4-0.4-0.7-0.8-1.1-1.2c-0.4-0.4-0.7-0.8-1-1.2c-10.1-12.2-9.8-30.1,0.8-42c0.4-0.5,0.9-1,1.4-1.5l11.9-11.9l-0.1-0.1l8.2-8.2
	l0.1,0.1l11.3-11.3c0.5-0.5,1-0.9,1.5-1.4c12.7-11.3,32.2-10.8,44.4,1.4l0.9,0.9c12.7,12.7,12.7,33.2,0,45.8L168.9,324.1l-7.2-7.2
	l9.8-9.8c1.1-1.1,1.7-2.6,1.7-4.1c0-1.5-0.6-3-1.7-4.1c-2.3-2.3-5.9-2.3-8.2,0l-9.8,9.8l-3.8-3.8l9.8-9.8c1.1-1.1,1.7-2.6,1.7-4.1
	c0-1.5-0.6-3-1.7-4.1c-2.3-2.3-5.9-2.3-8.2,0l-9.8,9.8l-4-4l9.7-9.7c1.1-1.1,1.7-2.6,1.7-4.1c0-1.5-0.6-3-1.7-4.1
	c-2.3-2.3-5.9-2.3-8.2,0l-9.7,9.7l-7.1-7.1l-8.2,8.2l7.1,7.1l-8.1,8.1c-2.3,2.3-2.3,5.9,0,8.2c2.3,2.3,5.9,2.3,8.2,0l8.1-8.1l4,4
	l-8,8c-2.3,2.3-2.3,5.9,0,8.2s5.9,2.3,8.2,0l8-8l3.8,3.8l-8,8c-2.3,2.3-2.3,5.9,0,8.2c2.3,2.3,5.9,2.3,8.2,0l8-8l7.2,7.2
	L168.9,324.1L168.9,324.1z"/>
<path class="st2" d="M225.5,235.8c-12-11.2-28.7-14.7-43.6-10.3l0,0c-5.8,1.7-11.3,4.5-16.2,8.6c-11.2-1.7-22.7-0.1-33.1,4.8
	l-0.3-4.4l3.9-3.9c1.9-1.9,3.9-3.7,6-5.3c26.4-20.9,64.7-19.7,89.6,3.8L225.5,235.8z"/>
<path class="st1" d="M142.3,225.1c-2.1,1.6-4.1,3.4-6,5.3l-3.9,3.9l0-0.1c-0.4-4.7-1.5-11.5-4.1-18.5c-2.5-6.7-5.6-12-8.2-15.7
	l-11.3-11.3l9.6-9.6l11.5,11.5c2.6,3.6,5.7,8.6,8.2,15c2.5,6.4,3.5,12.8,4,17.5C142.1,223.9,142.2,224.5,142.3,225.1z"/>
<path class="st1" d="M226.7,300.9l-16.8,16.8c0.3-0.3,0.6-0.6,0.8-1l6.3-6.3c8.8-8.8,13.3-20.4,13.3-32c0-11.6-4.4-23.2-13.3-32
	c-3.7-3.7-7.9-6.7-12.5-8.8c-10.4-5-22.2-5.8-33-2.4c-1.9-0.5-3.8-0.9-5.7-1.2c4.9-4,10.4-6.9,16.2-8.6l0,0
	c14.9-4.3,31.5-0.9,43.6,10.3c0.4,0.4,0.8,0.7,1.2,1.1c8.8,8.8,13.3,20.4,13.3,32C239.9,280.5,235.5,292.1,226.7,300.9z"/>
<path class="st1" d="M172.9,354.6l-9.9,9.9c-22.4,18.6-55.6,17.5-76.6-3.5c-6.9-6.9-11.6-15-14.2-23.7c-0.8-2.5-1.4-5.1-1.8-7.7
	c-2.7-17.4,2.6-35.8,16-49.2l9.9-9.9c-13.2,13.2-18.6,31.4-16.1,48.6c0,0.2,0.1,0.4,0.1,0.6c0,0,0,0,0,0.1c0.4,2.6,1,5.1,1.7,7.6
	c2.1,7,5.7,13.8,10.6,19.7c0.4,0.5,0.8,0.9,1.1,1.3c0,0,0.1,0.1,0.1,0.1l0,0c0.8,0.8,1.5,1.7,2.4,2.5
	C117.3,372,150.6,373.2,172.9,354.6z"/>
<path class="st0" d="M207.2,320.6l-40.4,40.4c-0.9,0.9-1.9,1.8-2.9,2.7l-15.6,15.6c-0.7,0.7-1.4,1.4-2.2,2
	c-17.8,15.6-44.9,14.9-61.9-2.1c-11.4-11.4-15.4-27.3-12.2-41.9c2.6,8.7,7.4,16.8,14.2,23.7c21,21,54.3,22.2,76.6,3.5l37.9-37.9
	c8.8-10.5,13.1-23.4,13.1-36.4c0-14.6-5.6-29.1-16.7-40.2c-0.5-0.5-0.9-0.9-1.4-1.3l-0.1-0.1c-0.1-0.1-0.2-0.2-0.3-0.3l0,0
	c-0.1-0.1-0.2-0.1-0.3-0.2l-0.1-0.1c-7-6.3-15.1-10.6-23.7-12.8c10.8-3.4,22.7-2.6,33,2.4c4.5,2.2,8.7,5.1,12.5,8.8
	c8.8,8.8,13.3,20.4,13.3,32c0,11.6-4.4,23.2-13.3,32l-6.3,6.3c-0.3,0.3-0.5,0.7-0.8,1C209.1,318.7,208.2,319.6,207.2,320.6z"/>
<path class="st3" d="M137.2,413c-33.4,13.1-73,6.2-100-20.9c-36.4-36.4-36.4-95.4,0-131.8l44.4-44.4l8.2,8.2
	c2.5,3.3,7.8,11.4,8.6,22.9c1.1,17.1-8.3,29.2-10.5,31.6l0.1,0.1l-20.1,20.1c-26.8,26.8-26.8,70.3,0,97.2
	C86.6,414.8,113.5,420.4,137.2,413z"/>
<path class="st1" d="M101.3,265.5L88,278.7l-0.1-0.1c2.2-2.5,11.6-14.5,10.5-31.6c-0.7-11.5-6.1-19.5-8.6-22.9l-8.2-8.2l10.1-10.1
	l9,9c2.2,2.9,8.9,12.6,8.6,26.6C109.1,253.7,103.5,262.4,101.3,265.5L101.3,265.5z"/>
<path class="st1" d="M175,386.1l-6,6c-9.4,9.4-20.2,16.3-31.8,20.9c-23.6,7.5-50.5,1.8-69.3-16.9c-26.8-26.8-26.8-70.4,0-97.2
	l9.9-9.9c-19.3,19.3-24.7,47.3-16.2,71.4c3.3,9.4,8.7,18.2,16.2,25.7c7.1,7.1,15.3,12.2,24,15.6C126.3,411.1,155.2,405.9,175,386.1z
	"/>
<path class="st3" d="M321.8,175.3l-51.2-3.4l-2.9-0.2c-4.5,0.2-10.9,0.3-16.2,0.4c-6.2,0.1-12.6,0.2-18.2,0.6
	c-7.4,0.3-17.8,1.6-28,4.1c-10.5,2.5-19.2,6-26,9.2l-37.2,37.2l-0.1,0c-0.5-4.7-1.5-11.2-4-17.5c-2.5-6.4-5.6-11.5-8.2-15
	l-11.5-11.5l14.1-14.1c1.9-1.9,3.8-3.7,5.9-5.4l0-0.1c1.5-1.4,4.7-5.2,6.5-7.7c0.9-1.2,2.9-4,4.8-8.1c1.4-3,3.3-7.8,5.5-19.4
	c0.9-4.8,1.9-11,2.6-18.4c0.5-12.7,1.1-25.5,1.6-38.2l0.2,0l-3.8-58.4c-0.5-8,9.2-12.4,14.9-6.7l157.9,157.9
	C334.3,166.1,329.9,175.9,321.8,175.3z"/>
<path class="st4" d="M69.1,149L51.9,166l-16.6-6.6l-9.9-9.9c-2.1-2.1-2.1-5.6,0-7.7l9.9-9.9c-2.1,2.1-2.1,5.6,0,7.7l9.9,9.9
	l16.6,6.6L69.1,149L69.1,149z"/>
<path class="st5" d="M69,149l-7.2,7.1l-16.6-6.6l-9.9-9.9c-2.1-2.1-2.1-5.6,0-7.7l8.5-8.5c2.8-2.8,7.2-2.8,10,0l8.8,8.8L69,149z"/>
<path class="st0" d="M118.4,179.1C118.4,179.1,118.4,179.1,118.4,179.1"/>
<path class="st0" d="M142.3,225.2C142.3,225.2,142.3,225.2,142.3,225.2"/>
<path class="st0" d="M268.1,171.7c-0.1,0-0.2,0-0.3,0"/>
<path class="st3" d="M200.9,326.6l-28,28c-22.4,18.6-55.6,17.5-76.6-3.5c-0.8-0.8-1.6-1.7-2.4-2.5l7-6.5c0.4,0.4,0.7,0.8,1.1,1.2
	l0.9,0.9c12.4,12.4,32.2,12.7,44.9,0.9c0.5-0.4,0.9-0.9,1.4-1.3L190,303c6.5-6.5,9.7-14.9,9.7-23.4c0-8.5-3.2-16.9-9.7-23.4
	c-0.2-0.2-0.4-0.4-0.6-0.6l0,0l6.6-6.9c0.5,0.4,0.9,0.9,1.4,1.3c11.1,11.1,16.7,25.7,16.7,40.2C214,303.2,209.6,316.1,200.9,326.6z"
	/>
<path class="st3" d="M189.4,255.6c-0.1-0.1-0.2-0.2-0.3-0.2c-0.1-0.1-0.2-0.2-0.3-0.3c-13-11.7-33-11.3-45.5,1.2l-8.4,8.4
	c-0.5,0.4-1,0.9-1.5,1.4l-11.3,11.3l-0.1-0.1l-8.2,8.2l0.1,0.1L102,297.4c-0.5,0.5-0.9,1-1.4,1.5c-10.6,11.9-10.8,29.8-0.8,42
	c0.3,0.4,0.7,0.8,1,1.2l-7,6.5l0,0c0,0-0.1-0.1-0.1-0.1c-0.4-0.4-0.8-0.9-1.1-1.3c-4.9-5.9-8.4-12.7-10.6-19.7
	c-0.8-2.5-1.3-5-1.7-7.6c0,0,0,0,0-0.1c0-0.2-0.1-0.4-0.1-0.6c-2.5-17.2,2.8-35.3,16.1-48.6l-9.9,9.9l0,0l14.9-14.9l0,0
	c2.2-3.1,7.8-11.8,8.1-24.1c0.3-14-6.4-23.7-8.6-26.6L51.9,166L69.1,149l0-0.1l51.1,51.1c2.6,3.8,5.7,9,8.2,15.7
	c2.6,7,3.7,13.8,4.1,18.5l0,0.1l0.3,4.4c10.4-4.9,22-6.5,33.1-4.8c1.9,0.3,3.8,0.7,5.7,1.2c8.6,2.2,16.7,6.5,23.7,12.8l0.1,0.1
	c0.1,0.1,0.2,0.2,0.3,0.2l0,0c0.1,0.1,0.2,0.2,0.3,0.3l0.1,0.1L189.4,255.6z"/>
</svg>
