<?xml version="1.0" encoding="utf-8"?>
<!-- Generator: Adobe Illustrator 28.1.0, SVG Export Plug-In . SVG Version: 6.00 Build 0)  -->
<svg version="1.1" id="Layer_2" xmlns="http://www.w3.org/2000/svg" xmlns:xlink="http://www.w3.org/1999/xlink" x="0px" y="0px"
	 viewBox="0 0 497.4 511.4" style="enable-background:new 0 0 497.4 511.4;" xml:space="preserve">
<style type="text/css">
	.st0{fill:#D44242;stroke:#000000;stroke-width:7;stroke-linecap:round;stroke-miterlimit:10;}
	.st1{fill:#FFFFFF;stroke:#000000;stroke-width:7;stroke-linecap:round;stroke-miterlimit:10;}
	.st2{fill:none;stroke:#000000;stroke-width:7;stroke-linecap:round;stroke-miterlimit:10;}
	.st3{fill:#654D4D;stroke:#000000;stroke-width:7;stroke-linecap:round;stroke-miterlimit:10;}
</style>
<path class="st0" d="M214.9,219.9c-1.3-5.8-25.2-10-46.2-1.3c-21.3,8.8-31.1,23.7-41.9,41.9c-16.6,27.9-16.6,39-28.3,50.2
	c-16.6,16-53.9,17-64.2,22.3c-12.4,6.4-18.3,8.3-25.6,27.6c-14.3,37.7,2.7,81.7,28.6,107.1c10.4,10.2,22.4,20.1,35.5,27.5l0.1-0.1
	C82.9,490,93,484.5,101.4,477c8.4-7.5,15.3-17.3,17.5-28.4c2.3-11.1-0.6-23.5-8.8-31.3c-8.5-8.1-21.6-10.4-29.3-19.2
	c-8-9.1-8-23.3-2.7-34.1c5.4-10.8,15.2-18.8,25.7-24.9c10.4-6.1,21.7-10.7,32-16.9c17.5-10.6,32.1-25.9,41.8-43.9
	c-1.5-8.7-1.5-18.6,3-27.7C190.6,230,216.3,226.2,214.9,219.9z M77,431.7c8.8,8.8,10.9,21,4.6,27.3c-6.3,6.3-18.5,4.2-27.3-4.6
	c-8.8-8.8-10.9-21-4.6-27.3C56,420.9,68.2,422.9,77,431.7z M148.4,289.8c-7.2,0-13-5.2-13-11.7s5.8-11.7,13-11.7
	c7.1,0,12.9,5.2,12.9,11.7S155.6,289.8,148.4,289.8z"/>
<path class="st1" d="M275.1,316.4c-3.3-2-9.3,14.3-36.6,19.3c-15.9,2.9-29.6-8.3-34.6-13.6c-0.6-0.9-1.3-1.7-1.9-2.6
	c-2.5,2.6-4.9,5-7.1,7.2c-8.8,8.9-14.4,14.6-14.9,14.8c-2.2,0.9-23.2-14.8-22.1-18.6c0.3-0.9,6.3-7.7,15.6-17.9
	c2.9-3.2,6.2-6.8,9.7-10.6c-0.6-0.9-1.3-1.7-1.9-2.6c-1.4-3.9-2.8-8.5-3.7-13.5c-9.7,18-24.3,33.4-41.8,43.9
	c-10.3,6.2-21.6,10.8-32,16.9c-10.4,6.1-20.3,14-25.7,24.9c-5.4,10.8-5.3,25,2.7,34.1c7.7,8.8,20.8,11.1,29.3,19.2
	c8.2,7.8,11.1,20.2,8.8,31.3c-2.3,11.1-9.1,20.8-17.5,28.4c-8.4,7.5-18.5,13.1-28.6,18.1l-0.1,0.1c25.6,14.6,55.4,19.6,85.6-1.9
	c39.6-28.3,18.7-54.9,39.9-95.1c15.6-29.6,44.1-19.4,62.8-40.2C280.1,336.9,278.8,318.6,275.1,316.4z M133.3,483.5
	c-6.1,0-11-4.7-11-10.5c0-5.8,4.9-10.6,11-10.6c6.1,0,11,4.7,11,10.6C144.3,478.8,139.4,483.5,133.3,483.5z M153.8,451.6
	c-6.1,0-11-4.7-11-10.5c0-5.8,4.9-10.6,11-10.6c6.1,0,11,4.7,11,10.6C164.9,446.8,159.9,451.6,153.8,451.6z"/>
<path class="st2" d="M172.3,284.8"/>
<path class="st2" d="M177.7,278.2C177.7,278.3,177.7,278.3,177.7,278.2"/>
<line class="st2" x1="100.9" y1="377.8" x2="130" y2="401.3"/>
<line class="st2" x1="118" y1="356.7" x2="147.5" y2="383.3"/>
<line class="st2" x1="135.3" y1="337.5" x2="166.8" y2="367.2"/>
<path class="st1" d="M161.4,278.1c0,6.4-5.8,11.7-12.9,11.7c-7.2,0-13-5.2-13-11.7s5.8-11.7,13-11.7
	C155.6,266.5,161.4,271.7,161.4,278.1z"/>
<path class="st3" d="M81.6,459c-6.3,6.3-18.5,4.2-27.3-4.6c-8.8-8.8-10.9-21-4.6-27.3c6.3-6.3,18.5-4.2,27.3,4.6
	C85.8,440.5,87.9,452.8,81.6,459z"/>
<path class="st0" d="M164.9,441c0,5.8-4.9,10.5-11,10.5c-6.1,0-11-4.7-11-10.5c0-5.8,4.9-10.6,11-10.6
	C159.9,430.5,164.9,435.2,164.9,441z"/>
<path class="st0" d="M144.3,472.9c0,5.8-4.9,10.5-11,10.5c-6.1,0-11-4.7-11-10.5c0-5.8,4.9-10.6,11-10.6
	C139.4,462.4,144.3,467.1,144.3,472.9z"/>
<path class="st0" d="M480.6,58.3c-8.5,4.8-17.3,3.3-20,2.7c-11.6,17.3-23.3,34.6-34.9,51.9c-2.4-3.5-4.9-6.8-7.3-10
	c-5.4-7.1-10.7-13.8-16-21c-1.8-2.4-3.5-4.8-5.3-7.3c-2.3-5.3,3.2-8.8,5-11.6c1.5-1,3-1.9,4.6-2.9c4.4-2.8,8.9-5.6,13.3-8.4
	c3.7-2.3,7.3-4.6,10.9-6.9c3.9-2.5,7.8-4.9,11.7-7.4c4.2-2.6,8.4-5.3,12.5-7.9c0.7-0.5,1.4-0.9,2.1-1.4c1.8-1,5.1-2.7,9.5-3.4
	c2-0.3,4.1-0.5,6.5-0.3c6.2,0.5,18,3.7,20.3,12.6C495.8,46.1,487,54.7,480.6,58.3z"/>
<line class="st2" x1="415.6" y1="71.4" x2="426.3" y2="64.8"/>
<line class="st2" x1="433.6" y1="58.7" x2="444" y2="51.4"/>
<line class="st2" x1="457.7" y1="43.8" x2="468.5" y2="37"/>
<path class="st3" d="M420,51.7c-4.4,2.8-8.9,5.6-13.3,8.4l0,0c-3.7-4.2-7.3-8.4-11-12.6c-1.9-3.8-1-8.4,2.2-11.1
	c3.4-3,8.7-3,12.4-0.1c3.2,5.1,6.5,10.2,9.7,15.4L420,51.7z"/>
<path class="st3" d="M442.6,37.4c-3.9,2.5-7.8,5-11.7,7.4l-0.1-0.2c-4.2-5-8.5-10.1-12.7-15.1c-2.2-4.5-2.6-8.9,1-12.1
	c3.9-3.5,9-1.8,13.2,1.6c3.7,6,6.5,12.2,10.2,18.2L442.6,37.4z"/>
<path class="st3" d="M466.8,24.7c-4.4,0.7-7.7,2.4-9.5,3.4c-0.7,0.5-1.4,0.9-2.1,1.4l0-0.1c-3.2-4.8-6.4-9.8-9.6-14.6
	c-1.4-4.1-1.2-8,2.5-10.2c4-2.4,8.5-0.3,11.9,3.2C462.5,13.4,464.2,19.1,466.8,24.7z"/>
<line class="st2" x1="466.8" y1="24.7" x2="466.8" y2="24.7"/>
<path class="st3" d="M210.5,310.7c-3,3.1-5.9,6-8.6,8.8c-2.5,2.6-4.9,5-7.1,7.2l-21.4-21.7c2.9-3.2,6.2-6.8,9.7-10.6
	c1.9-2.1,3.9-4.2,6-6.5l0.2,0.2L210.5,310.7z"/>
<path class="st3" d="M194.9,326.7c-8.8,8.9-14.4,14.6-14.9,14.8c-2.2,0.9-23.2-14.8-22.1-18.6c0.3-0.9,6.3-7.7,15.6-17.9
	L194.9,326.7z"/>
<path class="st3" d="M228.6,292.2c-6.3,6.5-12.4,12.8-18,18.5l-21.1-22.6l-0.2-0.2c5.2-5.6,10.8-11.6,16.5-17.7l0.2,0.2L228.6,292.2
	z"/>
<path class="st3" d="M249.9,270.2c-7.1,7.3-14.3,14.8-21.3,21.9l-22.7-21.8l-0.2-0.2c7.1-7.6,14.6-15.5,21.9-23.3l0.2,0.2
	L249.9,270.2z"/>
<path class="st3" d="M268.1,251.4c-5.8,6-12,12.4-18.2,18.8l-22-23.2l-0.2-0.2c6.2-6.5,12.2-12.9,18-19l0.1,0.1L268.1,251.4z"/>
<path class="st3" d="M290.4,228.4c-6.4,6.6-14,14.5-22.2,23l-22.3-23.5l-0.1-0.1c8-8.5,15.6-16.3,21.9-23l0.1,0.1L290.4,228.4z"/>
<path class="st3" d="M309.2,209c-0.6,0.6-1,1-1.4,1.4c-2.2,2.3-8.6,8.9-17.4,18L267.8,205l-0.1-0.1c6.7-7,12.2-12.6,15.7-16.2
	c1.1-1.2,2.4-2.4,3.9-3.9l0.2,0.2L309.2,209z"/>
<path class="st3" d="M328.2,190.3c-8.7,8.5-15.6,15.2-19,18.7l-21.6-24l-0.2-0.2c5-4.9,12-11.3,20-18.6l0.3,0.4L328.2,190.3z"/>
<path class="st3" d="M350.4,168.8c-8,7.7-15.6,15.1-22.2,21.5l-20.6-23.7l-0.3-0.4c7.1-6.5,15-13.6,23.2-20.9l0.1,0.2l19.6,23.1
	L350.4,168.8z"/>
<path class="st3" d="M371,148.8c-6.8,6.6-13.8,13.4-20.6,20l-0.2-0.2l-19.6-23.1l-0.1-0.2c6.8-6.1,13.8-12.3,20.6-18.3l0.2,0.2
	L371,148.8z"/>
<path class="st3" d="M394.7,125.9c-7.1,6.9-15.2,14.8-23.6,22.9l-19.8-21.6l-0.2-0.2c8.8-7.8,17.3-15.3,24.8-21.9l0.1,0.1l18.3,20.3
	L394.7,125.9z"/>
<path class="st3" d="M418.4,102.9l-0.3,0.2c0,0-9.8,9.5-23.5,22.8l-0.4-0.4L376,105.2l-0.1-0.1c15.4-13.5,26.3-23,26.3-23l0.2-0.1
	C407.8,89.2,413.1,95.8,418.4,102.9z"/>
<line class="st2" x1="194.9" y1="326.7" x2="194.9" y2="326.7"/>
<line class="st2" x1="210.7" y1="310.9" x2="210.5" y2="310.7"/>
<line class="st2" x1="229" y1="292.6" x2="228.6" y2="292.2"/>
<line class="st2" x1="250" y1="270.3" x2="249.9" y2="270.2"/>
<line class="st2" x1="268.3" y1="251.5" x2="268.1" y2="251.4"/>
<line class="st2" x1="290.7" y1="228.8" x2="290.4" y2="228.4"/>
<line class="st2" x1="309.3" y1="209.1" x2="309.2" y2="209"/>
<line class="st2" x1="328.3" y1="190.4" x2="328.2" y2="190.3"/>
<line class="st2" x1="371" y1="148.8" x2="371" y2="148.8"/>
</svg>
