<?xml version="1.0" encoding="utf-8"?>
<!-- Generator: Adobe Illustrator 28.1.0, SVG Export Plug-In . SVG Version: 6.00 Build 0)  -->
<svg version="1.1" id="Layer_2" xmlns="http://www.w3.org/2000/svg" xmlns:xlink="http://www.w3.org/1999/xlink" x="0px" y="0px"
	 viewBox="0 0 384.1 383.4" style="enable-background:new 0 0 384.1 383.4;" xml:space="preserve">
<style type="text/css">
	.st0{fill:#575158;}
	.st1{fill:#6B5F6B;}
	.st2{fill:none;}
	.st3{fill:#F4F2F4;}
	.st4{fill:#E3DFE2;}
	.st5{fill:#CAC3CB;}
	.st6{fill:#7A6D7A;}
	.st7{fill:#433F43;}
</style>
<rect x="327.4" y="52.8" transform="matrix(0.7071 -0.7071 0.7071 0.7071 53.6542 254.3299)" class="st0" width="12.9" height="19.2"/>
<rect x="300.3" y="73.9" transform="matrix(0.7071 -0.7071 0.7071 0.7071 32.473 245.4859)" class="st0" width="24.5" height="19.3"/>
<path class="st0" d="M302.7,107l-34.3,34.3l-21,21l-4.4,4.4l-0.2-0.2c7-7,7-18.3,0-25.2c-0.3-0.3-0.6-0.6-0.9-0.8l0.3-0.3L289,93.3
	l0.1,0.1L302.7,107z"/>
<path class="st0" d="M243.1,166.7l-3.9,4l-34.5,34.5l-4.1,4.1l-0.3-0.3c7-7,7-18.3,0-25.2c-0.2-0.2-0.5-0.5-0.7-0.7l0.1-0.1l17-17
	l0.3-0.2c0.2,0.3,0.5,0.5,0.7,0.8c7,7,18.3,7,25.2,0L243.1,166.7z"/>
<path class="st0" d="M200.6,209.2l-42.4,42.4l-0.4-0.3c7-7,7-18.3,0-25.2c-0.2-0.2-0.4-0.4-0.7-0.6l0.1-0.1l17.1-17.1
	c0.2,0.2,0.5,0.5,0.7,0.8c7,7,18.3,7,25.2,0L200.6,209.2z"/>
<path class="st0" d="M158.2,251.6l-42.7,42.7L102,280.8l-0.2-0.2l30-30l0.1-0.1c0.2,0.2,0.5,0.5,0.7,0.7c7,7,18.3,7,25.2,0
	L158.2,251.6z"/>
<path class="st1" d="M131.9,250.5l-0.1,0.1l-30,30L90,268.9l40.6-40.6c-0.2,0.2-0.3,0.5-0.5,0.7c-0.1,0.1-0.2,0.2-0.2,0.3
	c-0.1,0.2-0.3,0.4-0.4,0.7c-0.5,1-1,2-1.3,3c-0.1,0.2-0.1,0.5-0.2,0.7c-0.1,0.4-0.2,0.8-0.3,1.2c-0.1,0.3-0.1,0.5-0.1,0.8
	c0,0.1-0.1,0.2-0.1,0.3c-0.1,0.4-0.1,0.8-0.1,1.2c0,0,0,0,0,0c0,0.4-0.1,0.8-0.1,1.2c0,1.6,0.2,3.3,0.6,4.9c0.1,0.4,0.2,0.8,0.4,1.2
	C129.1,246.6,130.3,248.7,131.9,250.5z"/>
<path class="st1" d="M174.4,208.2l-17.1,17.1l-0.1,0.1c-2.9-2.7-6.6-4.2-10.3-4.5c-1.3-0.1-2.6-0.1-3.8,0c-0.3,0-0.6,0.1-1,0.1
	c-0.3,0-0.6,0.1-0.9,0.2c-0.3,0.1-0.6,0.1-0.9,0.2c-0.6,0.2-1.2,0.4-1.7,0.6c-0.3,0.1-0.6,0.2-0.9,0.4c-0.2,0.1-0.5,0.2-0.7,0.3
	c-0.2,0.1-0.4,0.2-0.6,0.3c-0.2,0.1-0.4,0.2-0.6,0.4c-0.2,0.1-0.4,0.3-0.6,0.4c-0.1,0-0.2,0.1-0.3,0.2l38.8-38.8
	c-0.2,0.3-0.4,0.5-0.6,0.8c0,0,0,0.1-0.1,0.1c-0.2,0.3-0.4,0.6-0.6,1c0,0,0,0,0,0c-0.2,0.3-0.4,0.6-0.5,1c-0.2,0.3-0.3,0.7-0.5,1
	c-0.1,0.3-0.2,0.6-0.3,0.9c-0.1,0.3-0.2,0.7-0.3,1c-0.1,0.2-0.2,0.5-0.2,0.8c-0.2,0.9-0.4,1.8-0.5,2.8c0,0.3-0.1,0.6-0.1,0.9
	c0,0.1,0,0.2,0,0.3c0,0.1,0,0.3,0,0.4c0,0.1,0,0.2,0,0.4c0,0,0,0,0,0c0,0.1,0,0.2,0,0.3c0,0.3,0,0.7,0,1c0,0.3,0.1,0.7,0.1,1
	c0,0.2,0.1,0.5,0.1,0.7c0,0.1,0,0.2,0.1,0.3c0.2,0.8,0.4,1.5,0.6,2.2C171.6,204.3,172.8,206.4,174.4,208.2z"/>
<path class="st1" d="M216.9,165.7l-0.3,0.2l-17,17l-0.1,0.1c-2.9-2.6-6.5-4.1-10.2-4.4c-0.9-0.1-1.7-0.1-2.6-0.1c-0.2,0-0.5,0-0.8,0
	c-0.3,0-0.5,0.1-0.8,0.1c-1.6,0.2-3.3,0.7-4.8,1.4c-0.3,0.1-0.5,0.2-0.8,0.4c-0.2,0.1-0.5,0.3-0.8,0.4c-0.1,0.1-0.2,0.1-0.4,0.2
	c-0.1,0.1-0.2,0.2-0.4,0.2c-0.5,0.3-1,0.6-1.4,1l40-40c-0.1,0.1-0.2,0.3-0.3,0.4c-0.1,0.1-0.2,0.3-0.3,0.4c-0.1,0.1-0.2,0.2-0.3,0.4
	c-0.1,0.2-0.2,0.3-0.3,0.5c-0.2,0.3-0.3,0.5-0.5,0.8c0,0.1-0.1,0.2-0.2,0.2c-0.1,0.3-0.3,0.5-0.4,0.8c-0.1,0.2-0.2,0.4-0.3,0.5
	c-0.1,0.2-0.2,0.3-0.2,0.5c-0.1,0.2-0.1,0.4-0.2,0.5c-0.3,0.9-0.6,1.8-0.8,2.7c-0.1,0.3-0.1,0.7-0.2,1c0,0.1,0,0.2-0.1,0.4
	c0,0.2-0.1,0.5-0.1,0.8c0,0.2,0,0.5-0.1,0.7c0,0.2,0,0.4,0,0.6c0,0.2,0,0.3,0,0.5c0,0.2,0,0.5,0,0.7c0,0.1,0,0.3,0,0.4
	c0,0.3,0,0.6,0.1,0.9c0,0,0,0.1,0,0.1c0.1,0.4,0.1,0.8,0.2,1.2c0.1,0.5,0.2,0.9,0.3,1.4c0.1,0.3,0.2,0.7,0.3,1
	C214.2,161.8,215.3,163.9,216.9,165.7z"/>
<path class="st1" d="M289,93.3l-46.8,46.8l-0.3,0.3c-2.9-2.5-6.4-4-10-4.3c-0.4,0-0.8-0.1-1.1-0.1c-0.5,0-1,0-1.5,0
	c-0.2,0-0.5,0-0.7,0.1c-0.2,0-0.5,0-0.7,0.1c-0.6,0.1-1.3,0.2-1.9,0.4c-0.2,0-0.5,0.1-0.7,0.2c-0.3,0.1-0.5,0.2-0.8,0.2
	c0,0-0.1,0-0.1,0c-0.1,0-0.2,0.1-0.3,0.1c-0.3,0.1-0.5,0.2-0.8,0.3c-0.3,0.1-0.5,0.2-0.8,0.4c-0.2,0.1-0.4,0.2-0.6,0.3
	s-0.4,0.2-0.6,0.3c-0.4,0.2-0.8,0.5-1.2,0.7c-0.2,0.1-0.4,0.3-0.5,0.4c-0.1,0.1-0.2,0.1-0.3,0.2c-0.2,0.2-0.4,0.3-0.6,0.5l58.7-58.7
	L289,93.3z"/>
<rect x="287.6" y="62.5" transform="matrix(0.7071 -0.7071 0.7071 0.7071 37.7348 232.7827)" class="st1" width="24.5" height="16.6"/>
<rect x="314.7" y="41.3" transform="matrix(0.7071 -0.7071 0.7071 0.7071 58.916 241.6267)" class="st1" width="12.9" height="16.8"/>
<path class="st2" d="M178.1,181.2c-0.5,0.3-0.9,0.6-1.4,1C177.2,181.9,177.6,181.5,178.1,181.2z"/>
<rect x="94.5" y="271.7" transform="matrix(0.7071 -0.7071 0.7071 0.7071 -177.1306 151.7935)" class="st2" width="0.2" height="35.9"/>
<path class="st3" d="M355.3,66.8c-1.1,1.1-2.5,1.7-4,1.7c-1.4,0-2.9-0.6-4-1.7l-29.9-29.9c-2.2-2.2-2.2-5.8,0-8
	c1.1-1.1,2.6-1.7,4-1.7c1.4,0,2.9,0.5,4,1.7l29.9,29.9C357.5,61,357.5,64.6,355.3,66.8z"/>
<path class="st3" d="M338.6,84.2c-1.1,1.1-2.6,1.7-4,1.7c-1.5,0-2.9-0.6-4-1.7l-29.9-29.9c-2.2-2.2-2.2-5.8,0-8
	c1.1-1.1,2.5-1.7,4-1.7c1.4,0,2.9,0.6,4,1.7l29.9,29.9C340.8,78.4,340.8,82,338.6,84.2z"/>
<path class="st3" d="M312.8,109.1c-1.1,1.1-2.5,1.7-4,1.7c-1.4,0-2.9-0.5-4-1.6l-29.9-29.9c-2.2-2.2-2.2-5.8,0-8
	c1.1-1.1,2.5-1.7,4-1.7c1.5,0,2.9,0.6,4,1.7l29.9,29.9C315,103.3,315,106.9,312.8,109.1z"/>
<path class="st2" d="M218.7,140.3l-2,2c0.3-0.4,0.6-0.7,1-1c0.2-0.2,0.5-0.4,0.7-0.6C218.4,140.5,218.5,140.4,218.7,140.3z"/>
<path class="st4" d="M227.7,154.5c-3.9,3.9-9.2,5.6-14.3,5.1c-0.1-0.3-0.2-0.6-0.3-1c-0.1-0.5-0.2-0.9-0.3-1.4
	c-0.1-0.4-0.1-0.8-0.2-1.2c0,0,0-0.1,0-0.1c0-0.3-0.1-0.6-0.1-0.9c0-0.1,0-0.3,0-0.4c0-0.2,0-0.5,0-0.7c0-0.2,0-0.3,0-0.5
	c0-0.2,0-0.4,0-0.6c0-0.2,0-0.5,0.1-0.7c0-0.3,0-0.5,0.1-0.8c0-0.1,0-0.3,0.1-0.4c0-0.3,0.1-0.7,0.2-1c0.2-0.9,0.5-1.8,0.8-2.7
	c0.1-0.2,0.1-0.3,0.2-0.5c0.1-0.2,0.2-0.4,0.2-0.5c0.1-0.2,0.2-0.4,0.3-0.5c0.1-0.3,0.3-0.5,0.4-0.8c0-0.1,0.1-0.2,0.2-0.2
	c0.2-0.3,0.3-0.5,0.5-0.8c0.1-0.2,0.2-0.3,0.3-0.5c0.1-0.1,0.2-0.2,0.3-0.4c0.1-0.1,0.2-0.3,0.3-0.4c0.1-0.1,0.2-0.3,0.3-0.4l0,0
	l2-2c0.2-0.2,0.4-0.3,0.6-0.5c0.1-0.1,0.2-0.2,0.3-0.2c0.2-0.1,0.4-0.3,0.5-0.4c0.4-0.3,0.8-0.5,1.2-0.7c0.2-0.1,0.4-0.2,0.6-0.3
	s0.4-0.2,0.6-0.3c0.2-0.1,0.5-0.2,0.8-0.4c0.3-0.1,0.5-0.2,0.8-0.3c0.1,0,0.2-0.1,0.3-0.1c0,0,0.1,0,0.1,0c0.3-0.1,0.5-0.2,0.8-0.2
	c0.2-0.1,0.5-0.1,0.7-0.2c0.6-0.2,1.3-0.3,1.9-0.4c0.2,0,0.5-0.1,0.7-0.1c0.2,0,0.5,0,0.7-0.1c0.5,0,1,0,1.5,0c0.4,0,0.8,0,1.1,0.1
	C234.1,142.3,232.7,149.5,227.7,154.5z"/>
<path class="st2" d="M218.7,140.3l-2,2c0.3-0.4,0.6-0.7,1-1c0.2-0.2,0.5-0.4,0.7-0.6C218.4,140.5,218.5,140.4,218.7,140.3z"/>
<path class="st5" d="M200.3,208.9c-7,7-18.3,7-25.2,0c-0.2-0.2-0.5-0.5-0.7-0.8c-1.6-1.8-2.8-3.9-3.6-6.1c5.1,0.5,10.4-1.2,14.3-5.2
	c5-5,6.4-12.2,4.3-18.4c3.7,0.3,7.3,1.8,10.2,4.4c0.3,0.2,0.5,0.5,0.7,0.7C207.3,190.7,207.3,202,200.3,208.9z"/>
<path class="st2" d="M176.7,182.2l-3.1,3.1c0.2-0.3,0.4-0.6,0.7-0.8c0.1-0.1,0.2-0.3,0.4-0.4c0.1-0.1,0.2-0.3,0.4-0.4
	c0.2-0.2,0.4-0.4,0.6-0.5c0.1-0.1,0.2-0.1,0.2-0.2C176.2,182.7,176.4,182.5,176.7,182.2z"/>
<path class="st4" d="M185.1,197c-3.9,3.9-9.2,5.6-14.3,5.2c-0.2-0.7-0.4-1.5-0.6-2.2c0-0.1,0-0.2-0.1-0.3c0-0.2-0.1-0.5-0.1-0.7
	c0-0.3-0.1-0.7-0.1-1c0-0.3,0-0.7,0-1c0-0.1,0-0.2,0-0.3c0,0,0,0,0,0c0-0.1,0-0.2,0-0.4c0-0.1,0-0.2,0-0.4c0-0.1,0-0.2,0-0.3
	c0-0.3,0-0.6,0.1-0.9c0.1-0.9,0.2-1.9,0.5-2.8c0.1-0.3,0.1-0.5,0.2-0.8c0.1-0.3,0.2-0.7,0.3-1c0.1-0.3,0.2-0.6,0.3-0.9
	c0.1-0.3,0.3-0.7,0.5-1c0.2-0.3,0.3-0.6,0.5-1c0,0,0,0,0,0c0.2-0.3,0.4-0.6,0.6-1c0,0,0-0.1,0.1-0.1c0.2-0.3,0.4-0.6,0.6-0.8
	l3.1-3.1c0.5-0.4,0.9-0.7,1.4-1c0.1-0.1,0.2-0.2,0.4-0.2c0.1-0.1,0.2-0.2,0.4-0.2c0.2-0.1,0.5-0.3,0.8-0.4c0.2-0.1,0.5-0.2,0.8-0.4
	c1.5-0.7,3.2-1.2,4.8-1.4c0.3,0,0.5-0.1,0.8-0.1c0.2,0,0.5,0,0.8,0c0.8,0,1.7,0,2.6,0.1C191.5,184.8,190.1,192,185.1,197z"/>
<path class="st2" d="M176.7,182.2l-3.1,3.1c0.2-0.3,0.4-0.6,0.7-0.8c0.1-0.1,0.2-0.3,0.4-0.4c0.1-0.1,0.2-0.3,0.4-0.4
	c0.2-0.2,0.4-0.4,0.6-0.5c0.1-0.1,0.2-0.1,0.2-0.2C176.2,182.7,176.4,182.5,176.7,182.2z"/>
<path class="st2" d="M178.1,181.2c-0.5,0.3-0.9,0.6-1.4,1C177.2,181.9,177.6,181.5,178.1,181.2z"/>
<path class="st5" d="M157.8,251.3c-7,7-18.3,7-25.2,0c-0.2-0.2-0.5-0.5-0.7-0.7c-1.6-1.8-2.8-3.9-3.6-6.1c5.1,0.5,10.4-1.2,14.3-5.2
	c5-5,6.4-12.2,4.3-18.4c3.7,0.3,7.4,1.8,10.3,4.5c0.2,0.2,0.4,0.4,0.7,0.6C164.8,233,164.8,244.3,157.8,251.3z"/>
<path class="st2" d="M134.9,224.1l-4.2,4.2c0.4-0.6,0.9-1.2,1.4-1.7c0.1-0.1,0.2-0.2,0.3-0.3c0.1-0.1,0.2-0.2,0.3-0.3
	c0.2-0.2,0.4-0.4,0.7-0.6c0.1-0.1,0.1-0.1,0.2-0.2c0.2-0.2,0.4-0.4,0.7-0.6C134.4,224.5,134.6,224.3,134.9,224.1z"/>
<path class="st4" d="M142.6,239.3c-3.9,3.9-9.2,5.6-14.3,5.2c-0.1-0.4-0.3-0.8-0.4-1.2c-0.4-1.6-0.6-3.2-0.6-4.9
	c0-0.4,0-0.8,0.1-1.2c0,0,0,0,0,0c0-0.4,0.1-0.8,0.1-1.2c0-0.1,0-0.2,0.1-0.3c0-0.3,0.1-0.5,0.1-0.8c0.1-0.4,0.2-0.8,0.3-1.2
	c0.1-0.2,0.1-0.5,0.2-0.7c0.3-1,0.8-2,1.3-3c0.1-0.2,0.2-0.4,0.4-0.7c0.1-0.1,0.1-0.2,0.2-0.3c0.1-0.2,0.3-0.5,0.5-0.7c0,0,0,0,0,0
	c0,0,0,0,0,0l4.2-4.2c0.1-0.1,0.2-0.1,0.3-0.2c0.2-0.2,0.4-0.3,0.6-0.4c0.2-0.1,0.4-0.2,0.6-0.4c0.2-0.1,0.4-0.2,0.6-0.3
	c0.2-0.1,0.5-0.2,0.7-0.3c0.3-0.1,0.6-0.2,0.9-0.4c0.6-0.2,1.1-0.4,1.7-0.6c0.3-0.1,0.6-0.2,0.9-0.2c0.3-0.1,0.6-0.1,0.9-0.2
	c0.3-0.1,0.6-0.1,1-0.1c1.3-0.2,2.5-0.2,3.8,0C149,227.1,147.6,234.3,142.6,239.3z"/>
<path class="st2" d="M134.9,224.1l-4.2,4.2c0.4-0.6,0.9-1.2,1.4-1.7c0.1-0.1,0.2-0.2,0.3-0.3c0.1-0.1,0.2-0.2,0.3-0.3
	c0.2-0.2,0.4-0.4,0.7-0.6c0.1-0.1,0.1-0.1,0.2-0.2c0.2-0.2,0.4-0.4,0.7-0.6C134.4,224.5,134.6,224.3,134.9,224.1z"/>
<path class="st3" d="M117.7,304.6c-1.1,1.1-2.6,1.7-4,1.7c-1.4,0-2.9-0.5-4-1.6l-29.9-29.9c-2.2-2.2-2.2-5.8,0-8
	c1.1-1.1,2.5-1.7,4-1.6c1.4,0,2.9,0.5,4,1.7l29.9,29.9C119.9,298.8,119.9,302.4,117.7,304.6z"/>
<path class="st6" d="M75.4,380c-2.3,2.3-5.3,3.4-8.2,3.4c-3,0-6-1.1-8.2-3.4L3.4,324.5c-4.5-4.5-4.5-11.9,0-16.5
	c2.3-2.3,5.3-3.4,8.2-3.4c3,0,6,1.1,8.2,3.4l55.5,55.5C79.9,368.1,79.9,375.5,75.4,380z"/>
<path class="st4" d="M284.3,167.6l-15.8,15.8l-7.5-7.5l9.4-9.4c10.5-10.5,11.4-11.8,3.2-20.1l-5.1-5.1l7.7-7.7l8.1,8.1
	C291.5,148.8,291.5,160.4,284.3,167.6z"/>
<path class="st4" d="M217.4,234.5l-34.1,34.1l-7.5-7.5l34.1-34.1l7.4,7.4C217.3,234.4,217.4,234.4,217.4,234.5z"/>
<path class="st4" d="M175,276.9l-16.5,16.5c-7.2,7.2-18.9,7.2-26,0l-8-8l7.7-7.7l5,5c7.8,7.8,11.1,5.9,20.2-3.2l10.1-10.1L175,276.9
	z"/>
<path class="st4" d="M260.2,191.7l-34.5,34.5c0,0-0.1-0.1-0.1-0.1l-7.4-7.4l34.5-34.5L260.2,191.7z"/>
<path class="st5" d="M242.9,166.5c-7,7-18.3,7-25.2,0c-0.2-0.3-0.5-0.5-0.7-0.8c-1.6-1.8-2.8-3.9-3.5-6c5.1,0.5,10.4-1.2,14.3-5.1
	c5-5,6.4-12.2,4.2-18.4c3.6,0.3,7.1,1.8,10,4.3c0.3,0.3,0.6,0.5,0.9,0.8C249.9,148.2,249.9,159.5,242.9,166.5z"/>
<path class="st2" d="M167.5,269.4l-10.1,10.1c-9.1,9.1-12.4,11-20.2,3.2l-5-5l21.8-21.8L167.5,269.4z"/>
<path class="st3" d="M183.3,276.9L183.3,276.9c-2.3,2.3-6,2.3-8.3,0l-21.1-21.1l8.3-8.3l21.1,21.1
	C185.6,270.9,185.6,274.6,183.3,276.9z"/>
<rect x="162" y="227.7" transform="matrix(0.7071 -0.7071 0.7071 0.7071 -113.2608 201.0683)" class="st2" width="48.2" height="19.2"/>
<path class="st3" d="M225.6,234.3L225.6,234.3c-2.3,2.3-5.9,2.3-8.2,0.1c0,0-0.1-0.1-0.1-0.1l-20.9-20.9l8.3-8.3l20.9,20.9
	c0,0,0.1,0.1,0.1,0.1C227.9,228.4,227.9,232.1,225.6,234.3z"/>
<path class="st2" d="M270.4,166.5l-9.4,9.4l-13.5-13.5l21-21l5.1,5.1C281.8,154.6,280.9,156,270.4,166.5z"/>
<rect x="204.3" y="185.1" transform="matrix(0.7071 -0.7071 0.7071 0.7071 -70.6399 218.7224)" class="st2" width="48.7" height="19.2"/>
<path class="st3" d="M268.5,191.6L268.5,191.6c-2.3,2.3-6,2.3-8.3,0l-21.1-21.1l8.3-8.3l21.1,21.1
	C270.8,185.7,270.8,189.4,268.5,191.6z"/>
<line class="st2" x1="340" y1="19.1" x2="339.5" y2="19.4"/>
<path class="st7" d="M373.3,31.7L373.3,31.7c-5.8,5-14.6,4.7-20.1-0.8c-1.2-1.2-2.1-2.5-2.8-3.9c-2.6-5.2-1.9-11.7,2.1-16.3
	l16.7-10.6l0.1-0.1l14.8,14.8l0,0l-10.7,16.8L373.3,31.7z"/>
<path class="st1" d="M339.7,42.8l-0.2,0.2l-11.8-11.8l8.4-8.4l0,0l3.8-3.8l12.5-8.3l0,0c-4,4.6-4.7,11.1-2.1,16.3l-0.1,0
	c0,0-1.7,3.6-3.5,6.5c-0.1,0.2-0.3,0.4-0.4,0.7C344.4,37.1,339.7,42.8,339.7,42.8z"/>
<path class="st0" d="M363.6,46.3l-1.8,1.8l-0.3,0.2l-8.4,8.4L339.5,43l0.2-0.2c0,0,4.7-5.6,6.6-8.5c0.1-0.2,0.3-0.4,0.4-0.7
	c1.8-2.8,3.5-6.5,3.5-6.5l0.1,0c0.7,1.4,1.6,2.7,2.8,3.9c5.5,5.5,14.3,5.8,20.1,0.8L363.6,46.3L363.6,46.3z"/>
<path class="st1" d="M57,344.4l-0.4,0.4l-33.3-33.3l0.4-0.4c2.2,0.3,25.5-10.5,34-14.8c8.5-4.3,24.2-19.1,24.2-19.1L93.8,289
	c-2.2,2.4-15.6,16.6-21,23.4C66.7,320.2,60.6,329.7,57,344.4z"/>
<path class="st0" d="M73.4,360.8l-0.4,0.4l-16.4-16.4l0.4-0.4c3.6-14.6,9.7-24.2,15.8-31.9c5.4-6.8,18.8-21.1,21-23.4l13.5,13.5
	l0,0.1c0,0-14.8,15.8-19.1,24.2C83.8,335.3,73.1,358.6,73.4,360.8z"/>
<path class="st2" d="M93.8,289c0.1-0.1,0.1-0.1,0.2-0.2c0.1-0.1,0.1-0.2,0.1-0.2"/>
</svg>
