<?xml version="1.0" encoding="utf-8"?>
<!-- Generator: Adobe Illustrator 28.1.0, SVG Export Plug-In . SVG Version: 6.00 Build 0)  -->
<svg version="1.1" xmlns="http://www.w3.org/2000/svg" xmlns:xlink="http://www.w3.org/1999/xlink" x="0px" y="0px"
	 viewBox="0 0 166.9 97" style="enable-background:new 0 0 166.9 97;" xml:space="preserve">
<style type="text/css">
	.st0{fill:none;stroke:#F5F5F5;stroke-width:0.9696;stroke-miterlimit:10;}
	.st1{fill:#F5F5F5;clip-rule:evenodd;}
</style>
<g id="Stave">
	<line id="Bottom" class="st0" x1="0.3" y1="75.4" x2="166.9" y2="75.4"/>
	<line id="Lower_Middle" class="st0" x1="0" y1="62.3" x2="166.6" y2="62.3"/>
	<line id="Middle" class="st0" x1="0.3" y1="48.8" x2="166.9" y2="48.8"/>
	<line id="Upper_Middle" class="st0" x1="0.3" y1="35.8" x2="166.9" y2="35.8"/>
	<line id="Top" class="st0" x1="0.3" y1="23.8" x2="166.9" y2="23.8"/>
</g>
<g id="Treble_Clef">
	<g>
		<path class="st1" d="M23.5,49.2c5.4-0.3,9.9,3.8,11.2,9.4c1.5,6.4-1.2,12-7.1,15.2c-0.7,0.4-1,0.7-0.8,1.6c0.7,3,1.2,6,1.8,9
			c0.4,1.9,0.5,3.9-0.1,5.8c-1.1,4-3.9,6-7.8,6.7c-3.9,0.7-8-1-9.9-4.3c-1.5-2.6-1.2-6,0.8-8.1c1.6-1.7,3.8-2.2,5.7-1.3
			c2.1,1,3.4,3.5,3,5.7c-0.4,2.3-2.3,4-4.7,4.2c-0.2,0-0.4-0.1-0.5,0.1c-0.1,0.2,0.1,0.4,0.2,0.5c0.5,0.6,1.2,0.9,2,1.2
			c4.7,1.3,9.3-2,9.6-6.8c0.1-1.4,0-2.9-0.3-4.3c-0.6-2.7-1.1-5.3-1.7-8c-0.1-0.5-0.2-0.7-0.8-0.6c-9.5,2.3-17.2-3.4-20.1-11
			c-2.8-7.3-1.4-13.9,3-20.1c2.6-3.7,5.8-6.8,8.9-10.1c0.5-0.5,0.6-0.9,0.4-1.5c-1-4-1.6-8.1-1.2-12.3c0.3-4.4,1.4-8.6,3.8-12.3
			c0.7-1.1,1.6-2,2.8-2.6c0.9-0.5,1.3-0.4,2,0.3c0.4,0.4,0.7,0.8,0.9,1.3c2.4,4.4,3.9,9,3.8,14c-0.1,6.8-2.7,12.6-7,17.7
			c-0.2,0.2-0.4,0.5-0.6,0.7c-1,0.7-1,1.6-0.7,2.6c0.5,2.1,0.9,4.2,1.3,6.3c0.1,0.6,0.3,0.9,1,0.8C22.8,49.1,23.2,49.2,23.5,49.2z
			 M20.4,73.8c1.1,0,2.2-0.2,3.4-0.4c0.7-0.1,0.8-0.4,0.6-1.1c-0.4-1.6-0.7-3.2-1-4.9c-0.7-3.6-1.4-7.2-2.1-10.8
			c-0.2-0.9-0.3-1-1.1-0.6c-1.1,0.5-2,1.3-2.8,2.3c-2.5,3.2-1.9,7.2,1.3,9.4c0.4,0.3,0.9,0.5,1.3,0.8c0.3,0.2,0.4,0.4,0.3,0.7
			c-0.1,0.3-0.3,0.4-0.6,0.4c-0.2,0-0.4-0.1-0.6-0.1c-4.7-1.7-7.5-7.2-6.1-12c1-3.4,3.1-5.9,6.2-7.5c0.5-0.2,0.8-0.5,0.6-1.1
			c-0.4-2.1-0.9-4.2-1.3-6.3c-0.1-0.6-0.2-0.7-0.8-0.3c-1.9,1.7-3.8,3.4-5.4,5.4c-2.3,2.6-4.2,5.5-5.1,8.8c-1.1,4.3-0.8,8.3,2,11.9
			C12,72.3,15.9,73.7,20.4,73.8z M18.2,31.7c0.1,0,0.2,0.1,0.3,0.1c0.6-0.7,1.3-1.4,1.9-2c2.8-3.1,4.9-6.5,5.7-10.6
			c0.3-1.4,0.5-2.8-0.1-4.2c-0.7-1.7-2.2-2.3-3.8-1.3c-1.4,0.9-2.3,2.2-3,3.7c-1.4,3.3-2,6.7-1.7,10.3C17.6,29,17.8,30.4,18.2,31.7z
			 M31.4,64.8c0-2.5-0.6-4.2-1.7-5.8c-1.5-2.1-3.5-3.2-6-3.4c-0.6-0.1-0.8,0.1-0.7,0.7c1.1,5.2,2.1,10.4,3.2,15.7
			c0.1,0.6,0.3,0.6,0.8,0.3C29.8,70.3,31.3,67.7,31.4,64.8z"/>
	</g>
</g>
<g id="Pair_of_Quavers">
	<path class="st1" d="M90.6,37.2c-0.3-0.2-0.6-0.3-0.8-0.4c-0.3-0.1-0.5-0.2-0.8-0.3c-2.6-0.6-4.9,0-7.1,1.4c-1.9,1.2-3.5,2.7-4.3,5
		c-0.6,2,0.1,3.9,1.9,4.9c0.8,0.5,1.7,0.7,2.6,0.8c3,0,5.6-1.2,7.7-3.2c1.5-1.5,2.3-3.3,2.2-5.5c-0.1-3.4,0-6.9,0-10.3
		c0-9.5,0-19,0-28.5c0-1.1,0-1-1-0.9c-4,0.7-8,1.4-12,2.2c-6.3,1.1-12.5,2.3-18.8,3.4c-0.7,0.1-0.9,0.4-0.9,1.1c0,9.2,0,18.5,0,27.7
		c0,2.6,0,5.2,0,7.7c0,0.6-0.1,0.7-0.6,0.3c-0.4-0.3-0.9-0.4-1.4-0.4c-3.9-0.6-8.5,1.5-10.5,5c-0.7,1.1-1,2.4-0.7,3.7
		c0.4,2.1,2.6,3.5,5.1,3.4c2.6-0.1,4.9-1.2,6.9-2.9c1.7-1.5,2.6-3.4,2.6-5.8c-0.1-3.1,0-6.2,0-9.3c0-8.3,0-16.6,0-24.9
		c0-0.7,0.2-1,0.9-1.1c1.5-0.2,3-0.5,4.4-0.8c8-1.4,16-2.9,23.9-4.3c0.6-0.1,0.7,0,0.7,0.6c0,9.1,0,18.2,0,27.3
		C90.6,34.3,90.6,35.7,90.6,37.2z"/>
</g>
<g id="Quaver">
	<path class="st1" d="M118.6,31.3c0,4.7,0,9.3,0,14c0,1.5,0,2.9,0,4.4c0,0.4-0.1,0.6-0.5,0.3c-0.5-0.3-1.1-0.4-1.7-0.5c-2.9-0.5-5.4,0.4-7.6,2.1
		c-1.5,1.1-2.7,2.4-3.4,4.1c-0.9,2.5,0.1,4.7,2.6,5.7c1.8,0.7,3.6,0.4,5.4-0.2c4.5-1.5,6.7-4.5,6.7-9.2c0-3.8,0-7.6,0-11.4
		c0-4.7,0-9.3,0-14c0-0.8,0.1-0.9,0.9-0.7c3.5,0.9,6.2,3,7.9,6.1c2,3.6,1.9,7.3,0.8,11.1c-0.6,2-1.5,3.9-2.3,5.7
		c-0.1,0.2-0.3,0.4,0,0.5c0.2,0.1,0.5,0.1,0.7,0c0.1-0.1,0.2-0.3,0.3-0.4c0.3-0.5,0.6-1,0.9-1.6c1.6-3.1,2.7-6.4,3-9.9
		c0.3-3.8-1.1-7-3.4-9.9c-1.1-1.4-2.3-2.6-3.5-3.9c-1.2-1.3-2.5-2.6-3.4-4.2c-1.2-2-1.5-4.2-1.7-6.4c-0.1-0.5-0.3-0.7-0.8-0.7
		c-0.7,0-0.7,0.4-0.7,0.9C118.6,19.3,118.6,25.3,118.6,31.3z"/>
</g>
<g id="Crotchet">
	<path class="st1" d="M151.6,63.8c-1.3-0.8-2.7-1-4.1-0.9c-3.4,0.3-6,2-8,4.7c-1.1,1.5-1.5,3.2-0.6,4.9c1,1.7,2.6,2.4,4.5,2.3
		c3.5-0.1,6.3-1.6,8.3-4.4c0.8-1,1.2-2.3,1.2-3.6c0-13,0-26,0-38.9c0-0.8-0.1-0.9-0.9-0.8c-0.7,0.1-0.5,0.5-0.5,0.9
		c0,9.4,0,18.8,0,28.2C151.6,58.8,151.6,61.2,151.6,63.8z"/>
</g>
</svg>