<?xml version="1.0" encoding="utf-8"?>
<!-- Generator: Adobe Illustrator 28.1.0, SVG Export Plug-In . SVG Version: 6.00 Build 0)  -->
<svg version="1.1" id="Layer_2" xmlns="http://www.w3.org/2000/svg" xmlns:xlink="http://www.w3.org/1999/xlink" x="0px" y="0px"
	 viewBox="0 0 294.4 248.5" style="enable-background:new 0 0 294.4 248.5;" xml:space="preserve">
<style type="text/css">
	.st0{fill:#F89938;}
	.st1{fill:#FAC62C;}
	.st2{fill:none;}
	.st3{fill:#48666B;}
	.st4{fill:#415959;}
	.st5{fill:#FDE365;}
	.st6{fill:#F26739;}
	.st7{fill:#FAA72F;}
</style>
<path class="st0" d="M186.9,55.1l-0.8,2.2c-1.4,3.6-5.5,5.5-9.1,4.1l-26.2-10c-0.3-0.1-0.7-0.3-1-0.5l14.4,5.5
	c3.6,1.4,7.7-0.4,9.1-4.1l0.8-2.2c1.3-3.3-0.1-6.9-3.1-8.6l11.8,4.5C186.5,47.4,188.3,51.4,186.9,55.1z"/>
<path class="st1" d="M231.9,22.7c-0.1,0.3-0.3,0.6-0.3,1c-3-1.3-11.8-3.4-23.7-2.3c-5.6,0.5-11,3.3-17.3,10
	c-4.8,5-7.3,11.2-8.3,14.2l0,0.1L167.3,40l0.1-0.1c1.4-3.4,3.9-8.7,6.7-12.7c2.1-3,4.6-6.5,9-9.9c5.2-4,10.1-5.7,11.5-6.1
	c6.5-2,12.1-1.8,15.5-1.3c9,1.4,20.5,3.3,29.5,4.7l0,0c-1.2,1.3-2.5,2.6-3.7,3.9C234.5,19.9,233.2,21.3,231.9,22.7z"/>
<path class="st2" d="M231.5,23.7C231.5,23.7,231.5,23.7,231.5,23.7"/>
<path class="st3" d="M289,13.5l-2.4,2.3c-5.9-0.2-11.7-0.4-17.5-0.5c-1.8,0.5-3.9,1.1-6.3,2.2c-2.3,1.1-4.3,2.3-5.8,3.3l-21.2-2.2
	c1.2-1.3,2.5-2.6,3.7-3.9c2.4-2.5,4.8-5,7.2-7.5c0.7-0.8,1.5-1.6,2.2-2.4c2.8,0.6,34.5,7.4,39.9,8.5L289,13.5z"/>
<path class="st4" d="M289.5,25.6c-5.4-0.1-10.7-0.1-16.1-0.2c-2.3,0.5-5,1.3-7.8,2.6c-2.2,1-4.1,2-5.6,3c-0.9-0.1-21.6-2.1-25.9-3.6
	c-0.6-0.2-1.9-0.7-2.5-1.8c-0.3-0.6-0.3-1.3-0.1-1.9c0.1-0.4,0.2-0.8,0.3-1c1.3-1.4,2.6-2.8,3.9-4.1l21.2,2.2
	c1.5-1.1,3.4-2.3,5.8-3.3c2.3-1.1,4.5-1.8,6.3-2.2c5.9,0.2,11.7,0.4,17.5,0.5l2.4-2.3l-0.2-0.2c0.1,0,0.2,0,0.2,0
	c0.2,0,0.3,0.1,0.4,0.1l0.1,0c3.7,1.4,5.5,5,4.6,8C293.2,24.5,289.7,25.5,289.5,25.6z"/>
<line class="st2" x1="289" y1="13.5" x2="289" y2="13.5"/>
<path class="st5" d="M246.7,7.1c-2.4,2.5-4.8,5-7.2,7.5l0,0c-9-1.4-20.5-3.3-29.5-4.7c-3.4-0.4-9-0.7-15.5,1.3
	c-1.4,0.4-6.3,2.1-11.5,6.1c-4.4,3.4-6.9,6.9-9,9.9c-2.8,4-5.4,9.3-6.7,12.7l-0.1,0.1l-9.9-3.8l0,0l0.4-1.4
	c1.3-4.6,4.6-13.3,12.6-21.2c2-1.9,7.1-6.6,15.1-9.9c10.3-4.3,19.6-4,24.6-3.4L246.7,7.1z"/>
<path class="st6" d="M138.9,59.3l-3.3,8.6c-0.9,2.4-3.6,3.6-6,2.7c-2.4-0.9-3.6-3.6-2.7-6l3.3-8.6c0.9-2.4,3.6-3.6,6-2.7
	c1.2,0.5,2.1,1.3,2.6,2.4C139.2,56.8,139.3,58.1,138.9,59.3z"/>
<path class="st6" d="M130.2,81.1l-3.3,8.6c-0.9,2.4-3.6,3.6-6,2.7l0,0c-2.4-0.9-3.6-3.6-2.7-6l3.3-8.6c0.9-2.4,3.6-3.6,6-2.7l0,0
	c1.2,0.5,2.1,1.3,2.5,2.4C130.6,78.7,130.7,79.9,130.2,81.1z"/>
<path class="st6" d="M121.5,103.2l-3.3,8.6c-0.9,2.4-3.6,3.6-6,2.7c-2.4-0.9-3.6-3.6-2.7-6l3.3-8.6c0.9-2.4,3.6-3.6,6-2.7
	c1.2,0.5,2.1,1.3,2.6,2.4C121.9,100.8,122,102,121.5,103.2z"/>
<path class="st0" d="M164.8,109.3c-1.8,0.4-3.7,0.4-5.6-0.2c-0.3-0.1-0.5-0.2-0.8-0.3c-5.7-2.2-8.5-8.4-6.4-13.9
	c2.1-5.5,8.4-8.3,14.1-6.1c2.2,0.8,4,2.3,5.3,4.1c-4.3-0.7-8.6,1.5-10.1,5.6C159.7,102.5,161.3,107,164.8,109.3z"/>
<path class="st7" d="M172.5,102.7c-1.3,3.5-4.3,5.8-7.7,6.6c-3.5-2.3-5.1-6.8-3.6-10.8c1.6-4.1,5.8-6.3,10.1-5.6
	C173.2,95.7,173.8,99.4,172.5,102.7z"/>
<path class="st0" d="M153.2,142.6c-2,0.5-4.3,0.3-6.4-0.5c-5.7-2.2-8.5-8.4-6.4-13.9c2.1-5.5,8.4-8.3,14.1-6.1
	c2.2,0.8,4,2.3,5.3,4.1c-4.3-0.7-8.6,1.5-10.1,5.6C148.1,135.8,149.7,140.3,153.2,142.6z"/>
<path class="st7" d="M160.9,136c-1.3,3.5-4.3,5.8-7.7,6.6c-3.5-2.3-5.1-6.8-3.6-10.8c1.6-4.1,5.8-6.3,10.1-5.6
	C161.6,129.1,162.2,132.7,160.9,136z"/>
<path class="st0" d="M141.6,176.1c-2,0.5-4.3,0.3-6.4-0.5c-5.7-2.2-8.5-8.4-6.4-13.9c2-5.3,7.9-8.1,13.4-6.3
	c0.2,0.1,0.4,0.1,0.6,0.2c2.2,0.8,4,2.3,5.3,4.1c-4.3-0.7-8.6,1.5-10.1,5.6C136.5,169.4,138.1,173.8,141.6,176.1z"/>
<path class="st7" d="M149.3,169.6c-1.3,3.5-4.3,5.8-7.7,6.6c-3.5-2.3-5.1-6.8-3.6-10.8c1.6-4.1,5.8-6.3,10.1-5.6
	C150,162.6,150.6,166.2,149.3,169.6z"/>
<path class="st6" d="M109.1,134.3l-3.3,8.6c-0.9,2.4-3.6,3.6-6,2.7c-2.4-0.9-3.6-3.6-2.7-6l3.3-8.6c0.9-2.4,3.6-3.6,6-2.7
	c1.2,0.5,2.1,1.3,2.6,2.4C109.5,131.8,109.5,133.1,109.1,134.3z"/>
<path class="st6" d="M100.4,156.1l-3.3,8.6c-0.9,2.4-3.6,3.6-6,2.7c-2.4-0.9-3.6-3.6-2.7-6l3.3-8.6c0.9-2.4,3.6-3.6,6-2.7
	c1.2,0.5,2.1,1.3,2.6,2.4C100.8,153.6,100.9,154.9,100.4,156.1z"/>
<path class="st0" d="M106.5,74.7c-0.9,2.3-2.6,4.2-5.1,5.3c-3,1.3-6.1,2.6-9.1,3.9c-0.1,0-0.2,0.1-0.3,0.1c-1.6,0.7-3.2,1.4-4.8,2.1
	c2.1-1.1,3.7-2.9,4.5-5c0.8-2.2,0.9-4.7-0.2-7.1c-2.1-4.8-7.6-7-12.4-4.9l-74,32.1c0.1-0.1,0.3-0.1,0.4-0.2l88.3-38.3
	c4.8-2.1,10.3,0.1,12.4,4.9C107.3,70,107.3,72.5,106.5,74.7z"/>
<path class="st7" d="M91.8,81.1c-0.8,2.1-2.4,3.9-4.5,5l-61.2,26.5l-12.9,5.6c-4.8,2.1-10.3-0.1-12.4-4.9c-2-4.6,0-9.9,4.4-12.2
	l0.1,0l74-32.1c4.8-2.1,10.3,0.1,12.4,4.9C92.6,76.4,92.6,78.9,91.8,81.1z"/>
<path class="st2" d="M26.7,134.2C26.7,134.3,26.7,134.3,26.7,134.2"/>
<path class="st7" d="M39.2,148.7c-1.3,3.5-4.3,5.8-7.7,6.6c-3.5-2.3-5.1-6.8-3.6-10.8c1.6-4.1,5.8-6.3,10.1-5.6
	C39.9,141.7,40.5,145.3,39.2,148.7z"/>
<path class="st7" d="M25.2,184.7c-1.3,3.5-4.3,5.8-7.7,6.6c-3.5-2.3-5.1-6.8-3.6-10.8c1.6-4.1,5.8-6.3,10.1-5.6
	C25.9,177.7,26.4,181.3,25.2,184.7z"/>
<path class="st7" d="M114.5,166.5c-0.4,1.1-1.3,1.9-2.3,2.4c-1,0.5-2.2,0.5-3.3,0.1l-11.5-4.4c-0.1,0-0.2-0.1-0.2-0.1l3.1-8
	c0.1,0,0.2,0,0.2,0.1l11.5,4.4C114.3,161.8,115.4,164.3,114.5,166.5z"/>
<path class="st0" d="M31.5,155.3c-2,0.5-4.3,0.3-6.4-0.5c-2.3-0.9-4.1-2.4-5.4-4.3c-1.8-2.8-2.3-6.3-1.1-9.6c1.4-3.6,4.4-6,8-6.6
	c2-0.4,4.1-0.2,6.1,0.5c2.2,0.8,4,2.3,5.3,4.1c-4.3-0.7-8.6,1.5-10.1,5.6C26.4,148.5,28,152.9,31.5,155.3z"/>
<path class="st0" d="M17.4,191.3c-2,0.5-4.3,0.3-6.4-0.5c-0.8-0.3-1.6-0.7-2.3-1.2c-4.1-2.8-5.9-8-4.1-12.7c1.3-3.4,4.2-5.8,7.6-6.6
	c2.1-0.5,4.3-0.4,6.5,0.4c2.2,0.8,4,2.3,5.3,4.1c-4.3-0.7-8.6,1.5-10.1,5.6C12.3,184.5,13.9,188.9,17.4,191.3z"/>
<path class="st1" d="M70.8,192c-1,0.1-8.9,1.3-13.7-3c-4-3.6-5.2-11-3.9-16.4c7.2-17.9,13.8-36.5,21-54.4c0.8-2.7,1.6-5.7,2.1-9.2
	c0.3-1.7,0.4-3.3,0.6-4.8l0.1-1.6l-49.2,21.1c0.4-4.2-0.3-5.8-1.6-11l0,0l61.2-26.5c1.6-0.7,3.2-1.4,4.8-2.1l0.1,0.1
	c0.8,4.8,1.8,10.8,1.6,17.5c-0.2,8.6-1.6,16-3.2,21.5c-6.1,15.8-12.2,31.5-18.3,47.2c-1.1,2.9-2.2,5.8-3.4,8.7
	c-1,4.3-0.3,9,1.9,12.7L70.8,192z"/>
<path class="st1" d="M70.8,191.9L70.8,191.9L70.8,191.9C70.8,191.9,70.8,191.9,70.8,191.9z"/>
<path class="st7" d="M135.7,113.6c-0.4,1.1-1.3,1.9-2.3,2.4c-1,0.5-2.2,0.5-3.3,0.1l-11.5-4.4c-0.1,0-0.2-0.1-0.2-0.1l3.1-8
	c0.1,0,0.2,0,0.2,0.1l11.5,4.4C135.4,108.9,136.5,111.4,135.7,113.6z"/>
<path class="st7" d="M123.2,144.7c-0.4,1.1-1.3,1.9-2.3,2.4c-1,0.5-2.2,0.5-3.3,0.1l-11.5-4.4c-0.1,0-0.2-0.1-0.2-0.1l3.1-8
	c0.1,0,0.2,0,0.2,0.1l11.5,4.4C122.9,139.9,124.1,142.4,123.2,144.7z"/>
<line class="st2" x1="126.1" y1="114.6" x2="126.1" y2="114.6"/>
<path class="st7" d="M153,69.7c-0.4,1.1-1.3,1.9-2.3,2.4c-1,0.5-2.2,0.5-3.3,0.1l-11.5-4.4c-0.1,0-0.2-0.1-0.2-0.1l3.1-8
	c0.1,0,0.2,0,0.2,0.1l11.5,4.4c0.6,0.2,1,0.5,1.4,0.9C153.1,66.2,153.6,68,153,69.7z"/>
<path class="st5" d="M105.7,206.4c-1.9,4.5-8.5,19-24.9,28.4c-16,9.2-35.6,7.8-40.5,7.2l0,0c-0.3-0.2-0.6-0.3-0.9-0.5
	c-28.8-15.7-30.6-50.3-30.6-51.9l0,0c0.7,0.5,1.5,0.9,2.3,1.2c2.1,0.8,4.3,0.9,6.4,0.5c3.4-0.8,6.4-3.1,7.7-6.6
	c1.3-3.4,0.7-7-1.2-9.8c-1.2-1.8-3-3.3-5.3-4.1c-2.2-0.8-4.4-0.9-6.5-0.4l0,0l7.5-19.8c1.2,1.9,3.1,3.4,5.4,4.3
	c2.1,0.8,4.3,0.9,6.4,0.5c3.4-0.8,6.4-3.1,7.7-6.6c1.3-3.4,0.7-7-1.2-9.8c-1.2-1.8-3-3.3-5.3-4.1c-2-0.8-4.1-0.9-6.1-0.5
	c0.7-1.2,0.7-6.4,1-10.6l49.2-21.1l-0.1,1.6c-0.1,1.5-0.3,3.1-0.6,4.8c-0.5,3.5-1.3,6.5-2.1,9.2c-7.2,17.9-13.8,36.5-21,54.4
	C51.9,178,53,185.4,57,189c4.8,4.3,12.8,3.1,13.7,3l0.1,0c1.7,2.8,4.1,5.1,7.2,6.1c10.3,3.4,14.9-2.1,18.2-8.6
	c3-7.3,5.9-14.6,8.9-21.9l0,0l3.8,1.5c1.1,0.4,2.3,0.4,3.3-0.1c1-0.4,1.8-1.3,2.3-2.4c0.8-2.2-0.3-4.7-2.5-5.6l-3.7-1.4l0-0.1
	l5.4-13.7l0-0.1l3.9,1.5c1.1,0.4,2.3,0.4,3.3-0.1c1-0.4,1.8-1.3,2.3-2.4c0.8-2.2-0.3-4.7-2.5-5.5l-3.7-1.4l0-0.1l9-23l4.1,1.5
	c1.1,0.4,2.3,0.4,3.3-0.1c1-0.4,1.8-1.3,2.3-2.4c0.8-2.2-0.3-4.7-2.5-5.5l-4-1.5l0-0.1l5.5-13.9l0,0l4.1,1.6
	c1.1,0.4,2.3,0.4,3.3-0.1c1-0.4,1.8-1.3,2.3-2.4c0.8-2.2-0.3-4.7-2.5-5.6l-3.9-1.5l0-0.1l5.4-13.8l0,0l4,1.5
	c1.1,0.4,2.3,0.4,3.3-0.1c1-0.4,1.8-1.3,2.3-2.4c0.6-1.7,0.2-3.5-1-4.6l0,0l4.5,1.7c-3.1,8.5-6.2,17.1-9.3,25.8l0,0
	c-0.1,0.2-0.1,0.3-0.2,0.5l0,0c-2.6,7.2-5.3,14.5-7.9,21.8l0,0c-1.4,3.8-2.8,7.6-4.1,11.4c-2.4,6.7-4.9,13.4-7.3,20
	c-1.6,4.4-3.2,8.9-4.8,13.3c-1.1,2.9-2.1,5.9-3.2,8.8C114.8,181.1,110.2,193.9,105.7,206.4z"/>
<path class="st1" d="M120.4,216.2c-2.4,4.9-6.9,12.1-14.5,18.4C89.7,247.9,63.3,254,40.3,242l0,0c4.9,0.6,24.5,2,40.5-7.2
	c16.4-9.4,23-23.9,24.9-28.4c4.5-12.6,9.2-25.3,13.8-38.1c1.1-2.9,2.1-5.9,3.2-8.8c1.6-4.4,3.2-8.9,4.8-13.3
	c2.4-6.7,4.9-13.4,7.3-20c1.4-3.8,2.8-7.6,4.1-11.4l0,0c2.6-7.3,5.3-14.5,7.9-21.8l0,0c0.1-0.2,0.1-0.3,0.2-0.5l0,0
	c3.1-8.7,6.3-17.3,9.3-25.8L152,65l0,0c-0.4-0.4-0.9-0.7-1.4-0.9l-3.9-1.5l0-0.1l4.4-11l0-0.1l25.5,9.7l0,0L166,88.8
	c-5.7-2.2-12,0.6-14.1,6.1c-2.1,5.5,0.8,11.8,6.4,13.9c0.3,0.1,0.5,0.2,0.8,0.3l0,0l-4.7,13c-5.7-2.2-12,0.6-14.1,6.1
	c-2.1,5.5,0.8,11.8,6.4,13.9l-4.5,13.2l0,0.1c-5.5-1.7-11.4,1-13.4,6.3c-2.1,5.5,0.8,11.8,6.4,13.9
	C130.4,188.8,125.2,203,120.4,216.2z"/>
<path class="st7" d="M144.4,91.5c-0.4,1.1-1.3,1.9-2.3,2.4c-1,0.5-2.2,0.5-3.3,0.1l-11.5-4.4c-0.1,0-0.2-0.1-0.2-0.1l3.1-8
	c0.1,0,0.2,0,0.2,0.1l11.5,4.4C144.1,86.8,145.2,89.3,144.4,91.5z"/>
<path class="st7" d="M174.2,50.1l-0.8,2.2c-1.4,3.6-5.5,5.5-9.1,4.1l-14.4-5.5c-3-1.7-4.4-5.3-3.1-8.6l0.8-2.2
	c1.4-3.6,5.5-5.5,9.1-4.1l14.4,5.5C174.1,43.2,175.4,46.8,174.2,50.1z"/>
</svg>
