<?xml version="1.0" encoding="utf-8"?>
<!-- Generator: Adobe Illustrator 28.1.0, SVG Export Plug-In . SVG Version: 6.00 Build 0)  -->
<svg version="1.1" id="Flute" xmlns="http://www.w3.org/2000/svg" xmlns:xlink="http://www.w3.org/1999/xlink" x="0px" y="0px"
	 viewBox="0 0 384.1 384.1" style="enable-background:new 0 0 384.1 384.1;" xml:space="preserve">
<style type="text/css">
	.st0{fill:#CBCBCB;}
	.st1{fill:#E1E1E0;}
	.st2{fill:#8F8F8F;}
	.st3{fill:#A09F9F;}
	.st4{fill:none;}
</style>
<path class="st0" d="M86.5,314.6l6.1,6.1l-62.2,62.2c-1.5,1.5-3.9,1.5-5.3,0l-8.5-8.5c1.5,1.5,3.9,1.5,5.3,0L78.3,318
	C81.3,318,84.3,316.9,86.5,314.6z"/>
<path class="st0" d="M268.8,127.6l8.5,8.5L92.6,320.7l-6.1-6.1c2.3-2.3,3.4-5.2,3.4-8.2l23.4-23.4c2.9,0,5.8-1.2,8.1-3.4
	c2.2-2.2,3.4-5.2,3.4-8.1l23.4-23.4c2.8-0.1,5.6-1.2,7.8-3.4c2.2-2.2,3.3-4.9,3.4-7.8l23.9-23.9c2.7-0.2,5.4-1.3,7.5-3.4
	c2.1-2.1,3.2-4.8,3.4-7.5l24-24c2.8-0.1,5.6-1.2,7.8-3.4c2.2-2.2,3.3-4.9,3.4-7.8L268.8,127.6z"/>
<path class="st0" d="M374.5,16.5l8.5,8.5c1.5,1.5,1.5,3.9,0,5.3l-63.7,63.7l0,0l-8.4-8.4l41.1-41.1l22.6-22.7
	C375.9,20.4,375.9,18,374.5,16.5z"/>
<path class="st1" d="M59.5,295.3l7.7,7.7c-1.2,4-0.2,8.5,2.9,11.6c2.3,2.3,5.3,3.4,8.3,3.4l-56.5,56.5c-1.5,1.5-3.9,1.5-5.3,0
	L1.1,359c-1.5-1.5-1.5-3.9,0-5.4L59.5,295.3z"/>
<path class="st1" d="M94.3,260.5l7.7,7.7c-1.1,3.9-0.1,8.3,3,11.4c2.3,2.3,5.3,3.4,8.4,3.4l-23.4,23.4c0-3-1.1-6-3.4-8.3
	c-3-3-7.4-4-11.3-3l-7.8-7.8L94.3,260.5z"/>
<path class="st1" d="M139.6,244.7c2.4,2.4,5.6,3.5,8.7,3.4l-23.4,23.4c0-3-1.1-6.1-3.4-8.4c-3.1-3.1-7.5-4.1-11.5-2.9l-7.7-7.7
	l26.9-26.9l7.5,7.5C135.5,237.1,136.5,241.6,139.6,244.7z"/>
<path class="st1" d="M174.4,209.6c2.5,2.5,5.8,3.6,9,3.4l-23.9,23.9c0.1-3.1-1-6.3-3.4-8.7c-3.1-3.1-7.4-4.1-11.3-3l-7.6-7.6
	l26.8-26.8l7.4,7.4C170.3,202.2,171.3,206.6,174.4,209.6z"/>
<path class="st1" d="M209.6,174.7c2.4,2.4,5.6,3.5,8.7,3.4l-24,24c0.2-3.2-0.9-6.5-3.4-9c-3.1-3.1-7.6-4.1-11.6-2.9l-7.4-7.4
	l27.2-27.2l7.5,7.5C205.5,167.1,206.5,171.6,209.6,174.7z"/>
<path class="st1" d="M248,106.8l20.8,20.8l-39.3,39.3c0.1-3.1-1-6.3-3.4-8.7c-3.1-3.1-7.4-4.1-11.3-3l-7.6-7.6L248,106.8z"/>
<path class="st1" d="M347.7,40.4l4.1,4.1l-41.1,41.1l-20.8-20.8L307.8,47l9.1,9.1c4.2,4.2,10.9,4.2,15,0L347.7,40.4z"/>
<path class="st1" d="M359,1.1l15.4,15.4c1.5,1.5,1.5,3.9,0,5.3l-22.6,22.7l-4.1-4.1c4.2-4.2,4.2-10.9,0-15l-9.1-9.1l15.1-15.1
	C355.2-0.4,357.6-0.4,359,1.1z"/>
<path class="st2" d="M212.3,115.2c1.1,1.1,1.6,2.5,1.6,3.8c0,1.4-0.5,2.8-1.6,3.8l-15,15l17.4,17.4c3.9-1.1,8.3-0.1,11.3,3
	c2.4,2.4,3.5,5.6,3.4,8.7c-0.1,2.8-1.2,5.6-3.4,7.8c-2.2,2.2-4.9,3.3-7.8,3.4c-3.1,0.1-6.3-1-8.7-3.4c-3.1-3.1-4.1-7.6-2.9-11.5
	l-17.3-17.3l-27.2,27.2l17.1,17.1c4-1.2,8.4-0.2,11.6,2.9c2.5,2.5,3.6,5.8,3.4,9c-0.2,2.7-1.3,5.4-3.4,7.5c-2.1,2.1-4.8,3.2-7.5,3.4
	c-3.2,0.2-6.5-0.9-9-3.4c-3.1-3.1-4.1-7.4-3-11.3l-17.2-17.2l-26.8,26.8l17.4,17.4c3.9-1.1,8.3-0.1,11.3,3c2.4,2.4,3.5,5.6,3.4,8.7
	c-0.1,2.8-1.2,5.6-3.4,7.8c-2.2,2.2-4.9,3.3-7.8,3.4c-3.1,0.1-6.3-1-8.7-3.4c-3.1-3.1-4.1-7.6-2.9-11.5l-17.3-17.3l-26.9,26.9
	l17.5,17.5c3.9-1.1,8.4-0.2,11.5,2.9c2.3,2.3,3.4,5.3,3.4,8.4c0,2.9-1.2,5.9-3.4,8.1c-2.2,2.2-5.2,3.4-8.1,3.4c-3,0-6.1-1.1-8.4-3.4
	c-3.1-3.1-4.1-7.5-3-11.4l-17.5-17.5l-26.8,26.8l17.6,17.6c3.9-1,8.2,0,11.3,3c2.3,2.3,3.4,5.3,3.4,8.3c0,3-1.2,5.9-3.4,8.2
	c-2.3,2.3-5.2,3.4-8.2,3.4c-3,0-6-1.1-8.3-3.4c-3.1-3.1-4.1-7.6-2.9-11.6l-17.5-17.5l-13.6,13.6c-2.1,2.1-5.6,2.1-7.7,0
	c-1.1-1.1-1.6-2.4-1.6-3.8s0.5-2.8,1.6-3.8l176.2-176.2C206.7,113.1,210.2,113.1,212.3,115.2z"/>
<path class="st2" d="M338.6,16.2l9.1,9.1c4.2,4.2,4.2,10.9,0,15L332,56.1c-4.2,4.2-10.9,4.2-15,0l-9.1-9.1L338.6,16.2z"/>
<path class="st3" d="M287.3,62.2l23.4,23.4c1.8,1.8,1.9,5.1,0.1,7l-5.3,5.3c-1.8,1.8-3.8,2.8-5.7,1l-0.2-0.2
	c-0.5-0.3-1.1-0.4-1.7-0.3c-0.6,0.1-1.2,0.3-1.7,0.8l-14.1,14.1c-0.5,0.5-0.7,1.1-0.8,1.7c-0.1,0.8,0.2,1.6,0.8,2.3
	c1.8,1.8,0.6,3.6-1.2,5.4l-5.3,5.3c-1.8,1.8-4.8,1.8-6.6,0l-24.5-24.5c-0.9-1.6-0.7-3.7,0.7-5l5.8-5.8c0.7-0.7,1.6-1.1,2.6-1.3
	c1.2-0.2,2.4,0.1,3.4,0.8c0,0,0.1,0,0.1,0c1.7-0.1,3.5-0.7,4.8-2.1l11.5-11.5c1.1-1.1,1.8-2.5,2-3.9c-0.1-0.1-0.2-0.2-0.2-0.3
	c-1.1-1.3-1.4-3.1-0.8-4.6c0.1-0.3,0.2-0.6,0.4-0.8c0,0,0,0,0,0c0.2-0.3,0.4-0.6,0.7-0.9l5.3-5.3c0.3-0.3,0.7-0.6,1.1-0.8
	c0,0,0,0,0,0c1.3-0.9,3.1-1,4.5-0.2C286.7,61.7,287.1,62,287.3,62.2z"/>
<path class="st4" d="M290.8,132.3c0.1-0.1,0.2-0.2,0.3-0.2c0.3-0.2,0.5-0.4,0.7-0.7"/>
<path class="st4" d="M285,138.1c-0.3,0.4-0.5,0.5-1,0.7"/>
<path class="st4" d="M287.4,62.6"/>
<path class="st4" d="M281.4,62.2"/>
<path class="st4" d="M281.4,62.2"/>
<path class="st4" d="M287.4,62.6"/>
<path class="st4" d="M286.4,61.5"/>
<path class="st4" d="M282,61.7"/>
<path class="st2" d="M310.7,85.6L321.1,96c1.2,1.7,1.4,4.2,0.2,5.8c0,0,0,0.1-0.1,0.1c-0.1,0.2-0.3,0.4-0.5,0.6l-5.3,5.3
	c-0.2,0.2-0.4,0.3-0.5,0.5c-1.6,1.2-3.3,1.4-5,0.3c-0.5-0.5-1.3-0.8-2-0.7c-0.7,0-1.4,0.3-2,0.9l-14.1,14.1c-1.1,1.1-1.1,2.8,0,3.9
	c0.7,0.7,1,1.5,0.9,2.2c-0.1,0.7-0.5,1.5-1,2.4l-6.7,6.7c-0.3,0.3-0.6,0.5-1,0.7c0,0,0,0,0,0c-1.7,0.7-3.7,0.3-5.1-1l-9.9-9.9
	c1.8,1.8,4.8,1.8,6.6,0l5.3-5.3c1.8-1.8,3-3.6,1.2-5.4c-0.6-0.6-0.9-1.4-0.8-2.3c0.1-0.6,0.3-1.2,0.8-1.7l14.1-14.1
	c0.5-0.5,1.1-0.7,1.7-0.8c0.6-0.1,1.2,0,1.7,0.3l0.2,0.2c1.8,1.8,3.9,0.9,5.7-1l5.3-5.3C312.7,90.8,312.6,87.5,310.7,85.6z"/>
<path class="st4" d="M321.2,101.9c0,0-0.1,0.1-0.1,0.1"/>
<path class="st4" d="M320.7,95.9"/>
<path class="st4" d="M281.9,61.8"/>
<path class="st4" d="M321.2,101.9c0,0-0.1,0.1-0.1,0.1"/>
</svg>
