<?xml version="1.0" encoding="utf-8"?>
<!-- Generator: Adobe Illustrator 28.1.0, SVG Export Plug-In . SVG Version: 6.00 Build 0)  -->
<svg version="1.1" xmlns="http://www.w3.org/2000/svg" xmlns:xlink="http://www.w3.org/1999/xlink" x="0px" y="0px"
	 viewBox="0 0 375.8 376.1" style="enable-background:new 0 0 375.8 376.1;" xml:space="preserve">
<style type="text/css">
	.st0{fill:#DCEBF8;}
	.st1{fill:none;stroke:#000000;stroke-width:0.5;stroke-miterlimit:10;}
	.st2{fill:#BADBF3;stroke:#000000;stroke-width:4;stroke-miterlimit:10;}
	.st3{fill:#BADBF3;}
	.st4{fill:#DCEBF8;stroke:#000000;stroke-width:4;stroke-linecap:round;stroke-linejoin:round;stroke-miterlimit:10;}
	.st5{fill:none;stroke:#000000;stroke-width:4;stroke-linecap:round;stroke-linejoin:round;stroke-miterlimit:10;}
	.st6{fill:#F47B68;stroke:#000000;stroke-width:4;stroke-linecap:round;stroke-linejoin:round;stroke-miterlimit:10;}
	.st7{fill:#487C9F;stroke:#000000;stroke-width:4;stroke-linecap:round;stroke-linejoin:round;stroke-miterlimit:10;}
	.st8{fill:#355F7D;stroke:#000000;stroke-width:4;stroke-linecap:round;stroke-linejoin:round;stroke-miterlimit:10;}
	.st9{fill:#EC615E;stroke:#000000;stroke-width:4;stroke-linecap:round;stroke-linejoin:round;stroke-miterlimit:10;}
	.st10{fill:#FCEA7D;stroke:#000000;stroke-width:4;stroke-linecap:round;stroke-linejoin:round;stroke-miterlimit:10;}
	.st11{fill:#F5DF43;stroke:#000000;stroke-width:4;stroke-linecap:round;stroke-linejoin:round;stroke-miterlimit:10;}
	.st12{fill:#FCEA7D;}
</style>
<g id="Colour_Breaks">
	<path class="st0" d="M157.7,220.6c-34-4.8-58.5-18.2-58.5-34c0-7.7,5.8-14.8,15.6-20.6"/>
	<path class="st1" d="M179.6,150.8c-7.9,0.2-15.5,0.9-22.7,1.9"/>
	<path class="st1" d="M157.7,220.6c8,1.1,16.5,1.8,25.4,1.9c-1.5,0-3.1,0-4.6-0.1"/>
	<path class="st2" d="M53.7,186.6c0-12,23.2-22.5,58.5-28.8"/>
	<path class="st3" d="M112.2,157.8c0.4,2.6,1.2,5.4,2.7,8c-0.1,0-0.1,0.1-0.2,0.1c-9.8,5.8-15.6,12.9-15.6,20.6
		c0,15.8,24.5,29.2,58.5,34c-23.1-1.4-43.8-4.3-60.7-8.3c-26.6-6.4-43.3-15.5-43.3-25.6"/>
</g>
<g id="Drum_Outline">
	<path class="st4" d="M114.8,166c0.1,0,0.1-0.1,0.2-0.1c0.8,1.3,1.7,2.6,2.8,3.8c6.6,7.1,19.3,11.1,27.3,4.7
		c0.7-0.5,1.3-1.1,1.8-1.8c4.3-4.9,4.8-12.3,2.9-18.7c0.1,0,0.2,0,0.3-0.1c2.2-0.4,4.5-0.8,6.8-1.1c10-0.6,20.4-0.9,31.2-0.9
		c13.2,0,26.1,0.5,38.2,1.4c0,0,0,0,0,0c-0.1,0.2-0.1,0.5-0.2,0.7c-1.8,6.4-1.3,13.8,2.9,18.7c0.5,0.6,1.2,1.2,1.8,1.8
		c2.1,1.7,4.5,2.7,7.1,3c7.2,1.1,15.3-2.5,20.2-7.7c1.1-1.2,2.1-2.5,2.8-3.8c1.5-2.7,2.3-5.5,2.7-8c0,0,0,0,0-0.1
		c35.5,6.3,58.9,16.8,58.9,28.8v0c0,19.2-60.2,34.9-134.4,34.9c-10.4,0-20.6-0.3-30.3-0.9c0,0,0,0,0,0"/>
	<path class="st5" d="M156.9,152.7c-2.5,0.2-4.9,0.3-7.3,0.5"/>
	<path class="st6" d="M226.8,242.9L226.8,242.9l-38.8,109.3l-38.1-109.3v0c11.4,0.8,24,1.3,38.1,1.3
		C202.4,244.1,215.3,243.7,226.8,242.9z"/>
	<path class="st6" d="M97,234.8c13.4,3.4,30.7,6.4,52.9,8v0l-48,101.1L97,329.5"/>
	<path class="st7" d="M97,234.8v-22.5"/>
	<path class="st7" d="M97,212.2c16.8,4,37.6,6.9,60.7,8.3c0,0,0,0,0,0c9.8,0.6,19.9,0.9,30.3,0.9c74.2,0,134.4-15.6,134.4-34.9v29.6
		c0,0-1.7,2.2-6.6,5.3c-10.4,6.7-35.4,17.7-89,21.4c-11.6,0.8-24.4,1.3-38.8,1.3c-14.1,0-26.8-0.5-38.1-1.3
		c-22.2-1.6-39.5-4.6-52.9-8"/>
	<path class="st6" d="M322.5,216.2v108c0,0-9.5,11.9-47.3,20.2l40.7-122.9C320.7,218.3,322.5,216.2,322.5,216.2z"/>
	<path class="st7" d="M97,364.8v-20.4"/>
	<path class="st7" d="M97,342.8L97,342.8c1.6,0.4,3.2,0.8,4.9,1.2c20,4.6,47.8,8.2,86.1,8.2c38.9,0,67-3.4,87.1-7.8
		c37.8-8.3,47.3-20.2,47.3-20.2v22c0,0-22.2,27.9-134.4,27.9c-41.5,0-70.7-4.1-91-9.3"/>
	<path class="st6" d="M275.2,344.4c-20.1,4.4-48.2,7.8-87.1,7.8l38.8-109.2L275.2,344.4z"/>
	<path class="st6" d="M188.1,352.1c-38.3,0-66.1-3.5-86.1-8.2l48-101.1L188.1,352.1z"/>
	<path class="st8" d="M97,364.8C62.5,355.9,53.7,344,53.7,344v-22c0,0,8.8,12,43.3,20.8"/>
	<path class="st9" d="M97,329.5l-37-110c6.1,4.3,17.4,10.3,37,15.3"/>
	<path class="st8" d="M97,234.8c-19.6-5-30.9-11-37-15.3c-4.7-3.3-6.3-5.5-6.3-5.5v-27.4c0,10.1,16.7,19.3,43.3,25.6"/>
	<path class="st9" d="M101.9,344c-1.7-0.4-3.3-0.8-4.9-1.2C62.5,333.9,53.7,322,53.7,322V214c0,0,1.7,2.2,6.3,5.5l37,110L101.9,344z
		"/>
	<path class="st6" d="M315.9,221.5l-40.7,122.9l-48.4-101.5v0C280.5,239.2,305.4,228.1,315.9,221.5z"/>
	<line class="st5" x1="187.7" y1="98.8" x2="187.7" y2="122.1"/>
	<line class="st5" x1="228.8" y1="110.4" x2="217.1" y2="128.9"/>
	<line class="st5" x1="147.5" y1="110.4" x2="158.1" y2="127.8"/>
</g>
<g id="Drumsticks">
	<path class="st10" d="M146.9,172.6c-6.6,0.2-13.7-3.2-18.1-7.9c-1.1-1.2-2.1-2.5-2.8-3.8c-1.5-2.7-2.3-5.5-2.7-8
		c-0.9-5.6,0.3-10.4,0.5-10.9c-0.7-0.8-1.4-1.5-2.1-2.3l2.9-2.7c9.4-0.8,18.3,3.6,22.8,11.1c1,1.6,1.7,3.3,2.3,5.2
		c0.1,0.2,0.1,0.5,0.2,0.7C151.6,160.3,151.1,167.7,146.9,172.6z"/>
	<path class="st11" d="M121.5,139.6c0.7,0.8,1.4,1.5,2.1,2.3c-0.1,0.6-1.3,5.3-0.5,10.9c0.4,2.6,1.2,5.4,2.7,8
		c0.8,1.3,1.7,2.6,2.8,3.8c4.4,4.7,11.5,8.1,18.1,7.9c-0.5,0.6-1.1,1.2-1.8,1.8c-8,6.4-20.7,2.4-27.3-4.7c-1.1-1.2-2.1-2.5-2.8-3.8
		c-1.5-2.7-2.3-5.5-2.7-8c-0.9-5.6,0.3-10.4,0.5-10.9c-35-38.2-70-76.3-105-114.5C0.3,23.3,0.1,11.2,7.3,5.3l0.2-0.2
		C10,3.1,13.2,2,16.6,2"/>
	<path class="st11" d="M16.6,2c-5.4,6.3-4.7,17.1,2.1,25.4C53,64.8,87.3,102.2,121.5,139.6"/>
	<path class="st10" d="M263.6,157.8C263.6,157.8,263.6,157.8,263.6,157.8c-0.4,2.6-1.2,5.4-2.8,8.1c-0.8,1.3-1.7,2.6-2.8,3.8
		c-4.8,5.2-13,8.8-20.2,7.7c-2.3-4.6-2.3-10.4-0.8-15.5c0.1-0.2,0.1-0.5,0.2-0.7c0.6-1.9,1.4-3.6,2.3-5.2c0.3-0.5,0.6-1,1-1.5
		c2.1-3,5-5.4,8.4-7.1c0.4-0.2,0.9-0.4,1.3-0.6c2.7-1.1,5.6-1.8,8.7-2c1.1,0,2.3,0,3.5,0.1l1.4,1.3c-0.2,0.2-0.4,0.5-0.6,0.7
		C263.3,147.5,264.4,152.2,263.6,157.8z"/>
	<path class="st11" d="M237.8,177.4c-2.6-0.4-5-1.3-7.1-3c-0.7-0.5-1.3-1.1-1.8-1.8c-4.3-4.9-4.8-12.3-2.9-18.7
		c0.1-0.2,0.1-0.5,0.2-0.7c0,0,0,0,0,0c0.6-1.8,1.4-3.6,2.3-5.2c4.1-6.8,11.8-11,20.2-11.2c0.3,0,0.7,0,1,0c0.3,0,0.5,0,0.8,0
		c0.3,0,0.5,0,0.8,0l7.5,7.9c-3.1,0.2-6,0.9-8.7,2c-0.4,0.2-0.9,0.4-1.3,0.6c-3.3,1.7-6.2,4.1-8.4,7.1c-0.4,0.5-0.7,1-1,1.5
		c-1,1.6-1.7,3.3-2.3,5.2c-0.1,0.2-0.1,0.5-0.2,0.7C235.5,167,235.6,172.8,237.8,177.4"/>
	<path class="st11" d="M251.4,136.9l90.1-125.8c4.9-6,11.6-9.2,17.7-9.1c3.3,0,6.5,1.1,9.1,3.2l0.2,0.2c1.6,1.3,2.9,3,3.8,4.8
		c-0.3,0-0.6-0.1-0.9-0.1c-0.4,0-0.8,0-1.2,0c-6.1-0.1-12.9,3.2-17.7,9.1l-90.1,125.8c-1.2-0.1-2.3-0.1-3.5-0.1"/>
	<path class="st10" d="M368.1,32.4c-34.8,37.9-69.6,75.8-104.4,113.8l-1.4-1.3l90.1-125.8c4.9-6,11.6-9.2,17.7-9.1
		c0.4,0,0.8,0,1.2,0c0.3,0,0.6,0.1,0.9,0.1C375.3,16.5,373.9,25.4,368.1,32.4z"/>
	<path class="st12" d="M124.4,136.9l-2.9,2.7C87.3,102.2,53,64.8,18.7,27.4C11.9,19.1,11.2,8.3,16.6,2"/>
	<path class="st10" d="M16.6,2c6.1-0.1,12.9,3.2,17.7,9.1l90.1,125.8"/>
</g>
</svg>
