<?xml version="1.0" encoding="utf-8"?>
<!-- Generator: Adobe Illustrator 28.1.0, SVG Export Plug-In . SVG Version: 6.00 Build 0)  -->
<svg version="1.1" id="Trombone" xmlns="http://www.w3.org/2000/svg" xmlns:xlink="http://www.w3.org/1999/xlink" x="0px" y="0px"
	 viewBox="0 0 409.2 324.5" style="enable-background:new 0 0 409.2 324.5;" xml:space="preserve">
<style type="text/css">
	.st0{fill:none;}
	.st1{fill:#FFCE54;}
	.st2{fill:#EAAB38;}
	.st3{fill:#F6BB3F;}
</style>
<path class="st0" d="M389.1,19.8l0.8,0.8c3,3,3,7.7,0,10.7L237.2,184l-11.5-11.5L378.3,19.8C381.3,16.9,386.1,16.9,389.1,19.8z"/>
<path class="st0" d="M170.5,202.5"/>
<g>
	<path class="st1" d="M225.3,220.1c3.2,3.5,3.1,8.9-0.3,12.3c-3.5,3.5-9.1,3.5-12.5,0L201.1,221c-3.5-3.5-3.5-9.1,0-12.5
		c1.7-1.7,4-2.6,6.3-2.6c2,0,4,0.7,5.6,2c0.1,0.1,0.2,0.2,0.4,0.3l0,0c0.2,0.2,0.5,0.4,0.7,0.6L225.3,220.1L225.3,220.1z"/>
	<path class="st0" d="M225,219.8c0.1,0.1,0.2,0.2,0.3,0.3"/>
	<path class="st0" d="M225,219.8"/>
	<path class="st0" d="M213.6,208.4c0,0-0.2-0.1-0.3-0.3"/>
	
		<rect x="216.4" y="176.5" transform="matrix(0.7071 -0.7071 0.7071 0.7071 -64.5799 213.3609)" class="st2" width="17.7" height="16.3"/>
	<path class="st3" d="M401.7,7.5c5,5,7.5,11.6,7.5,18.1c0,6.6-2.5,13.1-7.5,18.1L225.3,220.1l-11.3-11.3c-0.2-0.2-0.5-0.4-0.7-0.6
		l24.1-24.1l-0.1-0.1L389.8,31.4c3-3,3-7.8,0-10.7l-0.8-0.8c-3-3-7.8-3-10.7,0L225.7,172.5l0.1,0.1l-114,114
		c-12.7,10.1-26.8,13.1-35.5,10.7l-0.2-0.2l76.8-76.8c0.5-0.5,1-1,1.4-1.5c0,0,0.1-0.1,0.1-0.2c0.1-0.1,0.2-0.2,0.2-0.3
		c0.1-0.1,0.2-0.2,0.2-0.3c0.4-0.5,0.9-1,1.3-1.6l0.2,0.2L365.5,7.5C375.5-2.5,391.7-2.5,401.7,7.5z"/>
	<polyline class="st0" points="154.9,218.1 155.6,217.4 156.3,216.7 	"/>
	<path class="st0" d="M212.9,207.8"/>
	<path class="st0" d="M225,219.8"/>
	<path class="st0" d="M225,219.8"/>
	<path class="st0" d="M212.9,207.8"/>
</g>
<path class="st1" d="M157,176.8L157,176.8z"/>
<path class="st1" d="M206.6,33.2L255.4,82c3.2,3.2,3.2,8.4,0,11.6c-3.2,3.2-8.4,3.2-11.6,0l-1.4-1.4l-0.1,0.1c0,0-2.5-2.4-13.5,3
	c-11,5.3-18.6,11.2-32.3,19.9c-13.7,8.7-43.4,33.4-43.4,33.4s-0.5,0.5-1.4,1.2l-0.1-0.1c-2.9,2.5-6.8,6-9.3,8.3
	c-0.2,0.1-0.3,0.3-0.5,0.4c-0.7,0.6-1.2,1.1-1.4,1.4l-3,2.9l-19.1,19.1l0.1,0.2c-0.8,0.6-1.6,1.2-2.4,2l-93.6,93.6
	c-3.5,3.5-5.2,8-5.2,12.6c0,4.6,1.7,9.1,5.2,12.6c7,7,18.2,6.9,25.2,0l93.6-93.6c3.5-3.5,5.2-8,5.2-12.6c0-4.6-1.7-9.1-5.2-12.6
	c-2.3-2.3-5.1-3.8-8-4.6l12.9-12.9l0-0.1c2.4,1.4,4.7,3.2,6.8,5.3c6.7,6.7,10,15.4,10,24.2c0,7.3-2.3,14.6-7,20.7l0,0
	c-0.4,0.5-0.8,1.1-1.3,1.6c-0.1,0.1-0.2,0.2-0.2,0.3c-0.1,0.1-0.2,0.2-0.2,0.3c0,0.1-0.1,0.1-0.1,0.2c-0.4,0.4-0.7,0.8-1.1,1.2
	l-94.6,94.6c-1,1-2.1,1.9-3.1,2.8c-0.5,0.4-0.9,0.7-1.4,1c-0.2,0.2-0.5,0.3-0.7,0.5c-0.2,0.2-0.5,0.3-0.7,0.4
	c-0.7,0.5-1.5,0.9-2.2,1.3c-12.5,6.6-28.1,4.9-39-4.9c-0.4-0.4-0.8-0.7-1.2-1.1l-1.2-1.3C3,306.7,0,298.4,0,290.1
	c0-8.8,3.4-17.6,10.1-24.3l94.2-94.2c0.3-0.3,0.7-0.6,1-0.9c0.2-0.2,0.4-0.4,0.6-0.6c10-10.3,23.3-24.9,34.1-36.8
	c21.9-24.3,39.3-46.2,52.3-67.6c0,0,5.6-13.2,5.7-17.9l-3-3c-3.2-3.2-3.2-8.4,0-11.6c1.6-1.6,3.7-2.4,5.8-2.4
	C202.9,30.8,205,31.6,206.6,33.2z"/>
<path class="st1" d="M151.6,149.7l0.1,0.1c-0.5,0.4-1.1,0.9-1.7,1.4c-2.4,2-5.6,4.8-7.7,6.7C144.8,155.7,148.7,152.2,151.6,149.7z"
	/>
<path class="st1" d="M154.2,218.7c-0.4,0.5-0.9,1-1.4,1.5l-94.2,94.2c-1,1-2.1,2-3.3,2.9c1.1-0.9,2.1-1.8,3.1-2.8l94.6-94.6
	C153.4,219.5,153.8,219.1,154.2,218.7z"/>
<path class="st3" d="M65.9,234.1l0.1,0.1c-10.8,11.6-9.8,20.9-9.4,24.9c0.4,3.9,3.2,8.8,6.6,12.5c3.1,3.5,8.6,5.9,9.3,6.3
	l-12.9,12.9l0,0c0,0-5.1-3.9-7.8-6.8c-2.7-2.8-7.6-8.8-9.3-13c-1.7-4.3-3-7.1-2.6-10.4l-0.2-0.2L65.9,234.1z"/>
<path class="st0" d="M39.7,260.3l0.2,0.2c-0.4,3.3,0.9,6.1,2.6,10.4c1.7,4.3,6.6,10.2,9.3,13c2.7,2.8,7.8,6.8,7.8,6.8l0,0l-12,12
	c-7,7-18.2,7-25.2,0c-3.5-3.5-5.2-8-5.2-12.6c0-4.6,1.7-9.1,5.2-12.6L39.7,260.3z"/>
<path class="st0" d="M141.3,183.9c3.5,3.5,5.2,8,5.2,12.6c0,4.6-1.7,9.1-5.2,12.6l-68.7,68.7c-0.7-0.3-6.1-2.8-9.3-6.3
	c-3.4-3.7-6.2-8.5-6.6-12.5c-0.4-3.9-1.4-13.3,9.4-24.9l-0.1-0.1l50.2-50.2c0.7-0.7,1.5-1.4,2.4-2l0,0c4.4-3,9.8-3.9,14.8-2.6
	C136.2,180.1,139,181.6,141.3,183.9z"/>
<path class="st0" d="M72.6,277.8"/>
<path class="st0" d="M66.5,274.3"/>
<path class="st0" d="M56.5,259.7"/>
<path class="st0" d="M66,234.2"/>
<path class="st0" d="M76.2,297.3"/>
<path class="st0" d="M72.6,277.8C72.6,277.8,72.6,277.8,72.6,277.8"/>
<line class="st0" x1="176.9" y1="196.2" x2="176.8" y2="196.2"/>
<path class="st3" d="M151.6,149.7l35.8,35.8l-9.2,9.2l-36.1-36.1l-0.2-0.2c0.2-0.1,0.3-0.3,0.5-0.4
	C144.8,155.7,148.7,152.2,151.6,149.7z"/>
<path class="st0" d="M50.3,320.5c-12.4,6.6-28.1,5-39-4.9C22.2,325.4,37.8,327.1,50.3,320.5z"/>
<path class="st0" d="M156.1,216.4L156.1,216.4c-0.4,0.6-0.8,1.1-1.3,1.6C155.3,217.5,155.7,217,156.1,216.4z"/>
<path class="st3" d="M137.5,162.7l-19.1,19.1l0.1,0.2l0,0c4.4-3,9.8-3.9,14.8-2.6l12.9-12.9l0-0.1
	C143.5,164.7,140.5,163.4,137.5,162.7z"/>
<path class="st0" d="M141.3,183.9c3.5,3.5,5.2,8,5.2,12.6c0,4.6-1.7,9.1-5.2,12.6l-93.6,93.6c-7,7-18.2,7-25.2,0
	c-3.5-3.5-5.2-8-5.2-12.6c0-4.6,1.7-9.1,5.2-12.6l93.6-93.6c0.7-0.7,1.5-1.4,2.4-2l0,0c4.4-3,9.8-3.9,14.8-2.6
	C136.2,180.1,139,181.6,141.3,183.9z"/>
</svg>
