<?xml version="1.0" encoding="utf-8"?>
<!-- Generator: Adobe Illustrator 28.1.0, SVG Export Plug-In . SVG Version: 6.00 Build 0)  -->
<svg version="1.1" id="Trumpet" xmlns="http://www.w3.org/2000/svg" xmlns:xlink="http://www.w3.org/1999/xlink" x="0px" y="0px"
	 viewBox="0 0 410.4 408.78" enable-background="new 0 0 410.4 408.78" xml:space="preserve">
<polygon fill="none" points="79.68,260.68 79.72,260.71 62.98,277.45 62.95,277.42 "/>
<rect x="161.05" y="167.23" transform="matrix(0.7071 -0.7071 0.7071 0.7071 -67.5692 171.3975)" fill="none" width="24.13" height="0.07"/>
<path fill="#FBA931" d="M45.58,362.5l-16.32,16.2l-0.03,0.03L3.02,352.52c-4.02-4.02-4.02-10.54,0-14.56l1.73-1.73
	c4.02-4.02,10.54-4.02,14.56,0l9.72,9.72L45.58,362.5z"/>
<path fill="#F8982C" d="M72.55,404.04l-1.73,1.73c-4.02,4.02-10.54,4.02-14.56,0l-27.04-27.04l0.03-0.03l16.32-16.2l26.98,26.98
	C76.58,393.5,76.58,400.02,72.55,404.04z"/>
<polygon fill="#FBA931" points="97.59,278.44 84.83,291.22 80.71,295.33 80.24,294.87 80.23,294.87 63.71,278.33 63.53,278.15 
	80.41,261.26 80.62,261.47 91.99,272.85 "/>
<polygon fill="none" points="79.72,260.71 62.98,277.45 62.95,277.42 79.68,260.68 "/>
<polygon fill="none" points="130.51,244.82 113.78,261.55 113.71,261.48 130.47,244.78 "/>
<polygon fill="none" points="197.6,177.82 182.27,193.16 182.24,193.14 197.6,177.82 "/>
<path fill="#FDDB44" d="M357.03,53.38l-32.79,32.55c-28.87-28.9-49.15-57.91-52.7-73.76c0-0.02-0.01-0.04-0.01-0.06
	c-0.13-0.79-0.27-1.59-0.42-2.39V9.71c0-0.01,0-0.01,0-0.02c0-0.02-0.01-0.03-0.01-0.05c-0.39-3.41,0.19-6.03,1.84-7.68
	C281.96-7.06,319.6,15.96,357.03,53.38z"/>
<path fill="none" d="M271.1,9.72c0.15,0.8,0.29,1.6,0.42,2.39C271.34,11.28,271.2,10.48,271.1,9.72z"/>
<path fill="#FABD2A" d="M408.45,137.47c-0.67,0.67-1.5,1.16-2.47,1.48c-0.12,0.04-0.24,0.08-0.36,0.11
	c-0.12,0.04-0.25,0.07-0.38,0.1c-12.77,2.95-46.92-19.15-80.88-53.11c-0.04-0.04-0.08-0.08-0.12-0.12l32.79-32.55
	C394.45,90.8,417.47,128.45,408.45,137.47z"/>
<polygon fill="#FBA931" points="165.61,210.8 160.1,216.33 155.54,220.89 148.78,227.61 148.68,227.7 131.47,210.48 148.39,193.57 
	148.46,193.64 154.65,199.84 165.08,210.26 "/>
<polygon fill="none" points="154.98,220.34 148.16,227.17 148.14,227.15 148.23,227.06 "/>
<polygon fill="none" points="130.51,244.82 113.78,261.55 113.71,261.48 130.47,244.78 "/>
<polygon fill="none" points="197.6,177.82 182.27,193.16 182.24,193.14 197.6,177.82 "/>
<polygon fill="#F8982C" points="198.54,311.53 182.04,328.03 148.48,294.47 164.98,277.97 198.48,311.46 "/>
<rect x="195.29" y="245.65" transform="matrix(0.7071 -0.7071 0.7071 0.7071 -129.8147 225.3632)" fill="#F8982C" width="23.69" height="47.46"/>
<polygon fill="#FBA931" points="131.02,245.11 114.04,262.03 113.6,261.59 103.29,251.3 97.04,245.05 96.83,244.83 113.78,227.87 
	"/>
<polygon fill="#FBA931" points="199.55,176.65 199.52,176.69 198.71,177.5 198.7,177.5 198.12,178.07 198.11,178.07 182.64,193.53 
	182.48,193.69 165.16,176.37 182.22,159.31 "/>
<rect x="161.05" y="167.23" transform="matrix(0.7071 -0.7071 0.7071 0.7071 -67.5692 171.3975)" fill="none" width="24.13" height="0.07"/>
<path fill="#FDDB44" d="M236.98,172.52L78.32,330v0.01L45.58,362.5l-16.55-16.55l0.24-0.25l50.97-50.83h0.01l3.56-3.56L97.15,278
	l16.45-16.41l0.11-0.11l0.07,0.07l16.73-16.73l-0.04-0.04l0.11-0.11l17.56-17.52l0.02,0.02l6.83-6.83l0.76-0.76l0.95-0.95l1.22-1.22
	l1.63-1.63l5.53-5.52l17.01-16.96l0.16-0.16l0.02,0.02l15.34-15.34c0.36-0.11,0.73-0.22,1.09-0.32h0.01
	c0.68-0.2,1.35-0.39,2.03-0.58c0.04-0.02,0.07-0.03,0.11-0.03c0.68-0.19,1.35-0.37,2.03-0.55c0.94-0.25,1.87-0.48,2.81-0.7
	c0.45-0.11,0.89-0.21,1.33-0.31c0.53-0.12,1.06-0.24,1.6-0.35c0.72-0.16,1.44-0.3,2.15-0.44c1.47-0.29,2.93-0.55,4.38-0.77
	c0.72-0.12,1.44-0.22,2.16-0.32c1.99-0.28,3.96-0.5,5.93-0.66c0.79-0.07,1.58-0.13,2.37-0.18c0.79-0.05,1.57-0.09,2.36-0.12
	c0.52-0.02,1.03-0.04,1.55-0.05c0.39-0.01,0.77-0.02,1.15-0.03C232.79,172.38,234.91,172.42,236.98,172.52z"/>
<polygon fill="none" points="154.98,220.34 148.16,227.17 148.14,227.15 148.23,227.06 "/>
<path fill="#FBA931" d="M324.23,85.93l-87.25,86.59c-12.5-0.62-25.85,1.19-39.38,5.3h-0.01l-15.35,15.32l-0.16-0.16l15.48-15.46
	h0.01l1.39-1.38l0.16,0.16c12.11-11.3,26.88-27.12,40.89-48.01c11.66-17.38,22.26-32.65,28.52-55.13c3.37-12.11,7.55-33.6,3-60.99
	C275.09,28.02,295.36,57.03,324.23,85.93z"/>
<line fill="none" x1="199.12" y1="176.3" x2="199.01" y2="176.42"/>
<path fill="none" d="M271.1,9.64c-0.05-0.27-0.1-0.56-0.16-0.84"/>
<line fill="none" x1="164.98" y1="277.97" x2="164.73" y2="277.72"/>
<line fill="none" x1="181.98" y1="260.98" x2="181.48" y2="260.48"/>
<line fill="none" x1="215.96" y1="294.96" x2="215.54" y2="294.54"/>
<line fill="none" x1="232.96" y1="278.46" x2="232.29" y2="277.79"/>
<line fill="none" x1="198.73" y1="244.23" x2="198.72" y2="244.22"/>
<line fill="none" x1="182.22" y1="328.21" x2="182.04" y2="328.03"/>
<path fill="#F8982C" d="M405.72,139.29l-6.83,3.02c0,0-51.05-0.16-61.19,1.17s-59.02,32.75-67.17,37.41l-0.22,0.4
	c-9.89-5.28-21.2-8.17-33.32-8.77l87.25-86.59c0.04,0.04,0.08,0.08,0.12,0.12c33.96,33.96,68.11,56.06,80.88,53.11
	c0.13-0.03,0.26-0.06,0.38-0.1L405.72,139.29z"/>
<line fill="none" x1="406.04" y1="139.15" x2="405.71" y2="139.29"/>
<path fill="#F8982C" d="M241.19,371.18c-2.25,2.25-5.19,3.37-8.13,3.37s-5.88-1.12-8.13-3.37l-8.49-8.49l16.26-16.26l8.49,8.49
	C245.69,359.41,245.69,366.69,241.19,371.18z"/>
<path fill="#F8982C" d="M275.16,336.69c-2.25,2.24-5.19,3.37-8.13,3.37s-5.88-1.13-8.13-3.37l-8.49-8.49l16.26-16.26l8.49,8.49
	C279.65,324.92,279.65,332.2,275.16,336.69z"/>
<path fill="#FABD2A" d="M285.83,192.77c-4.63-4.63-9.84-8.45-15.52-11.48c-9.89-5.28-21.2-8.17-33.32-8.77L78.32,330v0.01
	L45.58,362.5l17.19,17.19l21.17-21.18l0.34-0.14c3.34,8.07,8.1,15.36,14.34,21.6c16.27,16.28,39.76,22.54,65.39,19.71h0.01
	c17.32-5.01,22.9-9.45,31.02-16.11c2.32-1.9,10.64-10.06,21.44-20.84c4.05-4.06,8.45-8.47,13.02-13.07
	c0.68-0.68,1.36-1.38,2.06-2.07c0.38-0.38,0.76-0.76,1.15-1.15c5.88-5.94,11.96-12.1,17.86-18.08c5.68-5.74,11.17-11.32,16.14-16.38
	c12.96-13.17,22.44-22.85,22.44-22.85s15.53-19.01,16.77-35.17c0.03-0.26,0.04-0.52,0.06-0.78
	C307.51,229.5,301.04,207.98,285.83,192.77z M232.29,277.79l-16.75,16.75l-16.99,16.99l-16.51,16.5l-17.99,17.99
	c-9.27,9.27-24.29,9.27-33.56,0c-9.27-9.26-9.27-24.29,0-33.56l17.99-17.99l16.5-16.5l17-16.99l16.75-16.75l18.58-18.58
	c9.27-9.27,24.29-9.27,33.56,0c4.63,4.63,6.95,10.7,6.95,16.78c0,6.07-2.32,12.15-6.95,16.78L232.29,277.79z"/>
<path fill="none" d="M182.04,328.03l-17.99,17.99c-9.27,9.27-24.29,9.27-33.56,0c-9.27-9.26-9.27-24.29,0-33.56l17.99-17.99
	L182.04,328.03z"/>
<polygon fill="none" points="215.54,294.54 198.54,311.53 198.48,311.46 164.98,277.97 181.98,260.98 "/>
<path fill="none" d="M257.82,242.43c0,6.07-2.32,12.15-6.95,16.78l-18.58,18.58l-33.56-33.56l18.58-18.58
	c9.27-9.27,24.29-9.27,33.56,0C255.49,230.28,257.82,236.35,257.82,242.43z"/>
<polygon fill="none" points="113.6,261.59 97.15,278 91.99,272.85 80.62,261.47 97.04,245.05 103.29,251.3 "/>
<polygon fill="none" points="148.14,227.15 130.58,244.67 113.99,228.09 131.54,210.55 "/>
<polygon fill="none" points="182.09,193.3 165.08,210.26 154.65,199.84 148.46,193.64 164.72,177.37 164.66,177.32 165.39,176.6 "/>
<path fill="#FDDB44" d="M192.33,149.76l-9.83,9.83l-0.72,0.72l-0.05-0.05l-17.06,17.06l0.05,0.05l-16.26,16.27l-0.72,0.72
	l-16.2,16.19l-17.54,17.54l-0.72,0.72l-16.23,16.24l-16.42,16.42l-0.72,0.72l-0.08,0.07l-0.03-0.03l-16.09,16.1l-0.65,0.64
	l0.03,0.03l-0.07,0.08l-8.72,8.71c-4.02,4.02-10.53,4.02-14.55,0l-1.74-1.73c-4.02-4.02-4.02-10.54,0-14.56l138.04-138.03
	c4.01-4.02,10.53-4.02,14.55,0l1.73,1.73C196.35,139.22,196.35,145.74,192.33,149.76z"/>
</svg>
